<?xml version="1.0" encoding="utf-8"?>
<!-- Generator: Adobe Illustrator 22.1.0, SVG Export Plug-In . SVG Version: 6.00 Build 0)  -->
<svg version="1.1" id="_x3F__x3F__x3F__x3F__1" xmlns="http://www.w3.org/2000/svg" xmlns:xlink="http://www.w3.org/1999/xlink"
	 x="0px" y="0px" viewBox="0 0 153.9 45.5" style="enable-background:new 0 0 153.9 45.5;" xml:space="preserve">
<style type="text/css">
	.st0{fill:#FFFFFF;}
	.st1{fill:#A5132A;}
	.st2{fill:#B34A47;}
</style>
<path class="st0" d="M115.7,16.3L115.7,16.3c0-0.7-0.2-1.3-0.5-1.8h-5.4v3.5h5.4C115.5,17.6,115.7,17,115.7,16.3 M88.8,24.4
	L88.8,24.4L81.6,9.2c-0.3-0.7-1-1.1-1.7-1.1c-0.7,0-1.4,0.4-1.7,1.1L71,24.4h4.2l4.7-9.9l4.7,9.9H88.8z M60.3,8.2L60.3,8.2
	c-0.7,0-1.4,0.4-1.7,1.1l-7.2,15.2h4.2l1.2-2.6h5.5l-1.6-3.4h-2.2l1.8-3.9l4.7,9.9h4.2L62,9.2C61.7,8.6,61.1,8.2,60.3,8.2 M138.7,8
	L138.7,8h-5.1l-6.3,5.4V8h-3.5v6.2l0,0v10.2h3.5v-6.5l0.7-0.6l6.3,7.1h4.5l-8.2-9.3L138.7,8z M88,11.7L88,11.7h14.5V8.2H88V11.7z
	 M93.5,24.4L93.5,24.4H97V13h-3.5V24.4z M120.3,16.2L120.3,16.2c0-2.4-0.7-4.3-2.3-5.8c-1.5-1.5-3.5-2.2-5.8-2.2H105l2.2,3.5h5
	c1.3,0,2.4,0.4,3.3,1.3c0.9,0.9,1.3,2,1.3,3.3c0,1.3-0.4,2.4-1.3,3.3c-0.9,0.8-2,1.3-3.3,1.3h-5l-2.3,3.5h7.2c2.3,0,4.2-0.8,5.8-2.3
	C119.5,20.5,120.3,18.5,120.3,16.2 M153.9,24.4L153.9,24.4l-2.3-3.5h-5c-1.3,0-2.4-0.4-3.3-1.3c-0.9-0.8-1.3-1.9-1.3-3.3
	c0-1.3,0.4-2.5,1.3-3.3c0.9-0.9,2-1.3,3.3-1.3h5l2.2-3.5h-7.2c-2.4,0-4.3,0.7-5.8,2.2c-1.5,1.5-2.3,3.4-2.3,5.8
	c0,2.4,0.8,4.4,2.3,5.9c1.5,1.6,3.4,2.3,5.8,2.3H153.9z M122.8,36.6L122.8,36.6c0-0.8-0.3-1.4-0.8-1.9c-0.5-0.5-1.1-0.7-1.9-0.7
	h-3.7c-0.8,0-1.4,0.3-1.9,0.7c-0.5,0.5-0.7,1.1-0.7,1.9c0,0.8,0.3,1.4,0.8,1.9c0.5,0.5,1.1,0.7,1.9,0.7h0.7v0h0.5v-4.4h1.3v4.4h0.5
	v0h0.7c0.7,0,1.4-0.2,1.9-0.7C122.5,38,122.8,37.4,122.8,36.6 M123,33.7L123,33.7c0.7,0.7,1.1,1.6,1.1,2.8c0,1.2-0.4,2.1-1.1,2.9
	c-0.7,0.8-1.7,1.1-2.8,1.1h-0.5h-0.2H119h-1.3h-0.5h-0.2h-0.5c-1.2,0-2.1-0.4-2.8-1.1c-0.8-0.8-1.1-1.7-1.1-2.9
	c0-1.2,0.4-2.1,1.1-2.8c0.7-0.7,1.7-1.1,2.9-1.1h3.7C121.3,32.6,122.3,33,123,33.7 M144.6,34L144.6,34h9.3v-1.4h-9.3V34z
	 M148.5,40.6L148.5,40.6h1.3v-5.8h-1.3V40.6z M91,36.6L91,36.6c0-0.8-0.3-1.4-0.7-1.9c-0.5-0.5-1.1-0.7-1.9-0.7h-3.7
	c-0.8,0-1.4,0.3-1.9,0.7c-0.5,0.5-0.7,1.1-0.7,1.9c0,0.8,0.3,1.4,0.8,1.9c0.5,0.5,1.1,0.7,1.9,0.7h3.7c0.8,0,1.4-0.2,1.9-0.7
	C90.8,38,91,37.4,91,36.6 M91.3,33.7L91.3,33.7c0.7,0.7,1.1,1.6,1.1,2.8c0,1.2-0.4,2.1-1.1,2.9c-0.8,0.8-1.7,1.1-2.8,1.1h-3.7
	c-1.2,0-2.1-0.4-2.8-1.1c-0.8-0.8-1.1-1.7-1.1-2.9c0-1.2,0.4-2.1,1.1-2.8c0.7-0.7,1.7-1.1,2.9-1.1h3.7C89.6,32.6,90.5,33,91.3,33.7
	 M53.6,34.7c-0.5,0.5-0.7,1.1-0.7,1.9c0,0.7,0.3,1.4,0.7,1.9c0.5,0.5,1.1,0.7,1.9,0.7h4.8l0.9,1.4h-5.7c-1.2,0-2.1-0.4-2.8-1.1
	c-0.8-0.8-1.1-1.7-1.1-2.9c0-1.2,0.4-2.1,1.1-2.8c0.7-0.7,1.7-1.1,2.9-1.1h5.7L60.2,34h-4.8C54.7,34,54,34.2,53.6,34.7"/>
<path class="st1" d="M18.5,0L18.5,0c-4.2,0-8.2,1.2-11.6,3.2l3.3,5.9c2.4-1.5,5.3-2.3,8.3-2.3c8.8,0,15.9,7.2,15.9,15.9
	c0,6.7-3.3,9.7-5.8,12.4C33.7,33,41,25.6,41,25.6c0.1-1,0.2-1.9,0.2-2.9C41.2,10.2,31,0,18.5,0 M6.2,29.7L6.2,29.7
	C8,18.5,20.4,13.1,31.4,17.4c-9.2-9.1-24.8-5-29,2.9c-2.5,4.6-2.9,9.2-2,12.6c1.9,7.3,5,8.6,10.4,11.2C7,41,5.3,35,6.2,29.7
	 M20.9,39.5c4.5,0,12.4-3.3,19.4-10.8c-1.2,4.5-3.8,8.4-7.2,11.3c-2.9,2.5-6.4,4.2-10.3,5c-1.4,0.3-7.2,2.1-12.1-3.6
	C8.4,38.7,7.3,34.6,8.1,30c1.6-9.8,13.9-14.5,24.2-10.1c0.5,1.8,0.3,4.8-0.4,6.8c-11.7-3.8-17,0.4-17.3,4.2
	C14.1,36.5,17.1,39.5,20.9,39.5"/>
<path class="st2" d="M27.5,14.5c-9.2-5-21.4-1-25,5.8c-2.5,4.6-2.9,9.2-2,12.6c0.3,1.2,0.7,2.3,1.1,3.2
	C3.4,13.1,20.2,13.3,27.5,14.5"/>
<path class="st2" d="M18.5,0c-4.2,0-8.2,1.2-11.6,3.2l1.4,2.5c3-1.7,14.1-6.5,29.7,5.4C34,4.5,26.8,0,18.5,0"/>
<path class="st2" d="M32.5,23c0.1-1.2,0-2.3-0.2-3.1C21.9,15.5,9.7,20.2,8.1,30c-0.4,2.8-0.2,5.3,0.5,7.5
	C10.1,18.1,29.2,22.1,32.5,23"/>
<path class="st2" d="M28.1,9.9c3.9,2.9,6.4,7.5,6.4,12.7c0,6.7-3.3,9.7-5.8,12.4c1.7-0.7,3.6-2,5.4-3.4C40,19.2,31.5,12.1,28.1,9.9"
	/>
<path class="st2" d="M36.7,36.2c1.6-2.2,2.9-4.7,3.6-7.4c-7,7.5-14.9,10.8-19.4,10.8c-0.2,0-0.4,0-0.5,0
	C23.4,40.3,28.8,40.5,36.7,36.2"/>
</svg>
