<svg xmlns="http://www.w3.org/2000/svg" fill="none" viewBox="0.13 0.13 39.03 39.11">
	<path d="M19.6455 39.2401C18.9814 39.2401 18.3173 39.1453 17.6532 38.9558C14.4276 38.1977 11.961 35.5442 11.3917 32.3222C11.202 31.185 11.961 30.1426 13.0994 29.8583C14.2379 29.6687 15.2815 30.4269 15.5661 31.5641C15.8507 33.1751 17.084 34.5018 18.7917 34.8809C21.0686 35.4495 23.3455 34.028 23.9148 31.7536C24.1994 30.6164 24.0096 29.4792 23.4404 28.5315C22.8712 27.5839 21.9225 26.9205 20.784 26.6362C19.6455 26.3519 18.9814 25.2147 19.2661 24.0775C19.5507 22.9403 20.6891 22.277 21.8276 22.5613C26.3814 23.6985 29.1327 28.2472 27.9942 32.7012C26.9506 36.6814 23.4404 39.2401 19.6455 39.2401Z" fill="url(#paint0_linear)"/>
	<path d="M8.54564 28.0577C7.88154 28.0577 7.21744 27.963 6.55334 27.7734C1.9995 26.6362 -0.751771 22.0875 0.386687 17.6335C1.14566 14.4114 3.80206 11.9475 7.02769 11.3789C8.16615 11.1893 9.20974 11.9475 9.49435 13.0847C9.68409 14.2219 8.92512 15.2643 7.78666 15.5486C6.17385 15.8329 4.84565 17.0649 4.46616 18.7706C3.80206 20.9503 5.22513 23.2247 7.50205 23.7933C8.64051 24.0776 9.77897 23.888 10.7277 23.3194C11.6764 22.7508 12.3405 21.8032 12.6251 20.666C12.9097 19.5288 14.0482 18.8654 15.1866 19.1497C16.3251 19.434 16.9892 20.5712 16.7046 21.7084C16.1354 23.888 14.8072 25.7833 12.9097 26.9205C11.5815 27.6787 10.0636 28.0577 8.54564 28.0577Z" fill="url(#paint1_linear)"/>
	<path d="M30.7445 11.2362C31.4086 11.2362 32.0727 11.331 32.7368 11.5205C37.2907 12.6577 40.0419 17.2065 38.9035 21.6605C38.1445 24.8825 35.4881 27.3465 32.2625 27.9151C31.124 28.1046 30.0804 27.3465 29.7958 26.2093C29.6061 25.0721 30.365 24.0297 31.5035 23.7454C33.1163 23.4611 34.4445 22.2291 34.824 20.5233C35.4881 18.3437 34.065 16.0693 31.7881 15.5007C30.6496 15.2164 29.5112 15.4059 28.5625 15.9745C27.6138 16.5431 26.9497 17.4908 26.665 18.628C26.3804 19.7652 25.242 20.4285 24.1035 20.1442C22.9651 19.8599 22.301 18.7227 22.5856 17.5855C23.1548 15.4059 24.483 13.5106 26.3804 12.3734C27.7086 11.6153 29.2266 11.2362 30.7445 11.2362Z" fill="url(#paint2_linear)"/>
	<path d="M11.2366 8.54521C11.2366 7.88111 11.3314 7.21701 11.5209 6.55291C12.6581 1.99908 17.2069 -0.752198 21.6609 0.38626C24.883 1.14523 27.3469 3.80163 27.9155 7.02727C28.105 8.16572 27.3469 9.20931 26.2097 9.49392C25.0725 9.68367 24.0301 8.9247 23.7458 7.78624C23.4615 6.17342 22.2295 4.84522 20.5237 4.46573C18.3441 3.80163 16.0697 5.22471 15.5011 7.50162C15.2168 8.64008 15.4064 9.77854 15.975 10.7273C16.5436 11.676 17.4912 12.3401 18.6284 12.6247C19.7656 12.9093 20.429 14.0478 20.1447 15.1862C19.8604 16.3247 18.7232 16.9888 17.586 16.7042C15.4064 16.1349 13.511 14.8067 12.3738 12.9093C11.6157 11.5811 11.2366 10.0632 11.2366 8.54521Z" fill="url(#paint3_linear)"/>
	<defs>
		<linearGradient id="paint0_linear" x1="18.7002" y1="4.02634" x2="19.9014" y2="35.6137" gradientUnits="userSpaceOnUse">
			<stop stop-color="#02C786"/>
			<stop offset="1" stop-color="#178E82"/>
		</linearGradient>
		<linearGradient id="paint1_linear" x1="3.30076" y1="17.8513" x2="31.8954" y2="31.4559" gradientUnits="userSpaceOnUse">
			<stop stop-color="#03C947"/>
			<stop offset="1" stop-color="#028BA0"/>
		</linearGradient>
		<linearGradient id="paint2_linear" x1="10.9722" y1="7.00503" x2="36.5112" y2="22.6155" gradientUnits="userSpaceOnUse">
			<stop stop-color="#03C947"/>
			<stop offset="1" stop-color="#028BA0"/>
		</linearGradient>
		<linearGradient id="paint3_linear" x1="19.7871" y1="4.00798" x2="21.5636" y2="34.5951" gradientUnits="userSpaceOnUse">
			<stop stop-color="#02C786"/>
			<stop offset="1" stop-color="#178E82"/>
		</linearGradient>
	</defs>
</svg>