<svg xmlns="http://www.w3.org/2000/svg" viewBox="0 0 174 32">
    <path fill="#0769b4" class="cls-1" d="M0,2.76A1.57,1.57,0,0,1,.43,1.65,1.53,1.53,0,0,1,1.6,1.19a1.57,1.57,0,0,1,1.18.46,1.55,1.55,0,0,1,.44,1.12,1.52,1.52,0,0,1-.44,1.11,1.58,1.58,0,0,1-1.18.45A1.55,1.55,0,0,1,.43,3.87,1.53,1.53,0,0,1,0,2.76ZM2.75,30H.41V8.87H2.75Z"/>
    <path fill="#0769b4" class="cls-1" d="M9.65,30V1.56H18q4.57,0,6.93,1.89A6.69,6.69,0,0,1,27.34,9a6.3,6.3,0,0,1-1.2,3.84,6.56,6.56,0,0,1-3.29,2.34A6.89,6.89,0,0,1,28.36,22a7.39,7.39,0,0,1-2.43,5.89A10,10,0,0,1,19.16,30Zm2.4-15.68h6.56a7.37,7.37,0,0,0,4.66-1.42,4.84,4.84,0,0,0,1.65-4,4.75,4.75,0,0,0-1.71-4A8.48,8.48,0,0,0,18,3.59h-6Zm0,2V28h7.21a7.2,7.2,0,0,0,4.89-1.57A5.47,5.47,0,0,0,26,22a5.28,5.28,0,0,0-1.73-4.16,7,7,0,0,0-4.78-1.53Z"/>
    <path fill="#0769b4" d="M47,30a11.11,11.11,0,0,1-.45-2.95,8.15,8.15,0,0,1-3.13,2.47,9.6,9.6,0,0,1-4,.87,7.09,7.09,0,0,1-4.93-1.7,5.54,5.54,0,0,1-1.88-4.3,5.66,5.66,0,0,1,2.57-4.88,12.35,12.35,0,0,1,7.16-1.8h4.24v-2.4a4.63,4.63,0,0,0-1.4-3.56A5.77,5.77,0,0,0,41,10.45a6.38,6.38,0,0,0-4,1.25,3.72,3.72,0,0,0-1.6,3l-2.34,0a5.43,5.43,0,0,1,2.34-4.37,9,9,0,0,1,5.76-1.85,8.23,8.23,0,0,1,5.58,1.77,6.34,6.34,0,0,1,2.1,4.93v10a12.4,12.4,0,0,0,.64,4.59V30Zm-7.34-1.68a7.84,7.84,0,0,0,4.19-1.13,6.66,6.66,0,0,0,2.69-3V19.51H42.3a10.48,10.48,0,0,0-5.47,1.28,3.84,3.84,0,0,0-2,3.41,3.78,3.78,0,0,0,1.32,2.95A5,5,0,0,0,39.61,28.32Z"/>
    <path fill="#0769b4" d="M57.27,8.87l.08,3.61a8.39,8.39,0,0,1,3-3,7.71,7.71,0,0,1,3.93-1,6.34,6.34,0,0,1,5.06,1.91Q71,12.31,71,16.13V30H68.65V16.11a6.45,6.45,0,0,0-1.2-4.22,4.71,4.71,0,0,0-3.78-1.39,5.91,5.91,0,0,0-3.84,1.36,8,8,0,0,0-2.47,3.66V30H55V8.87Z"/>
    <path fill="#0769b4" d="M82,19.36l-2.68,2.58V30H77V0h2.34V19.2l2.21-2.38,8.09-7.95H92.6l-9,8.91L93.38,30H90.59Z"/>
    <path fill="#0769b4" d="M114,30H96.23V28.2L106,17.15a25.59,25.59,0,0,0,3.36-4.61A7.68,7.68,0,0,0,110.27,9a5.75,5.75,0,0,0-1.58-4.27,5.91,5.91,0,0,0-4.36-1.57A6.15,6.15,0,0,0,99.7,5a6.58,6.58,0,0,0-1.77,4.77H95.6a8.93,8.93,0,0,1,1.08-4.37,7.8,7.8,0,0,1,3.09-3.1,9.16,9.16,0,0,1,4.56-1.12,8.6,8.6,0,0,1,6.1,2.05,7.27,7.27,0,0,1,2.2,5.59,9.47,9.47,0,0,1-1.24,4.36,32.39,32.39,0,0,1-4.37,5.9L99.1,28H114Z"/>
    <path fill="#0769b4" d="M118.55,28.59a1.66,1.66,0,0,1,.44-1.16,1.58,1.58,0,0,1,1.22-.48,1.61,1.61,0,0,1,1.23.48,1.64,1.64,0,0,1,.45,1.16,1.5,1.5,0,0,1-.45,1.12,1.69,1.69,0,0,1-1.23.44,1.65,1.65,0,0,1-1.22-.44A1.52,1.52,0,0,1,118.55,28.59Z"/>
    <path fill="#0769b4" d="M139.49,18.14h-8.26V30h-2.42V1.56H138a10.55,10.55,0,0,1,7.11,2.2,7.7,7.7,0,0,1,2.56,6.16,7.7,7.7,0,0,1-1.6,4.82,8.19,8.19,0,0,1-4.3,2.89l7.11,12.11V30h-2.56Zm-8.26-2h7.36a6.82,6.82,0,0,0,4.86-1.72,5.84,5.84,0,0,0,1.84-4.46,5.86,5.86,0,0,0-1.91-4.67A7.93,7.93,0,0,0,138,3.59h-6.78Z"/>
    <path fill="#0769b4" d="M173.85,1.56V21a9.83,9.83,0,0,1-1.27,5,8.32,8.32,0,0,1-3.53,3.27,11.49,11.49,0,0,1-5.22,1.14,10.31,10.31,0,0,1-7.2-2.45,9,9,0,0,1-2.8-6.79V1.56h2.38V20.8a7.39,7.39,0,0,0,2.05,5.58,8.78,8.78,0,0,0,11.12,0,7.4,7.4,0,0,0,2-5.55V1.56Z"/>
</svg>