<svg id="Group_1141" data-name="Group 1141" xmlns="http://www.w3.org/2000/svg" viewBox="0 0 156.271 53.104"><defs><style>.cls-1{fill:#555b5f}.cls-2{fill:#e94835}</style></defs><g id="Group_1087" data-name="Group 1087" transform="translate(74.519 10.908)"><g id="Group_1085" data-name="Group 1085" transform="translate(.172)"><path id="Path_788" data-name="Path 788" class="cls-1" d="M143.075 30.812a24.983 24.983 0 0 1-6.832.861c-2.411 0-4.019-.287-4.88-.8s-1.263-1.607-1.263-3.158.459-2.583 1.378-3.1a8.975 8.975 0 0 1 4.248-.8c.861 0 2.124.115 3.789.287 0-.861-.23-1.493-.689-1.722a7.247 7.247 0 0 0-3.158-.4 19.124 19.124 0 0 0-4.478.517l-.517-2.871a33.867 33.867 0 0 1 6.086-.517 8.59 8.59 0 0 1 4.822 1.033c1.033.689 1.493 1.895 1.493 3.617zm-3.675-4.421a22.435 22.435 0 0 0-2.813-.172 7.356 7.356 0 0 0-2.124.23c-.344.115-.517.517-.517 1.091 0 .632.172 1.033.459 1.148a5.352 5.352 0 0 0 2.067.23 15.2 15.2 0 0 0 2.871-.287v-2.24z" transform="translate(-130.1 -19.043)"/><path id="Path_789" data-name="Path 789" class="cls-1" d="M171.519 19.5h5.454v12h-3.789v-8.555a87.08 87.08 0 0 0-4.306 7.923h-2.7a68.164 68.164 0 0 0-4.191-7.923V31.5H158.2v-12h5.684a58.246 58.246 0 0 1 3.789 6.947c.976-2.067 2.296-4.364 3.846-6.947z" transform="translate(-142.068 -19.213)"/><path id="Path_790" data-name="Path 790" class="cls-1" d="M203.126 22.6v8.9h-3.846v-8.9h-4.88v-3.1h13.606v3.1z" transform="translate(-157.485 -19.213)"/><path id="Path_791" data-name="Path 791" class="cls-1" d="M232.454 20.206c1.148.919 1.55 2.526 1.55 5.11v1.033h-9.3a1.925 1.925 0 0 0 .861 1.837 6.511 6.511 0 0 0 2.871.459 16.986 16.986 0 0 0 4.134-.517l.632 2.928a22.4 22.4 0 0 1-5.339.574 8.48 8.48 0 0 1-5.052-1.32c-1.32-.919-2.009-2.641-2.009-5.052 0-4.593 2.411-6.258 6.832-6.258 2.294 0 3.672.287 4.82 1.206zm-2.239 3.5a1.961 1.961 0 0 0-.632-1.665 4.162 4.162 0 0 0-2.067-.4c-2.009 0-2.641.459-2.813 2.009h5.511z" transform="translate(-168.729 -19)"/><path id="Path_792" data-name="Path 792" class="cls-1" d="M253.147 22.7a20.129 20.129 0 0 1-.976 5.224c-.861 2.411-2.354 3.847-5.11 3.961-.4-1.607-.632-2.756-.861-3.559 1.837 0 2.985-2.009 3.445-8.726h11.482v11.941h-3.847V22.7z" transform="translate(-179.546 -19.256)"/></g><g id="Group_1086" data-name="Group 1086" transform="translate(0 21.414)"><path id="Path_793" data-name="Path 793" class="cls-1" d="M138.584 65.715a10.3 10.3 0 0 1-3.215.459 6.643 6.643 0 0 1-4.191-1.091c-.919-.746-1.378-2.067-1.378-3.9s.459-3.1 1.378-3.789a6.643 6.643 0 0 1 4.191-1.091 10.691 10.691 0 0 1 3.215.4l-.344 1.493a9.484 9.484 0 0 0-2.756-.344c-1.493 0-2.3.115-2.928.632-.632.459-.861 1.32-.861 2.756a3.6 3.6 0 0 0 .8 2.7 4.85 4.85 0 0 0 2.985.689 8.652 8.652 0 0 0 2.756-.4z" transform="translate(-129.8 -56.3)"/><path id="Path_794" data-name="Path 794" class="cls-1" d="M158.875 63.517c0 1.722-1.033 2.583-3.158 2.583H149v-9.3h6.487a3.777 3.777 0 0 1 2.354.574 2.2 2.2 0 0 1 .632 1.665c0 1.32-.459 2.009-2.354 2.124 1.837 0 2.756.804 2.756 2.354zm-3.789-2.985c1.206 0 1.55-.4 1.55-1.206 0-.861-.287-1.091-1.55-1.091h-4.306v2.3zm0 4.191c1.263 0 1.78-.344 1.78-1.32 0-1.033-.632-1.493-1.895-1.493h-4.191v2.813z" transform="translate(-137.977 -56.513)"/><path id="Path_795" data-name="Path 795" class="cls-1" d="M179.964 56.8v9.358h-1.78v-3.617h-2.3a3.817 3.817 0 0 0-2.354.689 9.2 9.2 0 0 0-2.009 2.928H169.4a17.18 17.18 0 0 1 2.182-3.215 2.973 2.973 0 0 1 1.837-.919c-2.3 0-3.215-1.033-3.215-2.469 0-1.837 1.206-2.756 3.5-2.756zm-1.78 4.306v-2.813h-3.961c-1.493 0-2.067.344-2.067 1.378s.574 1.435 1.952 1.435z" transform="translate(-146.665 -56.513)"/><path id="Path_796" data-name="Path 796" class="cls-1" d="M201.358 63.419c0 2.067-1.608 2.756-5.454 2.756a18.789 18.789 0 0 1-3.9-.4l.344-1.55a12.934 12.934 0 0 0 3.559.4 7.524 7.524 0 0 0 2.813-.344 1.278 1.278 0 0 0 .746-1.206c0-1.091-.861-1.493-3.272-1.493h-1.608V60.2h1.608c2.239 0 2.985-.4 2.985-1.206a.962.962 0 0 0-.689-.919 8.105 8.105 0 0 0-2.526-.287 11.315 11.315 0 0 0-3.445.4l-.344-1.493a19.475 19.475 0 0 1 3.846-.4c3.674 0 5.11.689 5.11 2.354 0 1.32-.689 2.182-2.7 2.3 1.894.116 2.927.92 2.927 2.47z" transform="translate(-156.291 -56.3)"/><path id="Path_797" data-name="Path 797" class="cls-1" d="M219.473 60.359c2.3 0 3.445.919 3.445 2.871 0 2.067-1.091 2.928-3.445 2.928H213.1V56.8h1.78v3.559zm-.344 4.363c1.378 0 1.837-.4 1.837-1.55 0-1.091-.459-1.435-1.952-1.435h-4.191v2.985z" transform="translate(-165.277 -56.513)"/></g></g><g id="Group_1089" data-name="Group 1089"><g id="Group_1088" data-name="Group 1088"><path id="Path_798" data-name="Path 798" class="cls-2" d="M33.241 3.5c1.665-.4 3.272-.746 4.65-.976A26.6 26.6 0 0 0 .344 22.218C1.493 21.07 2.641 19.979 3.789 19A70.6 70.6 0 0 1 33.241 3.5zm-5.225 42.543C25.318 43.919 24 40.015 24 34.217c0-5.856 1.378-9.7 4.306-11.654 2.871-2.009 7.349-2.985 13.2-2.985a52.771 52.771 0 0 1 8.21.689c.919.172 1.837.287 2.756.517v-.057c-.919-3.789-2.124-5.913-3.559-7.119a7.45 7.45 0 0 0-3.613-1.954 16.955 16.955 0 0 0-3.9-.4c-4.995 0-20.553 1.091-38.867 14.41-.8.574-1.665 1.263-2.526 1.895A26.579 26.579 0 0 0 40.7 49.029a38.906 38.906 0 0 1-4.765-.4 16.647 16.647 0 0 1-7.919-2.586zm22.5-18.2a50.929 50.929 0 0 0-6.774-.459c-6.545 0-8.325.861-8.325 6.373a15.015 15.015 0 0 0 .344 3.5 3.958 3.958 0 0 1-.517 3.215 2.964 2.964 0 0 1-1.033 1.033c-.057.057-.057.172.057.172 1.78-.057 3.158-.459 3.961-1.493 0-.057.057-.057.115-.057a18.072 18.072 0 0 0 5.339.574c.8 0 1.607-.057 2.354-.115 1.607-.172 2.871-.4 3.445-.517a26.744 26.744 0 0 0 3.674-11.884c-.856-.054-1.716-.226-2.635-.341z"/></g></g></svg>