<svg xmlns="http://www.w3.org/2000/svg" width="240" height="40" viewBox="0 0 240 40" fill="none">
<g clip-path="url(#clip0_8_838)">
<path d="M9.82007 12.34C9.96277 13.274 10.2076 14.1895 10.5501 15.07C11.7783 14.6994 13.0483 14.4844 14.3301 14.43C14.7101 10.27 15.8701 6.85 19.8701 3.56C20.6427 4.19353 21.3556 4.89646 22.0001 5.66C22.9056 5.24498 23.8459 4.91036 24.8101 4.66C23.4237 2.852 21.7558 1.2786 19.8701 0C15.7701 3 12.6701 6.51 11.7801 11.85C11.116 11.9671 10.4611 12.1308 9.82007 12.34V12.34Z" fill="#0047BB"/>
<path d="M12.25 30.11C13.1908 29.9689 14.1131 29.7241 15 29.38C14.6372 28.1435 14.4256 26.8675 14.37 25.58C10.18 25.19 6.79 24 3.52 20C4.15403 19.2283 4.84964 18.5092 5.6 17.85C5.18776 16.9365 4.85325 15.9898 4.6 15.02C2.81226 16.4256 1.25952 18.1066 0 20C3 24.12 6.46 27.25 11.78 28.14C11.8905 28.8068 12.0476 29.4651 12.25 30.11V30.11Z" fill="#0047BB"/>
<path d="M28.0001 11.87C27.8878 11.1945 27.7342 10.5266 27.5401 9.87C26.6087 10.0147 25.6964 10.2629 24.8201 10.61C25.1823 11.8467 25.3939 13.1226 25.4501 14.41C29.5601 14.82 33.0001 16 36.2201 20C35.5905 20.779 34.8909 21.4987 34.1301 22.15C34.5451 23.0659 34.8797 24.0161 35.1301 24.99C36.9266 23.5801 38.4863 21.8922 39.7501 19.99C36.7601 15.88 33.2701 12.76 28.0001 11.87Z" fill="#0047BB"/>
<path d="M29.9199 27.6699C29.7772 26.736 29.5324 25.8205 29.1899 24.9399C27.9601 25.304 26.691 25.5189 25.4099 25.5799C25.0299 29.7499 23.8599 33.1599 19.8699 36.4499C19.0961 35.8143 18.38 35.1116 17.7299 34.3499C16.8244 34.765 15.8841 35.0996 14.9199 35.3499C16.3267 37.1578 18.0149 38.7278 19.9199 39.9999C23.9999 36.9999 27.0699 33.4699 27.9999 28.1399C28.6497 28.0265 29.2912 27.8695 29.9199 27.6699V27.6699Z" fill="#0047BB"/>
<path d="M18.15 7.42996C17.5979 8.19827 17.1286 9.02287 16.75 9.88996C17.8784 10.5011 18.9265 11.2502 19.87 12.12C23.08 9.43996 26.3 7.85996 31.43 8.36996C31.5141 9.36819 31.5141 10.3717 31.43 11.37C32.3588 11.7259 33.2554 12.1609 34.11 12.67C34.3975 10.4022 34.3199 8.10311 33.88 5.85996C28.88 5.06996 24.21 5.33996 19.88 8.48996C19.3288 8.09672 18.7507 7.74252 18.15 7.42996Z" fill="#0047BB"/>
<path d="M7.36989 21.73C8.12862 22.2887 8.94695 22.7616 9.80989 23.14C10.4122 22.0099 11.1475 20.9557 11.9999 20C9.37989 16.79 7.79989 13.55 8.30989 8.37C9.30782 8.27901 10.312 8.27901 11.3099 8.37C11.6699 7.4365 12.1046 6.53357 12.6099 5.67C10.3555 5.38209 8.0695 5.45975 5.83989 5.9C4.99989 11 5.30989 15.62 8.42989 20C8.04031 20.5537 7.68627 21.1315 7.36989 21.73V21.73Z" fill="#0047BB"/>
<path d="M32.3699 18.28C31.6111 17.7213 30.7928 17.2484 29.9299 16.87C29.3181 17.9986 28.5728 19.0495 27.7099 20C30.3599 23.22 31.9399 26.46 31.4299 31.63C30.4319 31.7208 29.4278 31.7208 28.4299 31.63C28.0699 32.5635 27.6351 33.4664 27.1299 34.33C29.3847 34.6169 31.6711 34.5358 33.8999 34.09C34.6899 29.09 34.4299 24.38 31.2899 19.96C31.6827 19.4218 32.0433 18.8608 32.3699 18.28V18.28Z" fill="#0047BB"/>
<path d="M21.5899 32.58C22.1435 31.8108 22.616 30.9864 22.9999 30.12C21.8735 29.5056 20.8259 28.7568 19.8799 27.89C16.6699 30.56 13.4499 32.15 8.31989 31.63C8.23021 30.632 8.23021 29.6279 8.31989 28.63C7.39285 28.2698 6.49658 27.8351 5.63989 27.33C5.34766 29.5941 5.42534 31.8907 5.86989 34.13C10.8699 34.93 15.5299 34.66 19.9199 31.51C20.4515 31.9043 21.0095 32.2618 21.5899 32.58V32.58Z" fill="#0047BB"/>
<path d="M49.26 18.68H52C54.34 18.68 55.64 19.96 55.64 21.91C55.64 24.04 54.18 25.21 51.78 25.21H47V14.8H55V16.8601H49.26V18.68ZM49.26 20.58V23.14H51.78C52.84 23.14 53.36 22.73 53.36 21.82C53.36 20.91 52.84 20.58 51.76 20.58H49.26Z" fill="#272727"/>
<path d="M60.2501 14.72H62.3501L66.7901 25.21H64.4101L63.4601 22.88H59.0801L58.1401 25.21H55.8101L60.2501 14.72ZM62.6501 20.85L61.2701 17.47L59.9001 20.85H62.6501Z" fill="#272727"/>
<path d="M67.8701 14.8H70.1501V18.92H74.3501V14.8H76.6301V25.21H74.3501V21H70.1501V25.18H67.8701V14.8Z" fill="#272727"/>
<path d="M78.5901 14.8H80.8701V19.35L85.0701 14.8H87.8301L83.6101 19.22L88.0201 25.22H85.2801L82.0701 20.7901L80.8701 22V25.18H78.5901V14.8Z" fill="#272727"/>
<path d="M93.3101 14.8H95.7701L98.4901 19.2001L101.21 14.8H103.67V25.21H101.4V18.41L98.4901 22.8601H98.4301L95.5401 18.46V25.21H93.3101V14.8Z" fill="#272727"/>
<path d="M107.91 18.68H110.65C112.98 18.68 114.29 19.96 114.29 21.91C114.29 24.04 112.82 25.21 110.43 25.21H105.63V14.8H113.63V16.8601H107.96L107.91 18.68ZM107.91 20.58V23.14H110.43C111.49 23.14 112.01 22.73 112.01 21.82C112.01 20.91 111.49 20.58 110.41 20.58H107.91Z" fill="#272727"/>
<path d="M118.9 14.72H121L125.44 25.21H123.06L122.06 22.88H117.68L116.68 25.21H114.36L118.9 14.72ZM121.3 20.85L119.92 17.47L118.54 20.85H121.3Z" fill="#272727"/>
<path d="M126 19.54H132.34V21.66H126V19.54Z" fill="#272727"/>
<path d="M134.18 14.8H136.63L139.36 19.2001L142.08 14.8H144.54V25.21H142.27V18.41L139.36 22.8601H139.3L136.41 18.46V25.21H134.18V14.8Z" fill="#272727"/>
<path d="M146 20C145.976 18.9045 146.279 17.8269 146.871 16.9047C147.463 15.9825 148.316 15.2576 149.322 14.8227C150.327 14.3878 151.44 14.2625 152.517 14.463C153.594 14.6635 154.587 15.1806 155.369 15.9482C156.151 16.7158 156.686 17.6991 156.906 18.7724C157.126 19.8457 157.022 20.9603 156.605 21.9738C156.189 22.9873 155.48 23.8536 154.569 24.4622C153.658 25.0707 152.586 25.3937 151.49 25.39C150.773 25.4074 150.059 25.2806 149.392 25.0172C148.724 24.7537 148.117 24.359 147.605 23.8563C147.093 23.3537 146.687 22.7533 146.411 22.0909C146.136 21.4285 145.996 20.7174 146 20V20ZM154.63 20C154.645 19.5775 154.574 19.1564 154.424 18.7615C154.273 18.3667 154.044 18.0061 153.751 17.7012C153.458 17.3963 153.107 17.1533 152.719 16.9864C152.331 16.8196 151.913 16.7324 151.49 16.73C151.071 16.7348 150.658 16.8242 150.274 16.9928C149.891 17.1614 149.545 17.4057 149.258 17.7111C148.972 18.0165 148.75 18.3766 148.606 18.77C148.462 19.1633 148.398 19.5816 148.42 20C148.404 20.4233 148.473 20.8455 148.623 21.2415C148.774 21.6375 149.002 21.9992 149.295 22.3052C149.588 22.6112 149.939 22.8552 150.329 23.0226C150.718 23.1901 151.136 23.2776 151.56 23.28C151.983 23.2792 152.401 23.1925 152.789 23.0252C153.177 22.8579 153.527 22.6134 153.818 22.3067C154.109 22 154.334 21.6373 154.481 21.2408C154.627 20.8443 154.692 20.4221 154.67 20H154.63Z" fill="#272727"/>
<path d="M158.09 20C158.076 19.2872 158.207 18.579 158.474 17.9181C158.742 17.2572 159.14 16.6572 159.646 16.1545C160.151 15.6518 160.754 15.2566 161.416 14.9929C162.078 14.7292 162.787 14.6023 163.5 14.62C164.249 14.5981 164.994 14.7377 165.684 15.0294C166.374 15.321 166.994 15.7578 167.5 16.31L166.13 17.89C165.793 17.5207 165.382 17.2266 164.924 17.0267C164.465 16.8268 163.97 16.7257 163.47 16.73C163.056 16.74 162.648 16.8334 162.271 17.0047C161.893 17.176 161.555 17.4217 161.274 17.727C160.994 18.0323 160.779 18.3909 160.641 18.7815C160.502 19.1721 160.444 19.5865 160.47 20C160.443 20.4143 160.5 20.8299 160.637 21.2216C160.775 21.6134 160.99 21.9732 161.271 22.2796C161.551 22.586 161.89 22.8326 162.268 23.0045C162.646 23.1764 163.055 23.2701 163.47 23.28C163.983 23.274 164.489 23.1626 164.957 22.9527C165.425 22.7429 165.844 22.439 166.19 22.06L167.64 23.62C166.894 24.4246 165.926 24.9883 164.858 25.239C163.79 25.4896 162.671 25.4158 161.646 25.027C160.62 24.6382 159.733 23.9521 159.1 23.0565C158.467 22.1609 158.115 21.0967 158.09 20V20Z" fill="#272727"/>
<path d="M169 14.8H171.28V19.35L175.48 14.8H178.23L174 19.22L178.41 25.22H175.67L172.46 20.7901L171.23 22V25.18H169V14.8Z" fill="#272727"/>
<path d="M179.38 14.8H184.19C184.68 14.7674 185.172 14.8319 185.637 14.9897C186.102 15.1476 186.531 15.3958 186.9 15.72C187.136 15.9547 187.321 16.2358 187.444 16.5456C187.566 16.8554 187.622 17.1872 187.61 17.52C187.621 17.9855 187.498 18.4444 187.257 18.8429C187.017 19.2413 186.667 19.5629 186.25 19.77C186.821 19.9125 187.326 20.2483 187.677 20.7204C188.029 21.1925 188.207 21.7718 188.18 22.36C188.18 24.26 186.64 25.21 184.31 25.21H179.38V14.8ZM183.7 19C184.7 19 185.34 18.67 185.34 17.87C185.34 17.07 184.81 16.79 183.85 16.79H181.6V19H183.7ZM184.31 23.19C185.31 23.19 185.92 22.84 185.92 22.03C185.92 21.22 185.4 20.9 184.23 20.9H181.6V23.2L184.31 23.19Z" fill="#272727"/>
<path d="M192.94 14.72H195.05L199.48 25.21H197.1L196.16 22.88H191.77L190.83 25.21H188.51L192.94 14.72ZM195.34 20.85L194 17.47L192.62 20.85H195.34Z" fill="#272727"/>
</g>
<defs>
<clipPath id="clip0_8_838">
<rect width="240" height="40" fill="white"/>
</clipPath>
</defs>
</svg>