<svg role="img" aria-label="Банк Зенит" version="1.1" xmlns="http://www.w3.org/2000/svg" xmlns:xlink="http://www.w3.org/1999/xlink" x="0px" y="0px" width="120" height="30" viewBox="30 0 350.146 103.141" enable-background="new 0 0 350.146 103.141" xml:space="preserve"><g id="Слой_2"><path fill="#008FB4" d="M0,101.361l50.65-0.057l-0.026-50.143C40.083,71.161,20.313,84.175,0.026,89.149
		C0.083,92.937,0,101.361,0,101.361"></path> <path fill="#008FB4" d="M16.195,76.117c19.115-9.654,28.332-27.31,28.332-27.31s-0.066-5.797-0.066-5.92
		c-10.533-3.7-20.081-9.119-28.247-17.232C16.257,39.415,16.195,76.117,16.195,76.117"></path> <path fill="#008FB4" d="M18.921,0.242c0,0-0.005,15.332-0.024,19.156c5.02,4.665,7.544,6.848,12.764,10.184l0.041-20.554
		C25.736,5.749,23.435,4.006,18.921,0.242"></path> <path fill="#191646" d="M94.063,16.398c-0.431-2.739-1.977-4.568-4.588-5.436c-1.242-0.413-2.677-0.664-4.393-0.765
		c-1.045-0.061-2.091,0.017-3.102,0.094c-0.136,0.012-0.273,0.021-0.409,0.032V4.319l4.875,0.02l5.391,0.77l0.207-4.878H75.386
		l0.663,6.088l0.063,13.624l-0.765,6.465l0.965-0.009c0.002-0.002,2.283-0.023,3.362,0.005c0.584,0.014,1.168,0.047,1.75,0.075
		c0.812,0.045,1.643,0.088,2.477,0.088c0.192,0,0.385-0.002,0.574-0.007c3.138-0.085,5.53-0.859,7.315-2.367
		C94.561,21.847,94.414,18.619,94.063,16.398 M88.641,17.735c-0.002,0.57-0.041,1.066-0.118,1.518
		c-0.216,1.247-0.865,2.109-1.934,2.558c-1.412,0.603-2.946,0.763-5.038,0.52v-7.778c1.899-0.254,3.744-0.321,5.473,0.556
		C88.115,15.663,88.643,16.522,88.641,17.735"></path> <path fill="#191646" d="M110.615,3.236L109.814,0l-5.484,0.069l-0.633,2.844l-6.631,17.178l-2.893,6.163l5.758,0.088l1.002-4.693
		l1.378-3.576l8.263-0.016l1.897,4.56l1.009,3.663l7.436,0.007l-2.535-4.364L110.615,3.236z M109.001,14.089
		c-0.867,0.012-1.751,0.033-2.636,0.054c-0.869,0.021-1.739,0.043-2.592,0.053c0.5-1.247,1.031-2.5,1.559-3.745
		c0.396-0.935,0.791-1.864,1.168-2.785L109.001,14.089z"></path> <path fill="#191646" d="M163.865,26.32l7.574-0.078l-12.049-13.638l11.295-12.447l-6.645,0.049l-1.987,2.783
		c0,0-5.096,5.597-7.855,8.65l0.003-6.778l0.78-4.633h-6.962l0.423,4.57l0.1,16.109l-0.529,5.367h6.948l-0.766-5.327l0.003-6.406
		L163.865,26.32z"></path> <path fill="#191646" d="M143.285,18.486c-0.015-1.75,0.076-13.512,0.07-13.51l0.615-4.687h-6.877l0.561,4.53
		c0,0,0.017,3.446,0.02,5.488h-9.722c-0.052-2.96-0.038-5.996,0.715-8.95l0.268-1.059h-7.154l0.119,0.954
		c0.043,0.339,0.45,3.97,0.501,5.646c0.104,3.515,0.074,7.1,0.043,10.569l-0.006,0.774c-0.012,1.489-0.346,6.023-0.503,6.832
		l-0.197,1.013h6.896l-0.108-0.946c-0.069-0.605-0.146-1.205-0.222-1.806c-0.173-1.353-0.336-2.631-0.412-3.932
		c-0.072-1.309-0.057-2.659-0.036-3.968c0.003-0.312,0.007-0.62,0.01-0.934h9.895c0,0.65,0.01,1.301,0.02,1.949
		c0.042,2.973,0.081,5.782-0.682,8.568l-0.292,1.072h7.223l-0.193-1.007C143.379,22.691,143.302,20.3,143.285,18.486"></path> <path fill="#191646" d="M229.943,39.194l0.205-1.032h-14.742l0.117,0.969c0.532,4.421,0.91,8.57,1.152,12.681
		c0.176,2.951,0.135,5.99,0.093,8.931c-0.015,1.045-0.03,2.089-0.035,3.141h-27.577c-0.151-8.094-0.228-16.441,1.848-24.626
		l0.271-1.076H176.09l0.123,0.976c0.012,0.086,1.151,9.94,1.292,14.618c0.273,9.014,0.194,18.194,0.118,27.073l-0.017,2.108
		c-0.035,3.868-0.909,15.667-1.319,17.78l-0.2,1.029h14.633l-0.11-0.963c-0.176-1.536-0.37-3.061-0.564-4.582
		c-0.43-3.355-0.873-6.827-1.064-10.225c-0.194-3.405-0.146-6.899-0.102-10.275c0.017-1.232,0.033-2.465,0.038-3.697h28.029
		c-0.015,2.111,0.017,4.233,0.046,6.293c0.108,7.733,0.215,15.036-1.796,22.373l-0.3,1.097h15.24l-0.198-1.03
		c-1.194-6.252-1.395-12.467-1.435-17.183c-0.041-4.701,0.002-25.524,0.195-31.277C228.889,46.771,229.295,42.485,229.943,39.194"></path> <path fill="#191646" d="M139.998,94.008V71.47c7.045,0.198,20.477,1.262,20.617,1.271l0.932,0.073l0.039-10.34l-21.59,1.224V45.937
		c6.444-0.078,18.481-0.14,24.745,1.8l0.979,0.302l0.136-1.014c0.435-3.269,0.133-7.827,0.118-8.02l-0.055-0.803h-38.97l0.157,0.995
		c1.302,8.35,1.221,16.821,1.142,25.01c-0.019,1.896-0.039,3.796-0.039,5.703c0.106,12.117-1.216,30.698-1.23,30.882l-0.064,0.923
		l38.742,0.188l0.028-0.843c0.062-2.062,0.244-7.588,0.334-8.39l0.136-1.183l-1.168,0.234
		C157.281,93.29,149.988,93.962,139.998,94.008"></path> <path fill="#191646" d="M106.899,66.139c-0.003-0.002-0.008-0.004-0.013-0.007c0.188-0.111,0.363-0.223,0.535-0.34
		c3.498-2.384,7.546-5.887,7.786-11.857c0.335-8.265-4.17-14.092-12.364-15.994c-7.076-1.638-14.361-1.379-22.273,0.792l-0.103,0.03
		c-3.831,1.054-4.486,1.396-4.367,2.303c0.216,1.67,0.546,3.549,0.866,5.369c0.233,1.333,0.469,2.677,0.668,3.973
		c0.073,0.48,0.408,0.869,0.874,1.017c0.46,0.141,0.957,0.015,1.289-0.335l0.494-0.522c3.706-3.908,8.55-5.756,14.731-5.625
		c3.926,0.074,7.188,2.556,7.937,6.031c1.027,4.795-0.706,8.954-4.415,10.6c-1.775,0.784-3.842,1.385-6.32,1.827
		c-2.401,0.429-7.155,0.743-7.205,0.747l-0.844,0.056l0.355,8.097l0.854-0.03c0.042-0.001,4.267-0.138,7.802-0.139h0.006
		c1.596,0,6.708,0.35,9.315,1.91c2.306,1.384,3.962,3.638,4.426,6.035c0.703,3.605,1.317,12.215-8.071,14.267
		c-8.121,1.772-14.734-0.012-19.659-5.31c-0.421-0.453-0.846-0.906-1.341-1.429l-0.518-0.552c-0.312-0.329-0.77-0.443-1.2-0.304
		c-0.429,0.14-0.731,0.504-0.786,0.952l-0.244,1.98c-0.237,1.944-0.456,3.776-0.748,5.576c-0.249,1.56,0.273,2.569,1.753,3.381
		c5.482,2.994,11.515,4.503,17.978,4.503c1.236,0,2.486-0.053,3.752-0.164c5.2-0.452,9.969-2.352,13.791-5.492
		c5.571-4.569,8.1-10.118,7.512-16.48C118.482,73.745,114.362,68.742,106.899,66.139"></path> <path fill="#191646" d="M292.592,74.044c0.006-1.351,0.01-2.695,0.01-4.029c-0.001-1.244-0.006-2.493-0.011-3.744
		c-0.038-9.007-0.077-18.316,1.53-27.063l0.189-1.019h-15.188l0.194,1.023c0.511,2.711,0.952,5.595,1.311,8.574
		c0.109,0.916-0.009,1.377-0.493,1.891c-4.825,5.166-9.546,10.422-14.112,15.506c-4.168,4.642-8.474,9.434-12.854,14.152
		c0.1-3.98,0.019-7.953-0.058-11.816c-0.195-9.743-0.38-18.948,2.028-28.208l0.282-1.085h-15.567l0.344,1.117
		c1.454,4.732,1.46,9.387,1.464,14.312l0.014,4.737c0.028,8.277,0.057,16.835-0.023,25.248c-0.012,1.267,0.021,2.546,0.054,3.787
		c0.06,2.321,0.121,4.724-0.12,7.048c-0.144,1.401-0.467,2.778-0.811,4.239c-0.156,0.67-0.313,1.342-0.455,2.025l-0.217,1.038h14.98
		l-0.158-0.998c-0.323-2.063-0.544-4.12-0.756-6.112c-0.123-1.16-0.246-2.314-0.389-3.471c-0.058-0.471,0.161-1.192,0.459-1.514
		c4.275-4.632,8.49-9.322,12.565-13.86c4.621-5.147,9.398-10.465,14.267-15.697c0.002,0.533,0.002,1.062,0.004,1.581
		c0.006,2.462,0.013,4.799-0.014,7.134c-0.033,2.817,0.002,5.675,0.035,8.44c0.049,4.251,0.101,8.648-0.088,12.956
		c-0.106,2.387-0.51,4.723-0.936,7.197c-0.193,1.113-0.384,2.226-0.548,3.346l-0.145,0.991h14.936l-0.196-1.024
		C292.531,92.353,292.563,83.047,292.592,74.044"></path> <path fill="#191646" d="M330.93,46.653c0-0.121,0.014-0.316,0.033-0.531l19.184,2.469l-1.228-10.515h-47.962l-1.062,10.511
		l20.54-2.475v1.118c0,7.95-0.014,37.557-0.016,39.003l-1.98,15.527h14.543l-1.818-15.253
		C331.162,86.242,330.977,59.784,330.93,46.653"></path></g></svg>