<svg width="122" height="59" viewBox="0 0 122 59" fill="none" xmlns="http://www.w3.org/2000/svg">
<path d="M121.96 18.4333V38.6695H118.036V25.98H117.907L115.876 38.6695H112.744L110.731 25.98H110.593V38.6695H106.678V18.4333H111.763L114.31 32.6424L116.866 18.4333H121.951H121.96ZM47.9817 18.4333V20.9403H44.4279V38.6695H40.5127V18.4333H47.9731H47.9817ZM56.8185 18.4333L58.8578 38.6695H55.0287L54.6673 33.2863H52.8258L52.4644 38.6695H48.6353L50.6746 18.4333H56.8271H56.8185ZM54.521 31.0541L53.8498 20.9403H53.6261L52.9549 31.0541H54.521ZM69.6052 30.9682V35.0378C69.6052 36.463 69.4245 38.6609 66.6882 38.6609H63.4442C60.7078 38.6609 60.5357 36.4544 60.5357 35.0378V31.5778H64.4595V35.3812C64.4595 35.8963 64.8381 36.0337 65.0705 36.0337C65.4233 36.0337 65.6728 35.7246 65.6728 35.3812V30.6677C65.6728 30.041 65.5609 29.3456 64.1067 29.3456H62.5148V27.1305H64.167C65.2856 27.1305 65.6728 26.8643 65.6728 25.628V21.6014C65.6728 21.2494 65.4233 20.9489 65.0705 20.9489C64.8295 20.9489 64.4595 21.0863 64.4595 21.6014V24.9068H60.5357V22.0479C60.5357 20.6227 60.6992 18.4333 63.4442 18.4333H66.6882C69.4245 18.4333 69.6052 20.6227 69.6052 22.0479V25.2846C69.6052 27.4739 68.1252 28.0921 66.9377 28.032V28.2294C69.5622 28.1779 69.6052 30.247 69.6052 30.9768V30.9682ZM81.0468 18.4333V38.6695H77.1316V20.9403H75.9012V38.6695H71.9688V18.4333H81.0382H81.0468ZM93.4058 22.0479V28.1693C93.4058 29.5945 92.8667 31.7839 90.1304 31.7839H87.8932V38.6695H83.978V18.4333H90.1304C92.8667 18.4333 93.4058 20.6227 93.4058 22.0479ZM89.1064 28.5471V21.9534C89.1064 21.3267 88.8139 20.9489 88.3836 20.9489H87.8932V29.5516H88.3836C88.8139 29.5516 89.1064 29.191 89.1064 28.5471ZM104.28 22.0479V35.0464C104.28 36.4716 104.116 38.6695 101.371 38.6695H98.1446C95.391 38.6695 95.2362 36.463 95.2362 35.0464V22.0479C95.2362 20.6227 95.391 18.4333 98.1446 18.4333H101.371C104.108 18.4333 104.28 20.6227 104.28 22.0479ZM100.382 35.3898V21.6014C100.382 21.2494 100.132 20.9489 99.7623 20.9489C99.5386 20.9489 99.1513 21.0863 99.1513 21.6014V35.3898C99.1513 35.9049 99.5472 36.0423 99.7623 36.0423C100.124 36.0423 100.382 35.7332 100.382 35.3898Z" fill="#2F80ED"/>
<path d="M35.0406 38.5736V52.535C31.3345 56.5041 26.0891 59 20.2505 59C9.06326 59 0 49.8484 0 38.5736C0 27.3161 9.06326 18.1645 20.2505 18.1645V18.6672V33.5212C17.344 33.5212 14.4376 34.6304 12.2019 36.875C11.6687 37.4123 11.2044 37.9843 10.8088 38.5823C7.83362 43.0454 8.28936 49.1551 12.2019 53.0983C14.4376 55.3342 17.344 56.4608 20.2505 56.4608C23.1569 56.4608 26.0461 55.3515 28.2647 53.1243C28.2818 53.1069 28.2904 53.1069 28.2904 53.0983C28.3076 53.0809 28.3162 53.0809 28.3334 53.0723C30.552 50.8364 30.552 47.1879 28.3334 44.952C26.0977 42.7161 22.4948 42.7161 20.2763 44.952C20.2591 44.9693 20.2591 44.9693 20.2505 44.978V38.5909H27.6111H29.6921H35.0406V38.5736ZM32.7419 10.6422C33.9715 16.1193 33.9543 19.4818 33.4126 23.3296C32.4495 30.2366 29.3195 35.5317 27.9781 37.3083C27.0408 36.095 25.6305 33.6511 24.6847 31.3546C24.6847 31.3546 22.8961 26.9954 22.4317 22.7403C22.277 21.4057 22.191 20.0538 22.191 18.6758C22.191 15.7033 22.5779 12.6354 23.5324 9.31625C24.7879 4.94844 27.2729 1.01395 27.9437 0C28.3736 0.719301 31.495 5.18243 32.7333 10.6595L32.7419 10.6422ZM32.3807 19.9498C32.4237 17.8525 32.2087 14.308 31.2112 10.5989C30.188 6.89836 28.236 3.36251 27.9437 2.91187C27.6513 3.36251 26.0863 6.23105 24.7191 10.7115C24.3579 12.0461 23.6958 14.9667 23.584 17.8092C23.4464 21.241 23.9194 24.6642 24.0999 25.6175C24.0999 24.4909 24.1257 20.6864 24.8222 17.5492C25.5188 14.412 26.8516 10.7895 27.9351 8.95226C29.1045 10.8935 30.5749 15.0793 31.0909 17.5665C31.6068 20.0711 31.8734 23.2776 31.7616 25.5482C32.0797 24.2396 32.3205 22.0297 32.3807 19.9498ZM27.9523 35.939C28.5972 34.7604 29.672 32.1692 29.586 28.876C29.4485 25.5135 28.3134 23.0523 27.9781 22.4717C27.5911 23.0523 26.2841 25.8775 26.3013 29.1707C26.3958 32.5765 27.3503 34.7864 27.9523 35.939Z" fill="#2F80ED"/>
<path fill-rule="evenodd" clip-rule="evenodd" d="M122 45H40V59H122V45ZM92.344 55.006C92.988 55.79 93.9213 56.182 95.144 56.182C95.6853 56.182 96.1613 56.1213 96.572 56C96.992 55.8693 97.3233 55.7293 97.566 55.58L97.132 54.222C96.9547 54.3247 96.7167 54.4273 96.418 54.53C96.1287 54.6327 95.76 54.684 95.312 54.684C94.5373 54.684 93.9773 54.4227 93.632 53.9C93.296 53.368 93.128 52.6073 93.128 51.618C93.128 51.0487 93.1887 50.5727 93.31 50.19C93.4407 49.8073 93.604 49.504 93.8 49.28C94.0053 49.0467 94.234 48.8833 94.486 48.79C94.7473 48.6873 95.0133 48.636 95.284 48.636C95.676 48.636 96.0213 48.6873 96.32 48.79C96.628 48.8833 96.8893 49 97.104 49.14L97.552 47.768L97.258 47.6C97.1367 47.5253 96.9827 47.4553 96.796 47.39C96.6093 47.3247 96.39 47.2687 96.138 47.222C95.8953 47.166 95.62 47.138 95.312 47.138C94.7427 47.138 94.2153 47.2407 93.73 47.446C93.254 47.642 92.8387 47.936 92.484 48.328C92.1387 48.7107 91.868 49.182 91.672 49.742C91.476 50.302 91.378 50.9413 91.378 51.66C91.378 53.1067 91.7 54.222 92.344 55.006ZM69.132 54.572H69.622V58.31H68.026V56H63.63V47.334H65.352V54.572H67.396V47.334H69.132V54.572ZM83.37 47.334V56H81.648V48.762H79.352V56H77.63V47.334H83.37Z" fill="#2F80ED"/>
</svg>
