<?xml version="1.0" encoding="utf-8"?>
<!-- Generator: Adobe Illustrator 19.0.0, SVG Export Plug-In . SVG Version: 6.00 Build 0)  -->
<svg version="1.1" id="Ñëîé_1" xmlns="http://www.w3.org/2000/svg" xmlns:xlink="http://www.w3.org/1999/xlink" x="0px" y="0px"
	 viewBox="-249 307.2 111.5 179.8" style="enable-background:new -249 307.2 111.5 179.8;" xml:space="preserve">
<style type="text/css">
	.st0{clip-path:url(#SVGID_2_);}
	.st1{fill:#092C74;}
</style>
<title>logo_diona</title>
<g>
	<g>
		<defs>
			<polygon id="SVGID_1_" points="-257,307.3 -129.5,307.2 -129.5,498.2 -257,498.2 			"/>
		</defs>
		<clipPath id="SVGID_2_">
			<use xlink:href="#SVGID_1_"  style="overflow:visible;"/>
		</clipPath>
		<g class="st0">
			<path class="st1" d="M-137.6,413.7l0.1,4.6l-9.5-0.1v-45.5C-139.3,381.5-137.7,396.6-137.6,413.7L-137.6,413.7z M-146.9,487.7
				v-10.3h9.4v10.4L-146.9,487.7z M-146.9,454.8v-14h2.3c0.4,1.6,0.8,3.1,1.1,4.5c0.1,0.7,0.3,1.2,0.4,1.7c0.1,0.6,0.4,1.7,0.7,3.2
				l0.5-0.1l0.3-0.1h0.7l0.1,0.1h0.1l0.5,0.1l-6.6-24.5h-0.4v-3l9.8-0.1l-0.1,32.1L-146.9,454.8z M-146.9,439.4h2l-2-7.5V439.4z
				 M-146.9,366.5c4.3,3.7,7.2,8.8,9.4,14.5l0,0v-67.4l-9.4,9V366.5L-146.9,366.5z M-146.9,316.4v-39.1h9.4v30.1L-146.9,316.4z
				 M-138.6,460.1h-3.9v11.4h1v-10.6h1.9c0.2,0,0.4,0.1,0.6,0.1c0.1,0,0.3,0.1,0.4,0.1l-0.1-0.3v-0.4L-138.6,460.1z M-146.9,277.4
				v39.1l-23.6,22.5l0.3-61.6H-146.9z M-146.9,322.6l-23.6,22.6l0.1,16c2.4-0.5,5.1-0.5,7.5-0.5c5.9-0.1,11.7,2,16.2,5.8
				L-146.9,322.6L-146.9,322.6z M-146.9,372.6v45.6h-23.4l-0.2-52.4c7.2-1.1,15.1-0.3,19.9,3.2l0,0
				C-149.4,370.1-148.1,371.3-146.9,372.6L-146.9,372.6z M-147,422.7v3h-0.1l-6.8,24.6h0.3l0.2-0.1h0.5c0,0.1,0.1,0.1,0.2,0.1
				l0.3,0.1l0.5-2.4l0.5-2.2l0.7-2.7l0.5-2.2l3.3-0.1v14l-23.5,0.1v-16.7h2.6l1.8,0.1l1.5,0.1v12.1l0.4-0.1l0.3-0.1h0.7
				c0,0.1,0.1,0.1,0.2,0.1l0.4,0.1v-24l-0.6,0.1h-0.8l-0.6-0.1v10c-0.7,0-1.4,0.1-2.3,0.1c-0.9,0-1.7,0.1-2.3,0.1l-1.3-0.1v-13.8
				L-147,422.7z M-146.9,431.9l-0.4-1.4l0,0l-2.4,9l2.9-0.1l-0.1-7.4V431.9z M-146.9,477.4v10.3h-23.7v-10.4L-146.9,477.4z
				 M-159.9,460.2h-0.7v11.5h0.9v-5.8h0.8c0.1,0,0.3,0,0.4-0.1h1.7l0.9,0.1h0.7v5.8h1v-11.5h-1v4.8h-1.1c-0.4,0-0.8,0.1-1.1,0.1
				l-2.3-0.1v-4.8H-159.9z M-170.3,277.4v61.5l-22.8,22.1v-83.6H-170.3z M-170.3,345l-22.8,21.9v3.7c6.6-3.9,14.1-8,22.8-9.4
				C-170.3,361.3-170.3,345-170.3,345z M-170.4,365.8l0.1,52.4h-22.9v-42.8c5.7-3.6,11.8-6.5,18.2-8.6
				C-173.5,366.5-172,366.1-170.4,365.8z M-170.2,422.8l-0.1,13.8l-3.3-0.1v-10l-0.7,0.1h-0.7l-0.6-0.1l0,0v24l0.5-0.1l0.4-0.1h0.3
				c0.1,0.1,0.1,0.1,0.3,0.1l0.4,0.1v-12.1l1.5-0.1h0.8c0.3-0.1,0.7-0.1,1-0.1l0,0v16.7h-22.7v-4c1.5,0,3-0.7,4.1-1.7
				c1.4-1.3,2.4-2.8,3-4.6c0.7-2.2,1.1-4.4,1-6.7c0-1.8-0.2-3.6-0.7-5.3c-0.4-1.4-1-2.6-1.9-3.7c-0.7-1-1.6-1.8-2.7-2.3
				c-0.9-0.4-2-0.7-3-0.7v-3L-170.2,422.8z M-170.3,477.4v10.3l-22.8-0.1v-10.2l22.8-0.1V477.4z M-193.1,471.7v-0.8h2.2l-0.6-2.1
				l-0.9-3.5l-0.6-2.4l-0.1-0.3v-2.4h0.3l0.9,3.5l1.2,4.3l0.8,2.8h0.4v1.5h-0.1c-0.1-0.3-0.3-0.6-0.6-0.6c-0.5-0.1-1-0.1-1.5-0.1
				L-193.1,471.7z M-193,449.7c1,0,1.9-0.4,2.6-1.1c0.8-0.8,1.4-1.8,1.9-2.8c0.5-1.2,0.9-2.5,1.2-3.8c0.2-1.2,0.3-2.5,0.4-3.7
				c0-1.1-0.1-2.2-0.1-3c-0.1-0.8-0.2-1.6-0.4-2.5c-0.1-0.8-0.4-1.6-0.8-2.3c-0.3-0.7-0.8-1.3-1.3-1.9c-0.4-0.5-0.9-0.9-1.5-1.1
				c-0.5-0.2-0.9-0.4-1.7-0.5h-0.3L-193,449.7L-193,449.7z M-178.3,460.2h-0.4v11.5h0.3c0.1-0.3,0.4-0.6,0.6-1l4.5-8.1h0.1v9.1h1
				v-11.5h-0.5l-4.9,8.8h-0.1v-8.8H-178.3z M-193,277.4V361l-24.1,23.1V277.4H-193z M-193,366.8l-9.8,9.6c3-1.6,6.4-3.8,9.9-5.9
				L-193,366.8z M-193.2,375.5c-6.8,4.3-13.2,9.1-19.5,14c-1.4,1.1-3,2.3-4.4,3.5v25.3l23.9-0.1V375.5L-193.2,375.5z M-192.9,422.9
				l-0.1,3h-0.1c-1.1,0-2.2,0.3-3.2,0.9s-1.9,1.5-2.6,2.5c-0.8,1.2-1.4,2.6-1.7,4l0,0c-0.4,1.7-0.6,3.4-0.6,5.1c0,1,0.1,1.9,0.1,2.7
				c0.1,0.8,0.2,1.6,0.4,2.4c0.3,1.4,0.8,2.8,1.6,4c0.6,1,1.5,1.9,2.6,2.5c1,0.6,2.1,0.9,3.2,0.9h0.2l0.4,4l-24.4-0.1v-15.3l4.3-8.3
				h0.2v19.1c0.3-0.1,0.7-0.1,1-0.1s0.6,0.1,0.9,0.1v-24h-0.9l-5.5,10.3v-13.8L-192.9,422.9z M-193,427c-0.9,0-1.7,0.3-2.4,0.8
				c-0.8,0.7-1.4,1.5-1.9,2.4c-0.6,1.2-1,2.5-1.2,3.8c-0.2,1.6-0.4,3.2-0.4,4.8c0,1.5,0.1,3,0.4,4.5c0.2,1.2,0.7,2.4,1.2,3.5l0,0
				c0.5,0.8,1.1,1.6,1.9,2.1c0.7,0.5,1.4,0.8,2.3,0.8h0.1L-193,427L-193,427z M-193,460.2v2.5l-0.1-0.6h-0.1l-0.6,2l-0.5,2
				c-0.3,0.9-0.4,1.7-0.6,2.4l0,0c-0.1,0.7-0.4,1.5-0.6,2.4h2.5v0.8h-2.4c-0.1,0-0.3,0-0.4,0.1c-0.1,0-0.2,0.1-0.4,0.1
				c-0.2,0.1-0.4,0.3-0.5,0.5h-0.1c0.1-0.3,0.1-0.6,0.1-0.9l-0.1-0.6h0.5l0.7-2.6l0.9-3.2l0.8-3c0.2-0.9,0.4-1.5,0.5-1.9L-193,460.2
				z M-193,477.4v10.3h-24.1v-10.3H-193z M-213,471.6h0.4c0.2-0.9,0.4-1.9,0.6-2.9s0.5-2.1,0.8-3.1c0.1-0.4,0.2-0.7,0.4-1.1
				s0.2-0.8,0.3-1.1c0.1-0.4,0.3-0.9,0.3-1.4h0.1l0.4,1.8l0.8,3l0.8,3.2l0.4,1.6h1c-0.1-0.4-0.4-1.4-0.9-3.2l-1.3-5l-0.9-3.2h-0.5
				c-0.1,0.6-0.4,1.7-0.9,3.3c-0.3,0.9-0.5,1.7-0.7,2.5s-0.5,1.8-0.7,2.6l-0.9,3L-213,471.6L-213,471.6z M-217.1,277.4v106.7
				l-10.6,10.2V277.4H-217.1z M-217.1,393c-3.6,2.8-7.2,5.6-10.6,8.6v16.7h10.6V393z M-217.1,422.8v13.8l-4.4,8.1h-0.2v-18.3
				l-0.9,0.1c-0.3,0-0.6,0-0.9-0.1l0,0v24h0.6c0.3-0.7,0.6-1.4,1.1-2.2l4.8-8.9v15.5h-10.5v-32H-217.1z M-217.1,477.4v10.3h-10.5
				v-10.3H-217.1z M-227.7,471.8v-0.6c0.5,0,1-0.2,1.3-0.5c0.4-0.3,0.8-0.8,0.9-1.3c0.3-0.6,0.5-1.2,0.6-1.9
				c0.1-0.6,0.2-1.2,0.2-1.8c0-0.6-0.1-1-0.1-1.4s-0.1-0.8-0.2-1.1c-0.1-0.4-0.2-0.8-0.4-1.1c-0.2-0.3-0.4-0.6-0.6-0.9
				c-0.2-0.2-0.5-0.4-0.8-0.5s-0.6-0.2-0.9-0.2h-0.1v-0.6c0.5,0,1,0.1,1.5,0.4s1,0.6,1.3,1.1c0.4,0.5,0.8,1.1,0.9,1.8
				c0.4,1.9,0.4,3.9-0.2,5.8c-0.3,0.8-0.8,1.6-1.4,2.2C-226.2,471.5-226.9,471.8-227.7,471.8L-227.7,471.8z M-227.7,277.4v116.9
				l-12,11.6V277.4H-227.7z M-227.7,401.6c-4.3,3.7-8.4,7.3-12,11v5.7h12C-227.7,418.2-227.7,401.6-227.7,401.6z M-227.4,422.8
				l-0.1,32h-12.3v-4.6h3.1c1,0,2,0,3,0.2c0.6,0.2,1.2,0.7,1.4,1.3h0.1c0-0.4-0.1-1-0.1-1.8c0-0.5,0.1-1,0.1-1.4h-0.9l-1.5-5.8
				l-2.4-9.1l-1.9-7.3h-0.9v-3.5L-227.4,422.8L-227.4,422.8z M-227.7,459.9v0.6c-0.4,0-0.9,0.2-1.2,0.4c-0.4,0.3-0.7,0.7-0.9,1.1
				c-0.3,0.6-0.5,1.2-0.6,1.8l0,0c-0.1,0.7-0.1,1.5-0.1,2.3c0,0.7,0.1,1.5,0.2,2.2c0.1,0.6,0.3,1.1,0.6,1.7c0.3,0.4,0.6,0.7,1,1
				c0.3,0.2,0.5,0.2,1,0.2l0.2,0.1l0.1,0.5l-0.2,0.1c-0.6,0-1.1-0.1-1.6-0.4s-1-0.7-1.3-1.1l0,0c-0.4-0.6-0.6-1.3-0.8-1.9
				c-0.1-0.4-0.2-0.8-0.2-1.1c-0.1-0.4-0.1-0.8-0.1-1.2c0-0.8,0.1-1.7,0.3-2.5c0.2-0.7,0.5-1.3,0.9-1.9c0.3-0.5,0.8-0.9,1.3-1.2
				C-228.8,460.1-228.3,459.9-227.7,459.9L-227.7,459.9z M-227.5,477.4l-0.1,10.3h-12.1v-10.3H-227.5z M-239.7,448.6h4.7l-1.1-4.3
				l0,0l-1.8-7.1l-1.3-5l-0.4-1.7l-0.1-0.3L-239.7,448.6z M-247.3,469.8l-0.5,1.1l-0.3,0.7h0.8l0.7-1.9l0.6-1.6
				c0.2-0.5,0.4-1,0.7-1.6c0.1,0.3,0.3,0.6,0.4,1c0,0.2,0.1,0.4,0.2,0.6c0.2,0.5,0.4,1.1,0.6,1.6l0.4,1.1c0.1,0.2,0.1,0.5,0.2,0.7
				h1.2l-2.5-6.3l0.5-1.2l1.7-3.6l0.2-0.3h-0.8c-0.2,0.4-0.4,0.8-0.5,1.2l-0.4,0.9l-0.4,1.1l-0.6,1.3l-1.2-3l-0.3-0.8l-0.2-0.6h-1.1
				l1,2.5l0.4,0.9l0.5,1.2l0.4,1.1l-1.2,2.8L-247.3,469.8L-247.3,469.8z M-239.7,277.4v128.5l-9.4,9.1V277.4H-239.7z M-239.7,412.6
				c-1.9,1.9-3.7,3.8-5.3,5.7h5.3V412.6z M-239.7,422.8v3.5h-0.1c-0.2,0.7-0.5,2.2-1,4.1l-1.7,6.2l-1.8,6.6l-1.5,5.3h-0.9l0.1,1.4
				c0,0.6,0,1.2-0.1,1.8h0.1c0.2-0.4,0.6-0.8,1-1.1c0.2-0.1,0.4-0.2,0.6-0.3c0.2-0.1,0.5-0.1,0.7-0.1c0.4,0,0.8,0,1.2-0.1l3.6,0.1
				l0.2,4.6l-9.9-0.1v-32L-239.7,422.8z M-239.7,430.2L-239.7,430.2l-1.1,4.2l-1.2,4.3c-0.5,1.9-0.9,3.5-1.2,4.9
				c-0.4,1.4-0.7,3.1-1.1,5h4.8L-239.7,430.2z M-239.7,477.4v10.3h-9.4v-10.3H-239.7z"/>
		</g>
	</g>
</g>
</svg>
