<svg width="220" height="60" viewBox="0 0 220 60" fill="none" xmlns="http://www.w3.org/2000/svg">
<path fill-rule="evenodd" clip-rule="evenodd" d="M49.4484 18.2097L48.7745 18.5989L34.847 26.6376L45.5996 45.245C48.9017 42.0961 51.0926 37.9613 51.8433 33.4616C52.594 28.9618 51.864 24.3401 49.7629 20.2905L57.4155 15.8744C59.7556 20.2011 60.9805 25.0424 60.9797 29.9609C60.9611 37.7339 57.9279 45.1967 52.5181 50.7803C47.1082 56.3638 39.7431 59.633 31.9716 59.9003V51.0982C36.8045 50.8792 41.4129 48.9964 45.0155 45.7689L30.9533 37.6703L16.9209 45.7689C20.5275 48.9996 25.1418 50.8827 29.9798 51.0982V59.9003C24.8842 59.7407 19.9136 58.2835 15.5389 55.6667C11.1642 53.05 7.53002 49.3604 4.98062 44.9472C2.43123 40.534 1.05096 35.5434 0.970526 30.448C0.890092 25.3525 2.11215 20.3209 4.52099 15.8295L12.1886 20.2456C10.0875 24.2952 9.35745 28.9169 10.1082 33.4166C10.8589 37.9164 13.0498 42.0512 16.3519 45.2001L27.1045 26.5927L13.177 18.554L12.4881 18.1648L5.49442 14.1679C8.18057 9.83532 11.9288 6.26003 16.3841 3.78067C20.8394 1.30132 25.8541 0 30.9533 0C36.0524 0 41.0672 1.30132 45.5225 3.78067C49.9777 6.26003 53.726 9.83532 56.4121 14.1679L49.4484 18.2097ZM41.8856 11.9074L30.9533 18.2097H48.475C46.7599 15.6576 44.5119 13.5075 41.8856 11.9074ZM20.6349 11.5781H41.3315C38.1718 9.8024 34.608 8.86966 30.9832 8.86966C27.3584 8.86966 23.7946 9.8024 20.6349 11.5781ZM13.4615 18.2097H30.9533L20.0808 11.9074C17.4437 13.5041 15.1852 15.6544 13.4615 18.2097Z" fill="#363789"/>
<path fill-rule="evenodd" clip-rule="evenodd" d="M122.875 44.7555V15.819H115.941V27.0163H107.465V15.819H100.516V44.7555H107.465V32.4054H115.941V44.7555H122.875ZM141.775 35.2796C141.775 38.3784 140.022 39.7705 137.012 39.7705H134.436V31.0132H136.982C140.157 31.0132 141.775 32.5252 141.775 35.2796ZM145.818 15.819H127.503V44.7555H135.185C143.048 44.7555 149.068 43.004 149.068 35.2347C149.068 29.142 144.755 26.2529 137.447 26.2529H134.451V21.0734H145.234L145.818 15.819ZM173.224 25.2499C173.224 18.9027 168.731 15.819 160.809 15.819H151.659V44.7555H158.592V35.1599H161.737C168.596 35.1599 173.224 32.0462 173.224 25.2499ZM166.08 25.2499C166.08 28.6331 164.283 30.145 161.153 30.145H158.592V20.744H160.899C164.373 20.744 166.095 22.2111 166.095 25.2499H166.08ZM182.119 20.0704C185.459 20.0704 187.211 22.2859 187.421 27.4654H177.477V32.3605H187.466C187.256 37.7796 185.414 40.2945 181.865 40.2945C179.847 40.2859 177.909 39.5098 176.444 38.1239L173.134 41.8813C174.323 43.0896 175.75 44.0372 177.326 44.6635C178.901 45.2898 180.59 45.5811 182.284 45.5189C190.012 45.5189 194.534 40.2196 194.534 30.145C194.534 20.4596 190.221 15.1753 182.748 15.1753C179.309 15.0721 175.96 16.2879 173.389 18.5734L176.653 22.3757C178.115 20.939 180.07 20.1144 182.119 20.0704ZM209.974 40.0849C206.38 40.0849 203.879 37.091 203.879 30.1749C203.879 23.2589 206.5 20.1602 210.139 20.1602C212.07 20.16 213.927 20.9055 215.321 22.241L218.75 18.2441C216.265 16.0828 213.058 14.934 209.765 15.0256C202.277 15.0256 196.691 20.4895 196.691 30.1749C196.691 40.1298 201.947 45.4291 209.645 45.4291C211.396 45.4637 213.135 45.1492 214.763 44.5041C216.391 43.8589 217.873 42.8961 219.125 41.6717L215.995 37.6598C214.367 39.2061 212.219 40.0873 209.974 40.1298V40.0849ZM82.0362 44.7555L86.3792 32.7797L89.0449 25.3846L89.3594 24.5164H89.4941C89.2482 25.5888 89.0978 26.6809 89.0449 27.7798V33.5431C89.0449 33.5431 89.0449 33.5431 89.0449 33.618C89.0449 33.6928 89.0449 33.9323 89.0449 34.082V43.9621H95.8588V15.819H87.6222L83.1294 27.9295L80.4038 35.4143L80.1043 36.1928H79.9845C80.2219 35.1053 80.3523 33.9973 80.3739 32.8845V27.0463C80.3813 26.9666 80.3813 26.8864 80.3739 26.8068V26.7169C80.3739 26.3876 80.3739 26.0583 80.3739 25.714V15.819H73.6348V44.7555H82.0362Z" fill="#363789"/>
</svg>
