<svg width="95" height="130" viewBox="0 0 95 130" fill="none" xmlns="http://www.w3.org/2000/svg">
<path fill-rule="evenodd" clip-rule="evenodd" d="M40.1002 25.2579C39.5139 25.2579 39.0368 25.7319 39.0368 26.3149C39.0368 26.8984 39.5139 27.3733 40.1002 27.3733C40.686 27.3733 41.1618 26.8984 41.1618 26.3149C41.1618 25.7319 40.686 25.2579 40.1002 25.2579" fill="#FCD21F"/>
<path fill-rule="evenodd" clip-rule="evenodd" d="M40.5416 24.6846C40.7461 24.7395 40.9366 24.832 41.1026 24.9539L41.5002 24.6897L40.5416 24.6846Z" fill="#FCD21F"/>
<path fill-rule="evenodd" clip-rule="evenodd" d="M47.2401 22.3281L47.5276 25.9967L47.8135 22.3281H47.2401Z" fill="#FCD21F"/>
<path fill-rule="evenodd" clip-rule="evenodd" d="M47.9529 18.2895H47.1129L46.6926 19.9739L47.1129 21.6597H47.9529L48.3735 19.9739L47.9529 18.2895Z" fill="#FCD21F"/>
<path fill-rule="evenodd" clip-rule="evenodd" d="M55.1236 29.8066C55.7839 29.8066 56.321 29.2713 56.321 28.6141C56.321 28.2564 56.1579 27.9393 55.9059 27.722C55.6367 27.9018 55.3136 28.0062 54.9657 28.0062C54.7009 28.0062 54.4509 27.944 54.2271 27.8358C54.0423 28.0442 53.928 28.3144 53.928 28.6141C53.928 29.2713 54.4646 29.8066 55.1236 29.8066" fill="#FCD21F"/>
<path fill-rule="evenodd" clip-rule="evenodd" d="M56.5942 24.5345C56.5942 24.5345 56.3956 24.6253 56.159 24.6722C55.9934 24.7046 55.5286 24.711 55.4585 24.6973C55.7109 24.7736 55.9382 24.9088 56.1265 25.0848C56.2343 24.864 56.3961 24.6765 56.5942 24.5345" fill="#FCD21F"/>
<path fill-rule="evenodd" clip-rule="evenodd" d="M46.6927 27.7283C46.4616 27.9623 46.3174 28.2833 46.3174 28.6375C46.3174 29.3535 46.9028 29.9362 47.6213 29.9362C48.3394 29.9362 48.9243 29.3535 48.9243 28.6375C48.9243 27.9214 48.3394 27.3392 47.6213 27.3392C47.2631 27.3392 46.9388 27.4837 46.7034 27.7168C46.7 27.7206 46.6961 27.7245 46.6927 27.7283" fill="#FCD21F"/>
<path fill-rule="evenodd" clip-rule="evenodd" d="M47.3883 32.9831H47.6784C49.9173 32.9831 51.5216 32.9793 53.1516 32.7201L54.215 32.2862C52.0411 31.9853 49.8035 31.8306 47.5625 31.8353C45.3479 31.8297 43.0799 31.9819 40.9236 32.2756L42.0743 32.7461C43.6538 32.9814 45.2166 32.9831 47.3883 32.9831" fill="#FCD21F"/>
<path fill-rule="evenodd" clip-rule="evenodd" d="M53.5657 24.6899L53.9623 24.9533C54.1297 24.8314 54.3188 24.7394 54.5234 24.6848L53.5657 24.6899Z" fill="#FCD21F"/>
<path fill-rule="evenodd" clip-rule="evenodd" d="M51.1156 28.6171C51.1156 29.1997 51.5924 29.6737 52.1782 29.6737C52.7632 29.6737 53.2395 29.1997 53.2395 28.6171C53.2395 28.0332 52.7632 27.5588 52.1782 27.5588C51.5924 27.5588 51.1156 28.0332 51.1156 28.6171" fill="#FCD21F"/>
<path fill-rule="evenodd" clip-rule="evenodd" d="M38.9413 25.082C39.1454 24.8919 39.3975 24.7508 39.6773 24.6796C39.6773 24.6796 39.1275 24.6945 38.8912 24.6515C38.6533 24.608 38.4744 24.5364 38.4744 24.5364C38.6721 24.6771 38.833 24.8633 38.9413 25.082" fill="#FCD21F"/>
<path fill-rule="evenodd" clip-rule="evenodd" d="M58.6211 34.683C58.7747 34.5074 58.8505 34.2543 58.8385 34.0927V34.0914C58.8026 33.9742 58.7782 33.851 58.7687 33.7236C57.2124 34.0727 55.5037 34.3378 53.5587 34.6617C52.5753 35.3143 51.09 36.1659 48.7274 37.4007L49.7686 37.3056C53.5853 37.1888 57.5646 35.8957 58.6211 34.683" fill="#FCD21F"/>
<path fill-rule="evenodd" clip-rule="evenodd" d="M40.0602 29.6649C40.7197 29.6867 41.273 29.1701 41.2952 28.5124C41.3055 28.2149 41.2011 27.9438 41.0265 27.7303C40.7595 27.9046 40.4415 28.006 40.1 28.006C39.7568 28.006 39.438 27.9037 39.1702 27.729C39.0123 27.9221 38.913 28.1659 38.9036 28.4335C38.8822 29.0908 39.4008 29.6432 40.0602 29.6649" fill="#FCD21F"/>
<path fill-rule="evenodd" clip-rule="evenodd" d="M44.5455 67.036V67.0266C45.4886 66.7466 46.4853 66.5936 47.5179 66.5936C48.5363 66.5936 49.5206 66.7419 50.4513 67.0147C50.7149 67.0906 50.9738 67.1762 51.2276 67.2726L49.0884 53.0838L47.5264 42.7213L45.964 53.0812C45.9683 53.0821 45.973 53.0834 45.9782 53.0838L43.8385 67.2726C44.07 67.1843 44.3071 67.1072 44.5455 67.036" fill="#FFFFFE"/>
<path fill-rule="evenodd" clip-rule="evenodd" d="M47.5339 31.2668V31.2664H47.539H47.5608H47.5869C47.5792 31.2664 47.5707 31.2668 47.5625 31.2668C50.1584 31.2604 52.7503 31.4654 55.2456 31.8652L55.7929 31.6423C55.7937 31.179 55.7946 30.3509 55.7942 30.3121C55.5862 30.3939 55.3603 30.4404 55.124 30.4404C54.4693 30.4404 53.8959 30.0955 53.5719 29.579C53.2651 30.018 52.7555 30.3074 52.1786 30.3074C51.2414 30.3074 50.4793 29.5487 50.4793 28.6174C50.4793 27.6835 51.2414 26.9257 52.1786 26.9257C52.7555 26.9257 53.2647 27.2142 53.5719 27.6532C53.6147 27.5842 53.6622 27.5177 53.7144 27.4559C53.5137 27.2377 53.3691 26.97 53.3045 26.6708C51.8187 26.7113 50.5906 27.0531 49.3521 27.7717C49.4839 28.0326 49.5605 28.3263 49.5605 28.6378C49.5605 29.7021 48.6906 30.5699 47.6216 30.5699C46.5522 30.5699 45.6822 29.7021 45.6822 28.6378C45.6822 28.357 45.7434 28.091 45.8521 27.8502C44.5653 27.0753 43.3017 26.7117 41.7598 26.6704C41.7111 26.8963 41.6161 27.1038 41.4873 27.2871C41.6109 27.4308 41.7111 27.5932 41.7855 27.7692C42.0799 27.2654 42.6255 26.9257 43.2507 26.9257C44.1875 26.9257 44.9496 27.6835 44.9496 28.6174C44.9496 29.5487 44.1875 30.3074 43.2507 30.3074C42.5716 30.3074 41.9854 29.9059 41.7149 29.3296C41.3961 29.9238 40.7593 30.3214 40.0396 30.2976C39.6647 30.2852 39.4469 30.1778 39.2684 30.1258L39.268 31.6001L39.8902 31.8537C42.3602 31.4629 44.9727 31.2621 47.5339 31.2668" fill="#FCD21F"/>
<path fill-rule="evenodd" clip-rule="evenodd" d="M44.3139 28.6171C44.3139 28.0332 43.838 27.5588 43.2509 27.5588C42.6663 27.5588 42.1905 28.0332 42.1905 28.6171C42.1905 29.1997 42.6663 29.6737 43.2509 29.6737C43.838 29.6737 44.3139 29.1997 44.3139 28.6171" fill="#FCD21F"/>
<path fill-rule="evenodd" clip-rule="evenodd" d="M37.4225 18.5735L37.8573 19.5913C38.1384 19.6659 38.4187 19.7515 38.7003 19.8487L39.2014 19.3543L38.4688 17.6055L37.4225 18.5735Z" fill="#FCD21F"/>
<path fill-rule="evenodd" clip-rule="evenodd" d="M54.541 18.0396L55.4234 18.919L56.1458 17.1919L55.239 16.3531L54.541 18.0396Z" fill="#FCD21F"/>
<path fill-rule="evenodd" clip-rule="evenodd" d="M57.2028 19.5922L57.6393 18.5735L56.5922 17.6056L55.86 19.354L56.3624 19.8505C56.6431 19.7533 56.9238 19.6681 57.2028 19.5922" fill="#FCD21F"/>
<path fill-rule="evenodd" clip-rule="evenodd" d="M38.9148 17.1921L39.6376 18.9187L40.52 18.0399L39.8224 16.3528L38.9148 17.1921Z" fill="#FCD21F"/>
<path fill-rule="evenodd" clip-rule="evenodd" d="M39.8753 19.4864L40.3203 20.5285C40.4663 20.5997 40.6126 20.67 40.7585 20.748L41.409 20.1892L40.7555 18.6092L39.8753 19.4864Z" fill="#FCD21F"/>
<path fill-rule="evenodd" clip-rule="evenodd" d="M39.543 20.1699L39.4386 19.9223L39.2923 20.0672C39.3761 20.1 39.4596 20.1354 39.543 20.1699" fill="#FCD21F"/>
<path fill-rule="evenodd" clip-rule="evenodd" d="M55.5235 20.1699C55.607 20.1354 55.6904 20.1 55.7734 20.0672H55.7691L55.6228 19.9223L55.5235 20.1699Z" fill="#FCD21F"/>
<path fill-rule="evenodd" clip-rule="evenodd" d="M51.5861 21.5001L52.1757 22.0878H52.1809C52.2074 22.0678 52.2344 22.0495 52.2622 22.0303L52.9691 20.3501L52.1967 19.6771L51.5861 21.5001Z" fill="#FCD21F"/>
<path fill-rule="evenodd" clip-rule="evenodd" d="M48.1243 26.7742C48.4718 26.8675 48.7804 27.0529 49.0213 27.3044C50.3496 26.5282 51.6967 26.1446 53.2813 26.0994C53.316 25.8318 53.4127 25.5816 53.5582 25.3684L51.6817 24.1204C51.6817 24.1204 55.3075 24.2381 56.0376 24.1204C56.7672 24.0037 56.8909 23.759 56.8909 23.759L53.8162 23.0907L58.9633 19.827C55.3088 20.2294 51.5088 22.6589 48.1243 26.7742" fill="#FCD21F"/>
<path fill-rule="evenodd" clip-rule="evenodd" d="M57.8992 19.4264C58.0837 19.3889 58.2686 19.3501 58.4521 19.3215L58.0837 18.9852L57.8992 19.4264Z" fill="#FCD21F"/>
<path fill-rule="evenodd" clip-rule="evenodd" d="M51.1167 22.9197C51.3174 22.7518 51.5198 22.5919 51.7227 22.4351L51.3842 22.1035L51.1167 22.9197Z" fill="#FCD21F"/>
<path fill-rule="evenodd" clip-rule="evenodd" d="M54.9658 27.3733C55.5517 27.3733 56.0271 26.8985 56.0271 26.315C56.0271 25.7319 55.5517 25.258 54.9658 25.258C54.3787 25.258 53.902 25.7319 53.902 26.315C53.902 26.8985 54.3787 27.3733 54.9658 27.3733" fill="#FCD21F"/>
<path fill-rule="evenodd" clip-rule="evenodd" d="M53.1441 21.4308C53.3533 21.2969 53.5626 21.1674 53.7727 21.045L53.4227 20.745L53.1441 21.4308Z" fill="#FCD21F"/>
<path fill-rule="evenodd" clip-rule="evenodd" d="M52.3924 19.0916L53.1986 19.7945L53.8683 18.1744L52.9911 17.2998L52.3924 19.0916Z" fill="#FCD21F"/>
<path fill-rule="evenodd" clip-rule="evenodd" d="M53.6521 20.1895L54.3047 20.7496C54.4493 20.6728 54.5948 20.6025 54.7399 20.5313L55.1858 19.4866L54.3051 18.6095L53.6521 20.1895Z" fill="#FCD21F"/>
<path fill-rule="evenodd" clip-rule="evenodd" d="M71.6538 75.4597L75.7303 76.235C75.1736 73.4326 74.4054 71.0146 73.7353 70.4566C72.8097 70.4102 71.9594 70.2853 71.3445 69.7487L71.3282 70.1412C71.0047 70.1412 70.6756 70.1318 70.3487 70.1084C70.9281 72.208 71.3813 74.0924 71.6538 75.4597" fill="#FCD21F"/>
<path fill-rule="evenodd" clip-rule="evenodd" d="M71.1891 85.3257C71.3106 84.7158 71.525 80.647 71.51 79.1633L67.9864 79.8061C67.9205 80.9283 67.7036 83.0262 67.7036 83.0262C68.06 84.7912 69.6079 89.2419 69.7735 89.7214C70.4008 88.7556 70.8283 87.1334 71.1891 85.3257" fill="#FCD21F"/>
<path fill-rule="evenodd" clip-rule="evenodd" d="M73.2774 92.8087C73.3005 92.7891 73.3249 92.7682 73.3463 92.7516C74.034 92.2294 74.8158 91.8249 75.6631 91.5683C75.806 91.0786 75.9284 90.5658 76.0358 90.0395C76.7179 86.6714 76.6811 82.6205 76.162 78.778C76.1531 78.7141 76.1124 78.4434 76.0953 78.3262L72.0796 79.0593C72.1083 80.4182 72.0158 82.0182 71.8755 83.831C71.8194 84.5436 71.644 85.8347 71.6966 86.2516C72.0124 88.4377 72.4472 90.1153 73.03 91.9575C73.1075 92.2056 73.1918 92.4992 73.2774 92.8087" fill="#FCD21F"/>
<path fill-rule="evenodd" clip-rule="evenodd" d="M69.3585 90.2485C69.1369 89.5981 68.5386 87.8821 68.4505 87.6298C66.8346 86.86 64.814 86.4325 62.483 86.1844C62.611 86.236 62.9251 86.3656 62.9538 86.3779C65.2569 87.345 67.5476 88.6109 69.3585 90.2485" fill="#FCD21F"/>
<path fill-rule="evenodd" clip-rule="evenodd" d="M62.1665 80.869L58.2518 81.5837L60.1347 85.3252C61.3431 84.89 62.4267 83.3888 62.1665 80.869" fill="#FCD21F"/>
<path fill-rule="evenodd" clip-rule="evenodd" d="M80.0078 58.4498C79.8538 57.1042 75.3169 53.0461 75.3156 53.0495C75.0075 53.5763 73.8735 53.6002 72.6487 53.3291C72.8049 53.4928 73.1999 53.971 73.1807 53.9203C74.8248 55.6111 76.3139 57.5219 76.6114 58.6595C78.0013 59.1152 79.3167 59.4719 79.7656 59.1493C79.8658 59.0772 80.0374 58.8339 80.0078 58.4498" fill="#FCD21F"/>
<path fill-rule="evenodd" clip-rule="evenodd" d="M65.0877 85.8986C65.5768 85.5495 66.6415 84.1719 67.1657 82.8953C67.2633 82.0135 67.3527 80.8737 67.4062 79.9126L63.3131 80.6594C64.1142 82.3592 64.6679 84.2384 65.0877 85.8986" fill="#FCD21F"/>
<path fill-rule="evenodd" clip-rule="evenodd" d="M71.4723 49.4982C72.3303 49.9385 73.4108 50.6972 74.5307 51.6166C75.051 51.7934 77.3242 52.1302 77.8253 51.6068C76.1153 50.3992 74.2983 49.5114 72.819 49.3217C72.3114 49.3239 71.8638 49.384 71.4723 49.4982" fill="#FCD21F"/>
<path fill-rule="evenodd" clip-rule="evenodd" d="M84.4103 69.9568C84.3697 69.8396 84.0984 69.1188 83.9721 68.7881C82.4992 64.8821 81.215 61.7395 79.3552 59.8321C78.7061 59.8688 77.8014 59.6463 76.563 59.2435C76.4924 59.431 76.3649 59.5845 76.1839 59.6966C75.8214 59.9195 75.2672 59.9506 74.5834 59.8031C76.1415 61.1867 76.6229 62.2361 77.1779 63.213C78.1258 64.8783 78.8554 67.3043 79.1678 68.6116C80.526 69.5084 81.8736 70.3054 84.4103 69.9568" fill="#FCD21F"/>
<path fill-rule="evenodd" clip-rule="evenodd" d="M75.883 59.2135C76.0028 59.1397 76.0555 59.034 76.0555 58.8708V58.7932C75.8098 57.8696 74.5192 56.2563 73.0895 54.7368C72.849 54.9282 70.7671 54.9358 69.7422 54.5821C70.0435 54.9588 72.4284 57.7894 73.0476 58.6359C74.4944 59.3482 75.5137 59.4411 75.883 59.2135" fill="#FCD21F"/>
<path fill-rule="evenodd" clip-rule="evenodd" d="M75.0946 69.483C75.1438 69.7289 75.1832 70.477 75.1832 70.477C75.1832 70.477 74.6158 70.4782 74.4925 70.477C75.1721 71.488 75.8508 73.828 76.3369 76.35L80.5832 77.1581C80.1326 75.1629 79.2909 72.1405 78.1145 70.413C77.0318 70.2886 76.0523 69.9881 75.0946 69.483" fill="#FCD21F"/>
<path fill-rule="evenodd" clip-rule="evenodd" d="M45.0342 42.3866C44.4389 42.0891 43.8266 41.7843 43.2245 41.5533V45.9929C43.456 46.3786 45.1497 49.0524 45.7137 49.8413L46.7138 43.1776C46.3133 42.9982 45.4245 42.5805 45.0342 42.3866" fill="#FCD21F"/>
<path fill-rule="evenodd" clip-rule="evenodd" d="M78.6062 68.9307C78.2279 67.2449 76.7216 61.8506 73.0996 59.3657C72.9862 59.794 72.7354 60.0186 72.5129 60.1299C72.1402 60.3157 71.6746 60.3481 71.093 60.1533C70.909 60.0924 70.2697 59.7544 69.992 59.5703C70.1781 59.7497 70.5966 60.0881 70.7272 60.2249C72.7461 62.3382 74.2148 65.5562 74.8819 68.501L74.9367 68.7419C76.1969 69.5159 77.2963 69.8675 78.8265 69.9157C78.7914 69.8309 78.6935 69.3616 78.6062 68.9307" fill="#FCD21F"/>
<path fill-rule="evenodd" clip-rule="evenodd" d="M80.9846 79.2515C80.9846 79.2515 80.8494 78.4344 80.6542 77.4933L76.6548 78.2238C76.6689 78.3078 76.7015 78.4966 76.7027 78.506C79.4937 81.655 81.2824 81.3229 81.2824 81.3229C81.2824 80.9257 80.9846 79.2515 80.9846 79.2515" fill="#FCD21F"/>
<path fill-rule="evenodd" clip-rule="evenodd" d="M55.9132 64.6568L58.4568 63.3607L55.9782 61.5479L55.9132 64.6568Z" fill="#FCD21F"/>
<path fill-rule="evenodd" clip-rule="evenodd" d="M78.2808 51.9384C77.626 52.5295 76.6649 52.4665 75.4111 52.3134C77.5169 54.159 79.6022 56.4359 80.5021 58.1647C81.6828 58.7521 82.5399 59.1676 82.994 58.9822C83.1835 58.9038 83.4805 58.6706 83.4604 58.3531C83.1429 56.4479 80.9044 53.8547 78.3235 51.926C78.3518 51.894 78.3184 51.9038 78.2808 51.9384" fill="#FCD21F"/>
<path fill-rule="evenodd" clip-rule="evenodd" d="M81.1234 85.7444C81.1234 85.5027 81.1234 85.2606 81.12 85.0241C81.0982 83.5804 81.022 82.8822 80.9321 81.8874C79.5893 81.6786 78.7493 81.1718 76.8172 79.3944C77.0945 81.7408 77.4094 85.6114 76.6905 89.7006C76.5912 90.2637 76.4736 90.8302 76.3328 91.3983C76.7046 91.3216 77.0885 91.2747 77.4792 91.2564L77.8772 89.5813L78.0132 89.4163L78.5083 88.8128L77.7916 89.0766L77.584 89.1534L77.6234 88.9364L78.1904 85.8062L78.2298 85.5884L78.3975 85.7341L78.9799 86.2388L78.7343 85.5048L78.6663 85.3032L78.8764 85.3416L81.1234 85.7444Z" fill="#FCD21F"/>
<path fill-rule="evenodd" clip-rule="evenodd" d="M57.2346 73.102L63.1473 61.824C63.1473 61.824 51.7499 67.4813 51.7803 67.4963C54.1711 68.6262 56.25 70.638 57.2346 73.102" fill="#FFFFFE"/>
<path fill-rule="evenodd" clip-rule="evenodd" d="M51.8417 45.9929V41.5533C51.2396 41.7843 50.6276 42.0891 50.0319 42.3866C49.6015 42.6001 48.7935 42.9756 48.3506 43.1691L49.3503 49.8285C49.913 49.0434 51.611 46.3782 51.8417 45.9929" fill="#FCD21F"/>
<path fill-rule="evenodd" clip-rule="evenodd" d="M52.0137 66.6301L54.6172 65.3169L53.146 62.9786L52.0137 66.6301Z" fill="#FCD21F"/>
<path fill-rule="evenodd" clip-rule="evenodd" d="M77.7525 77.3373C77.7525 77.3373 57.289 73.3601 57.3006 73.3917C57.687 74.4875 57.9981 75.8583 57.9981 77.07C57.9981 78.4391 57.77 79.7472 57.2899 80.9462C57.2843 80.9611 77.7525 77.3373 77.7525 77.3373" fill="#FFFFFE"/>
<path fill-rule="evenodd" clip-rule="evenodd" d="M60.2458 69.0761C60.9506 69.5347 61.7059 69.4 61.7538 69.3957C61.6738 68.5245 61.4004 67.6508 61.2309 67.1764L60.2458 69.0761Z" fill="#FCD21F"/>
<path fill-rule="evenodd" clip-rule="evenodd" d="M67.8437 74.7346L71.0506 75.3446C70.7724 73.9896 70.3154 72.1201 69.739 70.0431C69.0504 69.9472 68.4004 69.7665 67.8753 69.4311L67.9348 69.917C67.9348 69.917 67.0773 69.9881 66.8753 70.0227C67.3421 71.5098 67.6699 73.2919 67.8437 74.7346" fill="#FCD21F"/>
<path fill-rule="evenodd" clip-rule="evenodd" d="M61.6247 66.4158C61.8772 67.1579 62.1451 68.1532 62.3154 68.8121C62.7498 69.3402 63.9073 69.5478 64.681 69.3683C64.2253 67.3523 63.4383 65.6098 62.7793 64.1875L61.6247 66.4158Z" fill="#FCD21F"/>
<path fill-rule="evenodd" clip-rule="evenodd" d="M58.2573 72.9112L61.691 73.5646C61.6414 72.4897 61.5117 70.9685 61.1955 69.9805C60.9533 69.9673 60.3199 69.7742 59.9622 69.6241L58.2573 72.9112Z" fill="#FCD21F"/>
<path fill-rule="evenodd" clip-rule="evenodd" d="M62.2718 73.6753L64.2433 74.05C64.1757 73.1251 63.8282 70.5076 63.7169 69.9616C63.2642 69.8908 62.9266 69.8371 62.3215 69.384C62.3322 69.5912 62.3339 69.8589 62.3339 69.8589C62.2269 69.9309 62.0301 69.9292 61.7879 69.9663C62.1007 71.0395 62.2269 72.6046 62.2718 73.6753" fill="#FCD21F"/>
<path fill-rule="evenodd" clip-rule="evenodd" d="M74.5681 69.909C74.527 69.5526 74.4864 68.9521 74.3593 68.4734C73.1992 64.0956 71.6809 61.8238 69.7578 59.948C69.3204 60.3908 68.287 60.3661 67.5227 60.2485C67.4726 60.3844 67.3883 60.5008 67.1337 60.5575C69.3136 62.5557 70.2435 65.3862 71.1738 68.6264C71.5743 69.8258 73.1765 69.9038 74.5681 69.909" fill="#FCD21F"/>
<path fill-rule="evenodd" clip-rule="evenodd" d="M41.2942 21.0451C41.5038 21.1674 41.7127 21.297 41.9219 21.4308L41.6386 20.745L41.2942 21.0451Z" fill="#FCD21F"/>
<path fill-rule="evenodd" clip-rule="evenodd" d="M36.614 19.3214C36.7981 19.35 36.9829 19.3888 37.1674 19.4263L36.9778 18.9852L36.614 19.3214Z" fill="#FCD21F"/>
<path fill-rule="evenodd" clip-rule="evenodd" d="M24.0783 96.5453C24.472 96.4166 25.1083 96.0645 25.4541 95.6668C26.6215 94.4704 27.2056 92.9543 28.0131 91.5473C28.7752 90.2226 29.5596 88.8676 30.703 87.6435C27.824 89.0586 25.4241 90.5495 23.9979 93.1389C23.795 93.4973 23.35 94.4201 23.0063 94.8988C22.6743 95.3621 21.554 96.4115 21.554 96.4115C21.554 96.4115 21.8608 96.5525 22.2695 96.6472C22.6785 96.7422 23.584 96.7073 24.0783 96.5453" fill="#FCD21F"/>
<path fill-rule="evenodd" clip-rule="evenodd" d="M32.5838 86.1845C30.2528 86.4321 28.2322 86.8601 26.6159 87.6299C26.5282 87.8822 25.9291 89.5982 25.7078 90.2486C27.1979 88.6639 29.8104 87.3451 32.113 86.3776C32.1417 86.3657 32.4554 86.2361 32.5838 86.1845" fill="#FCD21F"/>
<path fill-rule="evenodd" clip-rule="evenodd" d="M23.5546 79.1631C23.5332 80.6059 23.7536 84.7084 23.8772 85.3256C24.2384 87.1336 24.6659 88.7559 25.2932 89.7217C25.4588 89.2418 27.0062 84.7915 27.3636 83.0261C27.3636 83.0261 27.147 80.9222 27.0828 79.8072L23.5546 79.1631Z" fill="#FCD21F"/>
<path fill-rule="evenodd" clip-rule="evenodd" d="M36.8149 81.5838L32.8531 80.8605C32.5779 83.4166 33.7128 84.8998 34.9311 85.3384L36.8149 81.5838Z" fill="#FCD21F"/>
<path fill-rule="evenodd" clip-rule="evenodd" d="M22.6084 94.5199C22.8643 94.1081 23.3346 93.1508 23.5866 92.7161C24.0762 91.8564 24.4074 91.4357 25.1075 90.7239C25.1075 90.7239 24.5469 89.8723 24.3586 89.2095C23.43 90.0901 22.869 91.1919 22.4227 92.5903C22.2613 93.0937 21.417 95.7466 21.417 95.7466C21.5963 95.5688 22.2866 95.0399 22.6084 94.5199" fill="#FCD21F"/>
<path fill-rule="evenodd" clip-rule="evenodd" d="M37.0684 77.0699C37.0684 75.8577 37.3795 74.4861 37.7664 73.3902C37.7771 73.3587 17.3131 77.3371 17.3131 77.3371C17.3131 77.3371 37.7822 80.9609 37.7762 80.946C37.2961 79.747 37.0684 78.4389 37.0684 77.0699" fill="#FFFFFE"/>
<path fill-rule="evenodd" clip-rule="evenodd" d="M33.313 69.3957C33.3605 69.4004 34.1154 69.5346 34.821 69.076L33.8359 67.1759C33.6661 67.6511 33.3922 68.5249 33.313 69.3957" fill="#FCD21F"/>
<path fill-rule="evenodd" clip-rule="evenodd" d="M28.7741 70.0963C28.3158 71.5302 27.997 73.2278 27.8206 74.6195L30.2359 74.1604C30.3022 73.1835 30.7139 70.4697 30.7609 70.003C30.7609 70.003 30.3959 69.9808 30.0245 69.8956L30.0356 69.5797C29.7763 69.766 29.288 70.0094 28.7741 70.0963" fill="#FCD21F"/>
<path fill-rule="evenodd" clip-rule="evenodd" d="M36.8087 72.9112L35.1047 69.6241C34.7466 69.7742 34.1124 69.9673 33.871 69.9805C33.5543 70.9693 33.4324 72.491 33.3836 73.5621L36.8087 72.9112Z" fill="#FCD21F"/>
<path fill-rule="evenodd" clip-rule="evenodd" d="M29.9793 85.8986C30.3979 84.2389 30.9499 82.357 31.7501 80.659L27.6557 79.9109C27.7092 80.8725 27.8038 82.0122 27.9013 82.8954C28.4251 84.1719 29.4902 85.5495 29.9793 85.8986" fill="#FCD21F"/>
<path fill-rule="evenodd" clip-rule="evenodd" d="M16.2401 69.9158C17.7703 69.8676 18.8697 69.5156 20.1299 68.742L20.1843 68.5011C20.851 65.5563 22.3201 62.3383 24.3395 60.225C24.47 60.0878 24.8881 59.7498 25.0742 59.5703C24.7969 59.754 24.1567 60.0925 23.9736 60.1534C23.392 60.3478 22.9264 60.3158 22.5537 60.1296C22.3308 60.0187 22.0804 59.7941 21.967 59.3658C18.3446 61.8507 16.8387 67.245 16.4604 68.9308C16.3732 69.3613 16.2743 69.831 16.2401 69.9158" fill="#FCD21F"/>
<path fill-rule="evenodd" clip-rule="evenodd" d="M30.385 69.3683C31.1591 69.5478 32.3162 69.3402 32.7514 68.8121C32.9209 68.1536 33.1887 67.1579 33.4412 66.4158L32.2862 64.1875C31.6277 65.6098 30.8411 67.3523 30.385 69.3683" fill="#FCD21F"/>
<path fill-rule="evenodd" clip-rule="evenodd" d="M25.324 54.582C24.3 54.9362 22.2173 54.9281 21.9768 54.7367C20.5471 56.2562 19.2564 57.8695 19.0112 58.7931V58.8707C19.0112 59.034 19.0635 59.1397 19.1833 59.2134C19.553 59.441 20.5723 59.3481 22.0192 58.6363C22.6384 57.7894 25.0228 54.9588 25.324 54.582" fill="#FCD21F"/>
<path fill-rule="evenodd" clip-rule="evenodd" d="M25.3279 70.0432C24.7468 72.1389 24.2778 73.9802 23.9988 75.3454L27.2112 74.7347C27.3833 73.2902 27.7213 71.5179 28.1916 70.0227C27.9888 69.9877 27.1316 69.9166 27.1316 69.9166L27.1907 69.4307C26.6665 69.7665 26.0156 69.9468 25.3279 70.0432" fill="#FCD21F"/>
<path fill-rule="evenodd" clip-rule="evenodd" d="M64.0152 100.2C64.0152 100.2 65.0294 100.149 65.7329 99.5934C66.4955 98.9924 67.0522 97.7572 66.5682 95.9985C65.9396 93.7122 63.7242 90.9222 62.2089 89.4764C62.2089 89.4764 64.6738 93.8192 64.9857 94.9547C65.3567 96.3059 65.1513 97.0181 64.9639 97.7734C64.7221 98.7516 64.2313 99.6897 64.0152 100.2" fill="#FCD21F"/>
<path fill-rule="evenodd" clip-rule="evenodd" d="M71.0047 93.139C69.5784 90.5497 67.2428 89.0583 64.3633 87.6436C65.5071 88.8678 66.2919 90.2228 67.0524 91.5475C67.8607 92.954 68.3807 94.4706 69.548 95.667C69.8463 96.0097 70.3585 96.3166 70.7462 96.4781C70.7561 96.4449 70.7651 96.4099 70.7758 96.3771C70.9371 95.8729 71.3612 95.0737 71.7322 94.4842C71.4506 94.0038 71.1588 93.411 71.0047 93.139" fill="#FCD21F"/>
<path fill-rule="evenodd" clip-rule="evenodd" d="M75.3843 102.85C76.0514 102.718 76.0955 101.605 75.6744 100.732C75.3864 100.133 74.5023 98.819 74.5023 98.819L71.0956 97.9977C71.078 98.2006 71.0673 98.4047 71.0673 98.6123C71.0673 99.2909 71.2218 100.116 71.4105 100.734C72.8094 100.702 74.7171 102.982 75.3843 102.85" fill="#FCD21F"/>
<path fill-rule="evenodd" clip-rule="evenodd" d="M79.3217 85.8971L79.8395 87.5244L78.5741 86.4427L78.2083 88.463L79.7728 87.9149L78.6833 89.3133L80.7912 89.6922L80.2674 88.0031L81.5311 89.0789L81.9 87.0466L80.3363 87.6157L81.3878 86.2688L79.3217 85.8971Z" fill="#FCD21F"/>
<path fill-rule="evenodd" clip-rule="evenodd" d="M84.836 69.4987C84.9409 69.7182 85.0577 70.4129 85.0577 70.4129C85.0577 70.4129 84.1347 70.5672 83.8317 70.5877C86.8041 74.6241 87.505 79.0952 88.0785 81.2583C88.3502 82.2855 89.0002 82.7915 89.5484 83.3174C89.7701 83.5305 90.9661 84.7717 93.5842 85.5001C93.8525 85.5743 94.5021 85.6664 94.6108 85.6672C94.354 82.6308 93.8795 80.0683 93.2829 77.8476C93.2264 77.6384 93.1734 77.4257 93.1152 77.2236C92.5281 75.1747 91.8378 73.431 91.1266 71.8809C91.1112 71.8907 90.646 70.9828 90.4282 70.5446C90.4282 70.5438 90.4269 70.5429 90.4265 70.5416C89.8651 70.6674 89.2844 70.7582 88.6716 70.7582C87.5196 70.7582 86.2606 70.4479 84.836 69.4987" fill="#FCD21F"/>
<path fill-rule="evenodd" clip-rule="evenodd" d="M11.6056 58.3532C11.5851 58.6708 11.8825 58.9039 12.072 58.9823C12.5256 59.1678 13.3832 58.7526 14.5647 58.1648C15.4646 56.4361 17.5495 54.1591 19.6558 52.3136C18.4024 52.4666 17.44 52.5292 16.7848 51.9385C16.7471 51.904 16.7142 51.8942 16.7429 51.9257C14.162 53.8544 11.924 56.448 11.6056 58.3532" fill="#FCD21F"/>
<path fill-rule="evenodd" clip-rule="evenodd" d="M36.6099 63.3604L39.1535 64.6566L39.0876 61.5481L36.6099 63.3604Z" fill="#FCD21F"/>
<path fill-rule="evenodd" clip-rule="evenodd" d="M40.449 65.317L43.0534 66.6302L41.9575 62.9783L40.449 65.317Z" fill="#FCD21F"/>
<path fill-rule="evenodd" clip-rule="evenodd" d="M18.9626 78.3249C18.9464 78.4463 18.9155 78.697 18.9048 78.7779C18.3858 82.6204 18.3485 86.6713 19.0307 90.0398C19.1441 90.5623 19.3037 91.3619 19.5412 92.0418C19.9858 93.3158 21.0834 95.2078 21.0834 95.2078C21.2888 94.4943 21.6748 92.9023 21.9722 91.957C22.5546 90.1152 23.054 88.4376 23.3698 86.2515C23.4225 85.8346 23.247 84.5436 23.191 83.8313C23.0493 82.0011 22.9548 80.433 22.9864 79.0593L18.9626 78.3249Z" fill="#FCD21F"/>
<path fill-rule="evenodd" clip-rule="evenodd" d="M37.8314 73.102C38.8152 70.6397 40.8928 68.6296 43.2815 67.4984C43.3131 67.483 31.9187 61.824 31.9187 61.824L37.8314 73.102Z" fill="#FFFFFE"/>
<path fill-rule="evenodd" clip-rule="evenodd" d="M32.7931 89.4766C31.2778 90.9224 29.0624 93.7125 28.4342 95.9984C27.9498 97.7574 28.5065 98.9922 29.2691 99.5936C29.9726 100.149 30.9864 100.2 30.9864 100.2C30.7707 99.6895 30.2803 98.7518 30.0377 97.7736C29.8511 97.0179 29.6457 96.3057 30.0163 94.9545C30.3282 93.8195 32.7931 89.4766 32.7931 89.4766" fill="#FCD21F"/>
<path fill-rule="evenodd" clip-rule="evenodd" d="M10.3431 82.3659C10.5994 82.2359 10.5917 81.9299 10.5571 81.7061C10.498 81.3247 10.3281 80.8093 10.2408 80.5932C9.79364 79.4791 8.95875 78.7843 8.67974 78.5469C8.48546 78.382 8.10375 78.2592 8.10375 78.2592C7.92916 78.2132 7.73573 78.2238 7.56713 78.292C7.55771 78.2959 7.54787 78.3001 7.53803 78.3048C7.41479 78.3607 7.33434 78.4271 7.26416 78.5627C7.19355 78.6982 7.10582 79.1718 6.99285 79.2749C6.96332 79.3018 6.93679 79.3197 6.91154 79.329C6.6274 79.4437 6.6244 78.5461 6.62055 78.5294C6.68474 78.4647 7.00826 78.3376 7.14648 78.1757C7.22436 78.0666 7.50893 77.6966 7.50979 77.4826C7.49053 77.1612 7.0519 77.16 6.7438 77.2844C6.73994 77.2861 6.73567 77.2874 6.73139 77.2891C6.66506 77.1877 6.54438 77.1331 6.42199 77.1621C6.41344 77.1642 6.40488 77.1668 6.39589 77.1702C6.23114 77.2375 5.9992 77.5483 5.9992 77.5483C6.29576 76.9498 5.82118 76.25 5.1733 76.4784L4.89344 75.8284L4.50103 75.9904L4.10648 76.1464L4.35853 76.8062C3.73375 77.0913 3.88224 77.9233 4.51301 78.1471C4.51301 78.1471 4.12916 78.0849 3.9644 78.1514C3.95585 78.1548 3.94686 78.159 3.94001 78.1633C3.83132 78.2268 3.78339 78.3513 3.8065 78.4693C3.80222 78.4706 3.79751 78.4728 3.79409 78.4736C3.48641 78.5981 3.17188 78.902 3.38199 79.147C3.5322 79.3005 3.99521 79.3687 4.12702 79.393C4.34055 79.4147 4.6615 79.2813 4.75222 79.2822C4.76121 79.2975 5.38598 79.9445 5.10184 80.0596C5.07744 80.069 5.04578 80.0745 5.00555 80.0754C4.85278 80.0805 4.45909 79.8013 4.31359 79.7531C4.16853 79.7041 4.06326 79.7127 3.93659 79.7574C3.92632 79.7608 3.91648 79.7647 3.90621 79.7689C3.73846 79.8367 3.59168 79.962 3.49839 80.1176C3.49839 80.1176 3.3101 80.4688 3.28614 80.7228C3.25148 81.0864 3.13679 82.1639 3.59382 83.2742C3.68283 83.4903 3.92033 83.9775 4.14413 84.2929C4.27594 84.4775 4.48391 84.7021 4.75907 84.6173C4.76762 84.6151 4.77704 84.6117 4.78688 84.6079C5.08686 84.4868 5.87767 83.775 5.9072 83.7444C5.9654 83.9195 7.18114 84.8176 7.40109 84.7942C7.39296 84.827 8.59672 84.3415 8.5672 84.3236C8.74222 84.1893 8.98785 82.6997 8.90697 82.5347C8.95105 82.536 10.0157 82.4989 10.3161 82.3779C10.326 82.3736 10.3345 82.3698 10.3431 82.3659" fill="#FCD21F"/>
<path fill-rule="evenodd" clip-rule="evenodd" d="M24.2979 49.8003C23.5615 50.0969 22.5485 50.7554 21.4565 51.6105C21.4565 51.6105 20.242 52.7626 20.2429 52.7638C20.3713 52.9919 21.8172 53.0758 23.6269 52.367C24.2795 51.7622 24.8594 51.2644 25.2727 50.9553C25.1658 50.697 25.0305 50.4682 24.8641 50.2725C24.7062 50.0867 24.5144 49.9324 24.2979 49.8003" fill="#FCD21F"/>
<path fill-rule="evenodd" clip-rule="evenodd" d="M43.4983 86.7451C41.9304 86.093 40.5371 85.0266 39.463 83.7424C38.8626 83.0229 38.3568 82.2216 37.9669 81.358C37.9503 81.3192 36.3464 84.4252 34.8251 87.3866L31.8985 92.6514L39.9102 88.5724L43.4983 86.7451Z" fill="#FFFFFE"/>
<path fill-rule="evenodd" clip-rule="evenodd" d="M39.7489 81.9024L47.5514 68.197L55.284 81.9024H39.7489ZM55.1887 83.0476C56.478 81.3969 57.2487 79.3228 57.2487 77.0698C57.2487 72.6685 54.3101 68.9412 50.2915 67.7443C49.4112 67.4826 48.4817 67.3394 47.5181 67.3394C46.5646 67.3394 45.6442 67.48 44.7733 67.7371C44.7742 67.7396 44.7742 67.7413 44.775 67.7443C40.7568 68.9412 37.8169 72.6685 37.8169 77.0698C37.8169 79.3228 38.5881 81.3969 39.877 83.0476C41.661 85.3092 44.4207 86.8023 47.5181 86.8023C50.6321 86.8023 53.4063 85.3305 55.1887 83.0476V83.0476Z" fill="#E7792B"/>
<path fill-rule="evenodd" clip-rule="evenodd" d="M27.3422 97.8139C28.415 92.755 31.571 89.6712 33.5566 88.0622L34.0123 87.1821L34.5798 86.0491C33.866 86.2951 33.1394 86.564 32.4123 86.8671C32.4042 86.8705 32.3973 86.8739 32.3896 86.8773C30.544 88.3005 29.5516 90.0152 28.5092 91.8305C27.694 93.2486 27.0072 94.8295 25.7247 96.1167C25.4016 96.4508 24.9989 96.6533 24.4529 96.9444L24.0382 99.8317C24.0382 99.8317 27.1009 98.9524 27.3422 97.8139" fill="#FCD21F"/>
<path fill-rule="evenodd" clip-rule="evenodd" d="M47.5486 69.7138L41.0347 81.1568H54.0035L47.5486 69.7138Z" fill="#0065A3"/>
<path fill-rule="evenodd" clip-rule="evenodd" d="M9.60134 85.8166L14.1964 94.2866C13.6243 91.8571 13.3705 88.8902 13.3752 85.9909C13.3765 85.6887 13.3829 85.3921 13.3953 85.1065C13.4471 83.9246 13.4685 82.9443 13.5734 81.8314L13.1959 81.7657C13.2152 81.4644 13.2961 80.8242 13.2922 80.8285C12.3893 81.6809 11.7059 82.2244 11.0174 82.5773C10.8992 82.7542 10.7482 82.8637 10.6296 82.9242C10.6061 82.9353 10.58 82.9468 10.5518 82.9587C10.3459 83.0419 9.80417 83.0836 9.47381 83.1122C9.46825 83.4336 9.43316 83.8918 9.21663 84.4983L9.28595 85.2787C9.40834 85.5004 9.50591 85.6568 9.60134 85.8166" fill="#FCD21F"/>
<path fill-rule="evenodd" clip-rule="evenodd" d="M16.9175 98.8405L18.9147 92.0059C18.7144 91.2916 18.53 90.5077 18.3755 89.7005C17.6566 85.6112 17.9719 81.741 18.2497 79.3942C16.3167 81.172 15.4771 81.6784 14.1338 81.8877C14.0448 82.8821 13.9678 83.5802 13.946 85.0243C13.9421 85.3137 13.9413 85.6095 13.9421 85.9066C13.9374 89.8445 14.4043 93.9504 15.5396 96.6817L16.9175 98.8405Z" fill="#FCD21F"/>
<path fill-rule="evenodd" clip-rule="evenodd" d="M43.677 22.1037L43.3445 22.4348C43.5464 22.5921 43.7488 22.7519 43.95 22.9199L43.677 22.1037Z" fill="#FCD21F"/>
<path fill-rule="evenodd" clip-rule="evenodd" d="M42.0913 20.3498L42.7974 22.0257C42.8261 22.0462 42.856 22.0653 42.8856 22.0879L43.4757 21.4997L42.865 19.6772L42.0913 20.3498Z" fill="#FCD21F"/>
<path fill-rule="evenodd" clip-rule="evenodd" d="M31.3491 69.9616C31.2387 70.5081 30.893 73.1234 30.8258 74.0483L32.8003 73.6728C32.8456 72.6064 32.9684 71.0306 33.2782 69.9667C33.0365 69.9288 32.8396 69.9309 32.7322 69.8589C32.7322 69.8589 32.7344 69.5912 32.7446 69.3837C32.1395 69.8372 31.8028 69.8909 31.3491 69.9616" fill="#FCD21F"/>
<path fill-rule="evenodd" clip-rule="evenodd" d="M9.08755 78.0697L9.10339 78.0837C9.43846 78.3676 10.3285 79.1233 10.8245 80.3602C10.9255 80.6117 11.1112 81.1743 11.1784 81.6108C11.187 81.6696 11.1878 81.7212 11.1921 81.7757C11.8079 81.4028 12.5093 80.8129 13.4045 79.9255C13.9 76.3281 14.8736 72.9652 16.2601 70.4802C16.1364 70.4849 15.5304 70.4866 15.5304 70.4866C15.5304 70.4866 15.631 69.7032 15.7127 69.41C14.696 70.0455 13.5556 70.5864 11.8926 70.6038C10.7269 72.4925 9.67852 73.8018 8.50386 77.7389C8.67503 77.8092 8.91253 77.9213 9.08755 78.0697" fill="#FCD21F"/>
<path fill-rule="evenodd" clip-rule="evenodd" d="M41.4935 34.6616C39.5485 34.3377 37.8535 34.0726 36.2976 33.7239C36.2864 33.8671 36.2561 34.0035 36.2124 34.1339C36.2133 34.1484 36.2171 34.1616 36.2163 34.1766C36.2043 34.3377 36.3083 34.5073 36.4619 34.6829C37.5189 35.8956 41.7562 37.0575 45.2905 37.3013L46.3312 37.4006C44.106 36.3239 42.4944 35.3372 41.4935 34.6616" fill="#FCD21F"/>
<path fill-rule="evenodd" clip-rule="evenodd" d="M41.25 23.0907L38.1757 23.7586C38.1757 23.7586 38.4616 24.0101 39.029 24.1205C39.5964 24.2317 43.3853 24.1205 43.3853 24.1205L41.5067 25.3698C41.6522 25.5833 41.7476 25.8322 41.7823 26.0986C43.414 26.1455 44.7941 26.5466 46.16 27.3709C46.3765 27.1237 46.6547 26.9328 46.9696 26.8202C46.9726 26.8185 46.9748 26.8177 46.9769 26.8155C43.5852 22.6739 39.7702 20.2307 36.1028 19.8271L41.25 23.0907Z" fill="#FCD21F"/>
<path fill-rule="evenodd" clip-rule="evenodd" d="M70.2022 50.2726C70.0357 50.4682 69.9009 50.6967 69.7935 50.955C70.2073 51.2644 70.7872 51.7627 71.4402 52.3675C73.249 53.0759 74.695 52.9919 74.8238 52.7639C74.8247 52.7626 73.6093 51.6105 73.6093 51.6105C72.5173 50.7559 71.5048 50.097 70.7692 49.8003C70.5518 49.9324 70.3605 50.0867 70.2022 50.2726" fill="#FCD21F"/>
<path fill-rule="evenodd" clip-rule="evenodd" d="M14.0815 79.2515C14.0815 79.2515 13.7841 80.9257 13.7841 81.3229C13.7841 81.3229 15.5724 81.655 18.3634 78.506C18.3681 78.4736 18.3955 78.2895 18.4057 78.223L14.411 77.4933C14.2159 78.4344 14.0815 79.2515 14.0815 79.2515" fill="#FCD21F"/>
<path fill-rule="evenodd" clip-rule="evenodd" d="M27.9101 68.7575L27.771 69.4561C28.8378 69.7378 29.5906 69.2208 29.8833 68.9275C30.4276 67.0508 31.167 65.1435 31.9309 63.5021L30.9933 61.6944C29.8768 63.6112 28.5836 66.4183 27.9101 68.7575" fill="#FCD21F"/>
<path fill-rule="evenodd" clip-rule="evenodd" d="M10.6557 69.9568C13.1925 70.3054 14.54 69.5084 15.8991 68.6116C16.2111 67.3043 16.9403 64.8783 17.8885 63.213C18.4431 62.2361 18.9246 61.1867 20.4826 59.8031C19.7984 59.9506 19.2451 59.9195 18.883 59.6966C18.702 59.5845 18.5737 59.431 18.5035 59.2435C17.265 59.6463 16.36 59.8688 15.7104 59.8321C13.851 61.7395 12.5677 64.8821 11.0948 68.7881C10.9681 69.1188 10.6964 69.8396 10.6557 69.9568" fill="#FCD21F"/>
<path fill-rule="evenodd" clip-rule="evenodd" d="M28.1944 60.1191C28.3219 60.2286 28.8538 60.3403 29.4427 60.2222C29.3845 60.1898 28.8063 59.7866 28.642 59.6638C28.5598 59.7338 28.3155 60.0099 28.1944 60.1191" fill="#FCD21F"/>
<path fill-rule="evenodd" clip-rule="evenodd" d="M18.7011 76.3521C19.189 73.7948 19.8873 71.4978 20.5742 70.477C20.4509 70.4783 19.8831 70.477 19.8831 70.477C19.8831 70.477 19.9233 69.729 19.9716 69.483C19.0135 69.9881 18.0348 70.2886 16.9518 70.4131C15.7758 72.1406 14.9366 75.1579 14.486 77.153L18.7011 76.3521Z" fill="#FCD21F"/>
<path fill-rule="evenodd" clip-rule="evenodd" d="M23.722 69.7484C23.1071 70.2851 22.256 70.41 21.3308 70.4564C20.6547 71.0212 19.8865 73.3901 19.3277 76.2331L23.4182 75.4561C23.6912 74.0789 24.1329 72.2265 24.7174 70.1086C24.3913 70.1321 24.0622 70.141 23.7379 70.141L23.722 69.7484Z" fill="#FCD21F"/>
<path fill-rule="evenodd" clip-rule="evenodd" d="M27.9331 60.5577C27.678 60.5006 27.5937 60.3847 27.5441 60.2483C26.7802 60.3659 25.7464 60.3906 25.309 59.9478C23.3855 61.8236 21.8676 64.0958 20.7071 68.4736C20.5804 68.9523 20.5393 69.5528 20.4987 69.9092C21.8894 69.9041 23.492 69.8261 23.8934 68.6267C24.8233 65.3865 25.7536 62.5559 27.9331 60.5577" fill="#FCD21F"/>
<path fill-rule="evenodd" clip-rule="evenodd" d="M30.0566 60.7129C29.3501 60.894 28.6419 60.7871 28.4489 60.7785C26.302 62.6944 25.444 65.2966 24.4537 68.7418C24.4088 68.9135 24.2744 69.4834 24.2941 69.5708C25.4555 69.5597 26.5895 69.3129 27.3739 68.5589C28.1639 65.8183 29.4113 62.9945 30.6672 61.0641L30.6561 61.0432C30.4606 60.9358 30.2624 60.8267 30.0566 60.7129" fill="#FCD21F"/>
<path fill-rule="evenodd" clip-rule="evenodd" d="M17.2414 51.6071C17.7417 52.1305 20.0152 51.7937 20.5352 51.6164C21.6559 50.6971 22.7369 49.9384 23.5944 49.4985C23.2024 49.3843 22.7557 49.3237 22.2473 49.322C20.768 49.5113 18.9514 50.3995 17.2414 51.6071" fill="#FCD21F"/>
<path fill-rule="evenodd" clip-rule="evenodd" d="M26.5967 57.7253C26.0776 58.3314 25.7451 58.8561 25.5637 59.2563C25.3913 59.6361 26.1564 59.8215 26.3519 59.8534C26.3519 59.8534 27.5236 59.9741 27.9105 59.6071C28.0418 59.4877 28.1484 59.3633 28.2104 59.3121C27.6854 58.8778 27.168 58.2576 26.5967 57.7253" fill="#FCD21F"/>
<path fill-rule="evenodd" clip-rule="evenodd" d="M41.1926 18.1746L41.8628 19.7947L42.6694 19.0918L42.0699 17.2999L41.1926 18.1746Z" fill="#FCD21F"/>
<path fill-rule="evenodd" clip-rule="evenodd" d="M15.3011 59.1491C15.7496 59.4717 17.0654 59.1154 18.4554 58.6597C18.7528 57.5217 20.2415 55.6109 21.8856 53.9201C21.8668 53.9708 22.2613 53.493 22.4184 53.3293C21.1924 53.6 20.0592 53.5761 19.7507 53.0493C19.7494 53.0459 15.2129 57.1044 15.0585 58.4496C15.0294 58.8336 15.2014 59.0774 15.3011 59.1491" fill="#FCD21F"/>
<path fill-rule="evenodd" clip-rule="evenodd" d="M22.5737 54.1727C22.646 54.3747 24.6491 54.3747 25.4763 53.9259C25.5991 52.9737 25.5914 52.1792 25.4489 51.5343C25.0437 51.848 23.0178 53.7174 22.5737 54.1727" fill="#FCD21F"/>
<path fill-rule="evenodd" clip-rule="evenodd" d="M22.4882 59.0246C22.3525 59.4146 22.7436 59.6511 22.9508 59.6942C23.2653 59.7594 23.8066 59.8566 25.1242 58.8946C25.3771 58.5238 25.8756 57.9262 26.2411 57.3231C25.5953 56.6279 25.443 56.0508 25.2979 55.7831C24.2649 56.7178 22.8292 58.2744 22.4882 59.0246" fill="#FCD21F"/>
<path fill-rule="evenodd" clip-rule="evenodd" d="M64.8266 74.1608L67.2662 74.6246C67.0882 73.2321 66.7493 71.5259 66.2922 70.0963C65.7787 70.0094 65.2905 69.766 65.0307 69.5797L65.0418 69.896C64.6713 69.9808 64.3058 70.003 64.3058 70.003C64.3529 70.4735 64.7667 73.2082 64.8266 74.1608" fill="#FCD21F"/>
<path fill-rule="evenodd" clip-rule="evenodd" d="M44.3219 59.3286C43.8358 59.8669 42.0466 61.6319 42.0843 61.5927L43.377 65.6607L44.3219 59.3286Z" fill="#FCD21F"/>
<path fill-rule="evenodd" clip-rule="evenodd" d="M10.579 68.5398C12.0108 64.7434 13.2792 61.6647 15.088 59.6747C15.0482 59.6529 15.0042 59.6367 14.9669 59.6103C14.6866 59.4091 14.5672 59.1121 14.5176 58.8235C13.3215 59.4147 12.4956 59.7714 11.8542 59.508C11.564 59.3883 11.3355 59.1487 11.1609 58.7787C11.0638 58.8299 10.9701 58.8827 10.8785 58.9335C10.2435 59.2868 9.67731 59.5907 8.62461 59.6372C8.62161 59.6423 8.61862 59.6478 8.61562 59.6525C6.43447 63.4651 5.24911 66.6742 4.79123 69.9941C6.43362 70.3547 8.27456 70.3526 10.579 68.5398" fill="#FCD21F"/>
<path fill-rule="evenodd" clip-rule="evenodd" d="M4.5106 85.2555C4.36639 85.2372 4.20634 85.1835 4.04287 85.0722C3.19943 85.5389 2.26997 85.92 1.40855 86.1088C1.15393 86.1651 0.429021 86.2371 0.416183 86.2384C0.307489 87.6927 0.242872 89.2424 0.242872 90.9218C-0.251384 98.8411 1.83091 106.27 3.8426 112.028L5.59454 103.751L5.58898 103.752C4.36425 99.2716 4.02875 93.5231 4.5106 85.2555" fill="#FCD21F"/>
<path fill-rule="evenodd" clip-rule="evenodd" d="M3.63452 84.6597C3.63366 84.658 3.63238 84.6567 3.6311 84.655C3.37477 84.2953 3.11459 83.7629 3.01103 83.5114C2.50394 82.2792 2.61562 81.1203 2.65713 80.6838L2.65927 80.6634C2.69308 80.3036 2.90148 79.8991 2.94256 79.8224L2.95026 79.8075L2.95882 79.7939C2.98321 79.7534 3.00889 79.715 3.03671 79.6775C3.00033 79.6489 2.96481 79.6187 2.93229 79.5854L2.91774 79.5701L2.90448 79.5547C2.71276 79.3318 2.64216 79.0433 2.71062 78.7628C2.7838 78.461 3.00076 78.2249 3.24083 78.0625C3.2772 77.9722 3.32855 77.8882 3.39274 77.814C3.35722 77.7011 3.33583 77.5822 3.32984 77.4607C3.31614 77.1406 3.41799 76.8439 3.60927 76.6086L3.51812 76.3691L3.29689 75.7916L3.87459 75.5635L4.26015 75.4114L4.65256 75.2494L5.22641 75.0128L5.47162 75.581L5.57303 75.8163C5.87515 75.8529 6.15587 75.9957 6.36855 76.2344C6.45029 76.3261 6.51747 76.4262 6.57053 76.5311C6.66853 76.5413 6.76439 76.5656 6.85382 76.6044C7.13925 76.5558 7.46062 76.5758 7.72294 76.7399C7.874 76.835 7.98355 76.9709 8.05373 77.1282C8.67123 75.1143 9.61481 72.7879 11.2341 70.5877C10.9315 70.5673 10.0089 70.413 10.0089 70.413C10.0089 70.413 10.1258 69.7182 10.2306 69.4987C8.80517 70.4475 7.54707 70.7582 6.39466 70.7582C5.78229 70.7582 5.20116 70.667 4.63972 70.5413C4.63972 70.5426 4.63887 70.5438 4.63844 70.5447C4.4202 70.9828 3.95547 71.8907 3.93963 71.8809C3.22885 73.4311 2.5386 75.1748 1.95105 77.2237C1.89371 77.4257 1.83979 77.6384 1.7833 77.8477C1.18763 80.0684 0.712201 82.6308 0.455444 85.6673C0.564138 85.666 1.21373 85.574 1.48162 85.4998C2.35288 85.2581 3.06281 84.9581 3.63452 84.6597" fill="#FCD21F"/>
<path fill-rule="evenodd" clip-rule="evenodd" d="M25.2994 49.9042C26.724 51.4821 25.6965 54.7543 25.8446 55.6097C26.1035 56.7967 27.5811 58.0413 28.781 59.0472C29.1627 59.3967 30.7277 60.4747 31.9199 61.0603L35.8821 62.9903L39.7685 60.0953V64.9697L39.9868 65.0822L42.0845 61.5927L41.6629 54.8463C40.5799 57.0862 39.065 58.6696 37.29 59.554C36.3729 60.0109 34.9013 60.2688 34.9013 60.2688C34.9013 60.2688 37.6177 55.9699 37.7637 55.7005C36.6669 56.3454 34.68 57.07 33.8563 57.2959C33.3885 57.4007 32.6991 57.4736 32.0234 57.2456C31.8146 57.1748 30.6126 56.648 29.5038 55.4008C28.9103 54.6831 28.1935 53.5161 28.057 52.543C27.8058 50.7481 27.1772 49.4929 26.1792 48.4938C25.2874 47.603 23.9998 47.3945 23.9994 47.3963C23.2659 47.2343 22.4456 47.2206 21.5418 47.3609C21.6197 47.7394 21.9641 48.3357 22.3531 48.7542C23.6776 48.776 24.6468 49.1809 25.2994 49.9042" fill="#FCD21F"/>
<path fill-rule="evenodd" clip-rule="evenodd" d="M10.6013 58.4364C10.7434 58.3567 10.8957 58.274 11.0554 58.1913C11.402 56.3389 13.3148 53.9644 15.6504 52.0528C14.6042 52.1964 13.7791 52.0042 13.3101 51.4756C11.0459 53.158 8.29265 55.781 7.72479 58.881C7.81081 58.9538 8.08896 59.0685 8.42659 59.0766C9.46518 59.0625 9.97056 58.7863 10.6013 58.4364" fill="#FCD21F"/>
<path fill-rule="evenodd" clip-rule="evenodd" d="M16.6992 51.2262L16.8657 51.1712C18.4811 50.0247 20.1963 49.1556 21.6846 48.8436C21.3594 48.4229 21.0782 47.9148 20.9875 47.4878C19.1958 47.998 16.4099 49.2749 13.782 51.141C14.3645 51.7194 15.6256 51.5851 16.6992 51.2262" fill="#FCD21F"/>
<path fill-rule="evenodd" clip-rule="evenodd" d="M8.84524 89.8865L7.30727 85.423C7.27346 85.4174 7.24051 85.4102 7.20756 85.3991C7.012 85.3505 6.72486 85.2111 6.22504 84.8518C6.09324 84.7572 5.98198 84.6724 5.88612 84.5961C5.62936 84.8105 5.31869 85.0471 5.08718 85.1591C4.39308 94.7097 5.36747 101.748 6.13988 103.561C6.93283 105.425 8.25213 107.789 8.25213 107.789L9.51623 101.806L10.0396 99.3279C9.17646 97.0262 8.89231 93.867 8.85252 90.9823C8.85252 90.9635 8.84524 89.9406 8.84524 89.8865" fill="#FCD21F"/>
<path fill-rule="evenodd" clip-rule="evenodd" d="M20.9987 108.882C21.2208 108.539 21.1784 108.347 21.1784 108.347C20.1116 108.961 18.2274 109.432 16.2697 109.484C16.2697 109.484 16.1969 109.691 16.4485 109.838C16.7002 109.987 18.1898 109.964 18.9575 109.838C19.7252 109.712 20.7753 109.226 20.9987 108.882" fill="#FCD21F"/>
<path fill-rule="evenodd" clip-rule="evenodd" d="M21.3126 107.591C21.4448 107.005 21.1602 106.922 21.1602 106.922C19.1588 107.314 18.0286 107.384 16.5365 107.398C16.257 107.4 15.7307 107.32 15.4551 107.161C15.4551 107.161 15.0498 107.826 15.1803 108.307C15.31 108.789 15.9759 108.919 15.9759 108.919C18.2828 108.91 21.1799 108.177 21.3126 107.591" fill="#FCD21F"/>
<path fill-rule="evenodd" clip-rule="evenodd" d="M19.1124 110.381C19.1124 110.381 19.4235 112.419 19.8587 113.156C20.2939 113.892 22.3569 115.016 22.7331 114.834C22.9175 114.745 23.0784 114.66 23.1983 114.603C23.5201 114.452 23.4563 112.277 23.0421 111.484C22.6274 110.692 21.1639 109.492 21.1639 109.492C20.6799 109.885 19.9362 110.136 19.1124 110.381" fill="#FCD21F"/>
<path fill-rule="evenodd" clip-rule="evenodd" d="M11.5987 97.7988L9.46503 91.5967C9.49498 92.8303 9.59683 94.2172 9.7419 95.4051C9.74104 95.4055 9.74018 95.4064 9.73933 95.4081C9.90322 96.7528 10.1621 98.0247 10.5716 99.1193L12.1995 102.363C12.1995 102.363 12.5132 101.165 12.4922 101.108C12.2667 100.48 11.5987 97.7988 11.5987 97.7988" fill="#FCD21F"/>
<path fill-rule="evenodd" clip-rule="evenodd" d="M18.9525 104.534C18.9525 104.534 17.1505 103.051 16.8814 103.071C16.6118 103.092 16.1436 104.02 16.1436 104.02C16.1436 104.02 17.7347 104.845 18.2092 104.839C18.6851 104.833 18.9525 104.534 18.9525 104.534" fill="#FCD21F"/>
<path fill-rule="evenodd" clip-rule="evenodd" d="M16.3762 101.021C16.5722 100.673 16.7831 99.776 16.6569 99.4193C16.5294 99.0621 15.2336 97.1896 14.7873 96.4915C14.4231 95.9203 10.1224 87.9302 8.5682 85.0396C8.48262 85.0771 7.94685 85.2927 7.84329 85.3294C8.92852 88.4242 11.966 97.1001 12.1085 97.644C12.2822 98.3068 12.8171 100.702 13.0152 101.014C13.2138 101.324 14.0102 101.779 14.5339 101.826C15.0573 101.873 16.1793 101.367 16.3762 101.021" fill="#FCD21F"/>
<path fill-rule="evenodd" clip-rule="evenodd" d="M20.7014 106.431C21.1366 106.244 20.9132 104.961 20.4083 104.942H19.4296C19.4296 104.942 18.9631 105.461 18.2365 105.461C17.509 105.461 15.7627 104.48 15.7627 104.48L15.0228 104.899C15.0228 104.899 14.4862 105.635 14.6445 106.039C14.8033 106.444 16.0532 106.833 16.3023 106.831C17.696 106.82 20.267 106.618 20.7014 106.431" fill="#FCD21F"/>
<path fill-rule="evenodd" clip-rule="evenodd" d="M21.3566 105.764C21.7443 105.388 21.8697 105.259 22.2702 104.942H21.072C21.3236 105.214 21.3647 105.514 21.3566 105.764" fill="#FCD21F"/>
<path fill-rule="evenodd" clip-rule="evenodd" d="M37.6276 26.5477C38.0855 26.5477 38.4586 26.1773 38.4586 25.7234C38.4586 25.2673 38.0855 24.8965 37.6276 24.8965C37.171 24.8965 36.7987 25.2673 36.7987 25.7234C36.7987 26.1773 37.171 26.5477 37.6276 26.5477" fill="#FCD21F"/>
<path fill-rule="evenodd" clip-rule="evenodd" d="M38.2345 17.0459L37.3646 14.9672C37.1472 15.1386 36.9422 15.3193 36.7607 15.5175C36.6075 15.685 36.4659 15.8619 36.3367 16.0494L37.184 18.0194L38.2345 17.0459Z" fill="#FCD21F"/>
<path fill-rule="evenodd" clip-rule="evenodd" d="M38.5031 26.8876C38.2587 27.07 37.9566 27.1813 37.6275 27.1813C37.4144 27.1813 37.212 27.1344 37.0289 27.0521C37.3917 27.6702 37.7897 28.2631 38.2039 28.8316C38.2039 28.8253 38.2651 28.9054 38.3571 29.029C38.2938 28.8351 38.2609 28.6275 38.2681 28.4122C38.2823 27.9809 38.4483 27.5913 38.7115 27.2866C38.6255 27.1642 38.5553 27.0304 38.5031 26.8876" fill="#FCD21F"/>
<path fill-rule="evenodd" clip-rule="evenodd" d="M36.1956 25.4189C36.2504 25.1653 36.3707 24.9369 36.5376 24.751L35.5422 23.4314C35.6954 24.1159 35.9201 24.7787 36.1956 25.4189" fill="#FCD21F"/>
<path fill-rule="evenodd" clip-rule="evenodd" d="M36.7392 18.43L35.9758 16.6556C35.6056 17.3789 35.3857 18.2314 35.3001 19.2096C35.4897 19.2151 35.6788 19.2198 35.8692 19.2347L36.7392 18.43Z" fill="#FCD21F"/>
<path fill-rule="evenodd" clip-rule="evenodd" d="M35.078 56.056C35.7434 56.0224 36.9061 55.6396 38.3264 54.6964L39.219 54.1035C39.219 54.1035 36.7473 58.5367 36.1756 59.3943C38.5527 58.6364 40.4908 56.5206 41.6809 53.3533L42.2389 52.1339L42.639 60.092C43.2403 59.4693 43.9036 58.8836 44.4496 58.2656L45.1625 53.5174H45.1621L45.5682 50.8108C44.9036 49.8714 43.2629 47.1751 43.1953 47.0605C43.0314 49.6865 42.191 51.5371 40.6389 52.699L39.9949 53.1811C39.9949 53.1811 40.5002 51.6347 40.3406 49.6703C40.276 48.8707 40.1536 48.0378 39.9996 47.1964C39.5233 49.7031 38.5686 51.8197 36.8231 52.3772C36.6874 52.6206 36.455 52.9616 35.9963 53.5021C35.9946 53.5012 34.4545 55.0697 32.6264 55.5463C32.6264 55.5463 33.8216 56.1195 35.078 56.056" fill="#FCD21F"/>
<path fill-rule="evenodd" clip-rule="evenodd" d="M36.0091 23.103L36.9933 24.4089C37.1854 24.316 37.4003 24.2636 37.6275 24.2636C37.6382 24.2636 36.9501 23.4981 36.9501 23.4981L39.7475 22.8093L35.2619 19.968C35.2598 20.0729 35.2568 20.1765 35.2581 20.2851L38.1299 22.5719L36.0091 23.103Z" fill="#FCD21F"/>
<path fill-rule="evenodd" clip-rule="evenodd" d="M35.2908 21.0385C35.2998 21.1685 35.3015 21.2929 35.3135 21.4263C35.3135 21.8474 35.3443 22.2622 35.4008 22.6684L36.8746 22.2997L35.2908 21.0385Z" fill="#FCD21F"/>
<path fill-rule="evenodd" clip-rule="evenodd" d="M38.4491 44.2456C38.5689 42.8156 38.0935 40.6333 38.0935 40.6333L38.616 40.8929C40.4449 41.8046 41.7672 43.4596 42.6535 44.9531V40.7539L43.0296 40.878C43.7883 41.1294 44.5513 41.5101 45.2891 41.877C45.515 41.9896 45.7435 42.1017 45.9733 42.2125C45.2724 41.3715 42.9847 37.5124 42.9847 37.5124L43.0044 37.5103C40.2276 37.0977 37.0181 36.2879 35.9816 35.0983C35.9033 35.0083 35.8417 34.9167 35.7878 34.8234C35.4189 35.2044 34.8909 35.4512 34.341 35.5041C34.4159 36.4273 34.8502 37.6974 35.2846 38.5576L35.3145 38.6185V40.0681L35.3962 40.1819C35.4112 40.202 35.4253 40.2228 35.4399 40.2433C36.1498 41.233 36.7395 42.1021 36.3278 43.1029C36.683 43.7929 37.4452 45.2805 37.6313 46.9325C38.0896 46.2531 38.3571 45.347 38.4491 44.2456" fill="#FCD21F"/>
<path fill-rule="evenodd" clip-rule="evenodd" d="M42.6513 46.1373C41.9076 44.6728 40.6773 42.7931 38.8792 41.6896C39.0597 42.7706 39.0987 43.7377 39.0114 44.5923C38.8762 45.9029 38.4388 46.9455 37.7268 47.7084C37.6895 49.1478 37.7606 50.0501 37.1371 51.6493C38.6682 50.8544 39.281 48.3593 39.679 45.6395C39.6841 45.6054 39.8356 44.1647 39.8403 44.1307C39.8403 44.1307 40.7462 47.7719 40.8844 49.3008C40.9606 50.143 40.9859 50.9567 40.8943 51.7175C42.0655 50.5041 42.6415 48.6674 42.6513 46.1373" fill="#FCD21F"/>
<path fill-rule="evenodd" clip-rule="evenodd" d="M34.0397 34.9553C34.8549 34.9553 35.7321 34.4136 35.7339 33.5944L31.9796 32.5659C32.5244 33.9498 33.3734 34.9553 34.0397 34.9553" fill="#FCD21F"/>
<path fill-rule="evenodd" clip-rule="evenodd" d="M69.5895 53.9257C70.4171 54.3746 72.4198 54.3746 72.493 54.1725C72.048 53.7173 70.0226 51.8483 69.6173 51.5346C69.4753 52.179 69.4676 52.9735 69.5895 53.9257" fill="#FCD21F"/>
<path fill-rule="evenodd" clip-rule="evenodd" d="M34.7439 38.7524C34.2984 37.8518 33.8375 36.5147 33.7686 35.4926C32.7424 35.2782 31.7342 33.7242 31.2331 32.3087C30.2694 31.9635 29.4525 31.6054 28.7773 31.2325L34.7439 39.295V38.7524Z" fill="#FCD21F"/>
<path fill-rule="evenodd" clip-rule="evenodd" d="M33.1822 38.1443L28.0527 31.2133C28.0527 31.2133 26.869 30.7824 24.77 31.6208C22.7117 32.443 22.4524 34.803 23.1995 36.5975C23.2975 36.3865 23.3994 36.2394 23.565 36.0694C23.9368 35.6883 24.4632 35.4701 25.1765 35.4935C26.5583 35.5353 27.4805 35.9811 28.3723 36.4116C28.8024 36.6201 29.2106 36.8153 29.6689 36.9717C29.6689 36.9717 32.308 37.8037 33.1822 38.1443" fill="#FCD21F"/>
<path fill-rule="evenodd" clip-rule="evenodd" d="M32.0979 38.3499C31.3957 38.1445 29.7923 37.6159 29.7923 37.6159C29.4191 37.9718 24.3007 38.1594 22.9296 37.9599C21.5585 37.7592 20.5238 37.1637 18.9456 36.4289C20.5999 39.0306 23.4546 40.3621 27.4357 40.4078C27.9907 38.829 29.948 38.3026 32.0979 38.3499" fill="#FCD21F"/>
<path fill-rule="evenodd" clip-rule="evenodd" d="M43.6556 33.9253C43.5772 33.8993 43.4917 33.8695 43.4039 33.8379H43.4031L43.4005 33.8375C40.2257 32.7204 31.3779 28.7756 30.6102 28.7138C29.8211 28.6499 29.0495 29.9124 28.937 30.6698C31.1673 31.9335 34.4192 32.9339 40.2745 33.936C41.5326 34.1018 42.7817 34.1704 43.6556 33.9253" fill="#FCD21F"/>
<path fill-rule="evenodd" clip-rule="evenodd" d="M55.0779 89.2995L51.8573 87.5758L51.5266 89.9107L51.4341 90.5479C56.3844 91.4392 58.9896 93.9138 59.2408 96.062C59.7608 96.0761 60.237 96.123 60.6701 96.2074C60.6342 95.2795 59.4783 92.4088 58.9832 91.4076L55.0779 89.2995Z" fill="#FCD21F"/>
<path fill-rule="evenodd" clip-rule="evenodd" d="M81.0788 102.293C81.1344 101.619 79.5734 100.041 79.5734 100.041L78.1522 99.6986C78.1522 99.6986 78.7611 100.632 78.7907 101.622C78.8206 102.611 78.4714 103.612 78.4714 103.612C79.1523 103.536 81.0232 102.966 81.0788 102.293" fill="#FCD21F"/>
<path fill-rule="evenodd" clip-rule="evenodd" d="M79.9918 99.8564C79.9918 99.8564 81.7942 101.599 81.6483 102.323C81.5019 103.046 80.8211 103.536 79.6678 103.9C78.8483 104.158 77.8008 104.217 77.8008 104.217C77.8008 104.217 78.2398 102.787 78.2775 101.668C78.3096 100.739 77.5637 99.5998 77.2286 99.2141C76.8936 98.8279 75.9252 98.6596 75.1031 98.7235C75.1031 98.7235 76.1858 100.052 76.3873 100.913C76.6449 102.015 76.4537 103.123 75.6547 103.409C74.8562 103.696 72.2998 101.24 71.5847 101.335C71.3284 101.37 71.1426 101.493 71.0074 101.636C71.0177 101.636 71.028 101.636 71.0382 101.636C70.9655 101.699 70.9047 101.769 70.8516 101.844C70.7652 101.987 70.7198 102.119 70.7019 102.182C70.6984 102.195 70.6933 102.206 70.6912 102.219C69.0039 102.286 67.2481 102.288 66.9648 102.04C66.4474 101.589 67.1355 100.547 67.56 100.077C67.9319 99.6646 68.3911 99.3432 68.3911 99.3432C67.8305 99.0709 67.5446 98.8019 67.2023 98.157C67.2023 98.157 67.0679 99.3565 65.9313 100.116C64.6103 101 63.683 100.821 63.683 100.821C63.683 100.821 63.1237 102.465 63.0531 102.944C62.9825 103.426 63.2991 104.065 63.8409 104.126C64.3818 104.186 68.2353 103.314 69.3372 103.44C70.3262 103.552 76.7523 106.298 78.2458 106.26C78.9446 106.242 80.795 105.602 81.4069 105.151C82.0176 104.7 83.2577 103.565 83.2059 102.65C83.1537 101.734 82.196 100.561 82.196 100.561C81.9234 100.053 80.6807 99.7938 79.9918 99.8564" fill="#FCD21F"/>
<path fill-rule="evenodd" clip-rule="evenodd" d="M64.6141 96.3164C64.6342 95.2611 64.104 94.1836 63.8528 93.8861L59.8012 91.8235C60.3977 93.1981 61.2476 95.507 61.2476 96.3467C61.2476 96.3467 62.3623 96.6382 63.032 97.4251C63.442 97.9071 63.6799 98.5175 63.7531 99.2421C64.1806 98.5333 64.5931 97.4775 64.6141 96.3164" fill="#FCD21F"/>
<path fill-rule="evenodd" clip-rule="evenodd" d="M60.681 107.415C59.2363 105.646 57.7843 104.668 56.3674 103.362C54.8201 101.935 53.354 100.59 51.9752 99.4156L51.8789 100.779C55.7782 103.23 59.6864 109.415 59.817 118.281C60.841 116.465 62.0388 114.496 62.064 112.039C62.0786 110.636 61.5013 108.393 60.681 107.415" fill="#FCD21F"/>
<path fill-rule="evenodd" clip-rule="evenodd" d="M63.9549 108.945C63.15 108.998 62.467 108.914 61.7566 108.328C63.8963 113.17 61.5529 116.576 60.2516 118.641C61.2525 118.485 62.2505 118.049 62.8735 117.37C63.9759 116.167 64.4145 114.235 64.177 111.625L64.1586 111.431L64.3349 111.345C65.4236 110.883 66.8409 109.798 66.8828 108.406C66.8969 107.942 66.8593 107.516 66.6894 106.909C66.3453 108.328 64.5716 108.906 63.9549 108.945" fill="#FCD21F"/>
<path fill-rule="evenodd" clip-rule="evenodd" d="M52.0249 98.7093C53.5038 99.9517 55.0837 101.404 56.7552 102.944C58.3706 104.434 60.1251 105.974 61.7932 107.748C64.2259 109.869 66.4516 107.083 66.3861 106.434C66.0849 106.715 65.3279 107.067 64.4613 106.96L64.3924 106.951C63.071 106.623 61.9686 105.481 60.996 104.474C60.4405 103.898 59.9146 103.354 59.3998 103.002C56.394 103.002 52.5525 97.5806 52.2217 95.9324L52.0249 98.7093Z" fill="#FCD21F"/>
<path fill-rule="evenodd" clip-rule="evenodd" d="M51.3451 91.159L51.1029 92.9001L48.7951 109.179C51.3049 114.435 52.6344 120.789 47.8733 128.01V128.983C47.8742 128.983 47.8754 128.983 47.8767 128.983V129.966C47.9041 129.937 47.9341 129.905 47.964 129.871C48.0055 129.825 48.0539 129.774 48.1044 129.721C48.2015 129.615 48.3115 129.497 48.4288 129.37V129.37C48.8297 128.938 49.3129 128.412 49.6411 127.975C50.835 126.385 51.1119 126.162 51.4003 125.645C53.3281 120.331 54.757 114.001 50.8949 107.26L50.8521 107.185L51.8903 92.485L52.3743 93.7837C52.7829 94.7282 53.6632 96.3163 54.6324 96.6096C54.7522 96.6454 54.8716 96.6688 54.9906 96.6863C54.9915 96.6884 54.9923 96.6901 54.9927 96.6919C55.689 96.7741 56.3814 96.5721 57.1054 96.379C57.6117 96.2443 58.1333 96.1109 58.6618 96.0713C58.3306 93.4414 54.8716 91.8252 51.3451 91.159" fill="#FCD21F"/>
<path fill-rule="evenodd" clip-rule="evenodd" d="M94.6507 86.2382C94.6379 86.2373 93.913 86.1649 93.6579 86.1086C92.624 85.8818 91.4905 85.3806 90.528 84.7839C91.0505 93.3068 90.7258 99.187 89.4775 103.752L89.4724 103.751L91.2243 112.028C93.2355 106.27 95.3178 98.8409 94.8236 90.922C94.8236 89.2422 94.759 87.6925 94.6507 86.2382" fill="#FCD21F"/>
<path fill-rule="evenodd" clip-rule="evenodd" d="M45.1077 8.65228H49.9502L48.0758 5.26929L51.3598 7.20651V2.46726L48.072 4.42067L49.9506 1.03087H45.1274L46.9868 4.41641L43.7076 2.46726V7.19841L46.9928 5.27143L45.1077 8.65228Z" fill="#FCD21F"/>
<path fill-rule="evenodd" clip-rule="evenodd" d="M83.6344 102.026C83.7979 101.772 83.9571 101.44 84.0833 101.128L83.0054 100.868C83.2497 101.114 83.6344 102.026 83.6344 102.026" fill="#FCD21F"/>
<path fill-rule="evenodd" clip-rule="evenodd" d="M72.2246 94.8458C71.7039 95.6118 71.3397 96.4911 71.1715 97.4373L74.2081 98.1845C75.3365 98.0421 76.5848 98.2782 77.2387 98.6128C77.8232 98.9112 77.8771 99.054 77.8771 99.054L79.2183 99.3596C80.5217 99.1597 82.0747 99.6435 82.6237 100.189L84.2751 100.596C84.4689 99.9687 84.5733 99.302 84.5733 98.612C84.5733 98.3337 84.5545 98.0609 84.5216 97.7923L72.2246 94.8458Z" fill="#FCD21F"/>
<path fill-rule="evenodd" clip-rule="evenodd" d="M85.5818 91.2029C85.5874 90.8116 85.4325 84.5887 85.4012 82.8684C84.1281 82.6097 83.2428 82.2146 81.7732 80.8285C81.7703 80.8242 81.8511 81.4644 81.8704 81.7657L81.4934 81.8309C81.5974 82.9438 81.6192 83.9242 81.671 85.1065C81.6817 85.3465 81.6872 85.5946 81.6894 85.8469L82.0163 85.9053L82.2269 85.9428L82.0916 86.1082L81.6046 86.7062L82.3193 86.4389L82.5281 86.3605L82.4883 86.5783L81.9205 89.7141L81.8811 89.9319L81.7138 89.787L81.5323 89.631C81.4395 90.7707 81.3286 91.7016 81.2696 92.0992C83.1841 93.1077 84.601 94.9273 85.0559 97.0998C85.1672 96.5546 85.2536 95.9856 85.3246 95.4051C85.4902 94.045 85.5596 92.6112 85.5818 91.2029" fill="#FCD21F"/>
<path fill-rule="evenodd" clip-rule="evenodd" d="M89.9199 84.363C89.4291 83.982 89.1329 83.7932 88.2724 82.7378C87.9056 82.8853 86.8307 82.9637 86.0343 82.9002C86.0549 84.1073 86.1618 89.4637 86.1618 89.4803C86.173 91.6153 86.1246 93.9234 85.8191 96.0281C85.6774 97.0054 85.481 97.9393 85.2089 98.7901C85.2011 99.1225 85.1708 99.4507 85.1203 99.77L85.4198 101.189L86.8136 107.789C86.8136 107.789 88.1337 105.425 88.9263 103.561C89.7201 101.699 90.7291 94.3189 89.9199 84.363" fill="#FCD21F"/>
<path fill-rule="evenodd" clip-rule="evenodd" d="M51.5256 105.763L51.4345 107.054C54.7535 112.903 54.2212 118.423 52.788 123.265C57.3639 119.977 54.0166 110.569 51.5256 105.763" fill="#FCD21F"/>
<path fill-rule="evenodd" clip-rule="evenodd" d="M33.3125 108.328C32.6022 108.914 31.9188 108.998 31.1134 108.945C30.4972 108.906 28.7234 108.328 28.3794 106.909C28.2095 107.516 28.1727 107.942 28.1864 108.406C28.2283 109.798 29.6456 110.883 30.7338 111.345L30.9097 111.431L30.8917 111.625C30.6542 114.235 31.0929 116.167 32.1961 117.37C32.8187 118.049 33.8162 118.486 34.8171 118.641C33.5158 116.576 31.1725 113.17 33.3125 108.328" fill="#FCD21F"/>
<path fill-rule="evenodd" clip-rule="evenodd" d="M43.1903 100.779L43.0936 99.4151C41.7148 100.59 40.2492 101.935 38.7018 103.362C37.2849 104.668 35.833 105.646 34.3879 107.415C33.5675 108.393 32.9898 110.635 33.0048 112.039C33.0309 114.496 34.2282 116.465 35.2519 118.281C35.3819 109.414 39.2915 103.23 43.1903 100.779" fill="#FCD21F"/>
<path fill-rule="evenodd" clip-rule="evenodd" d="M43.3791 103.446L43.237 101.436C39.5016 103.959 35.8313 110.221 35.8094 118.868L35.8172 118.887C36.5635 120.867 37.4424 122.516 38.7925 123.693C36.1633 113.49 39.2149 105.845 43.3791 103.446" fill="#FCD21F"/>
<path fill-rule="evenodd" clip-rule="evenodd" d="M43.5682 90.5481L43.4347 89.6338L43.1625 87.7712L40.4268 89.1637L36.0183 91.4078C35.5236 92.409 34.3686 95.2797 34.3322 96.2076C34.7644 96.1232 35.242 96.0759 35.7615 96.0622C36.0131 93.914 38.6175 91.4389 43.5682 90.5481" fill="#FCD21F"/>
<path fill-rule="evenodd" clip-rule="evenodd" d="M31.1496 93.886C30.898 94.1836 30.3687 95.2611 30.3879 96.3164C30.4089 97.4779 30.8223 98.5332 31.2485 99.242C31.3221 98.5175 31.56 97.9071 31.97 97.425C32.6393 96.6386 33.7544 96.3467 33.7544 96.3467C33.7544 95.507 34.6043 93.1981 35.2004 91.8235L31.1496 93.886Z" fill="#FCD21F"/>
<path fill-rule="evenodd" clip-rule="evenodd" d="M43.4668 104.686L43.424 104.079C39.4652 106.525 36.7183 114.208 39.5354 124.254C40.4721 124.876 41.604 125.315 43.0209 125.527C42.8553 125.06 42.6931 124.585 42.5386 124.102C36.4252 120.76 40.8983 109.459 43.4668 104.686" fill="#FCD21F"/>
<path fill-rule="evenodd" clip-rule="evenodd" d="M33.2751 107.748C34.9445 105.974 36.6977 104.434 38.3131 102.944C39.9846 101.404 41.5649 99.9516 43.0439 98.7092L42.8474 95.9323C42.5171 97.5809 38.6751 103.002 35.6685 103.002C35.1546 103.354 34.6286 103.899 34.0728 104.474C33.1001 105.482 31.9973 106.623 30.6767 106.951L30.6074 106.961C29.7413 107.067 28.9847 106.715 28.6834 106.434C28.618 107.083 30.8432 109.869 33.2751 107.748" fill="#FCD21F"/>
<path fill-rule="evenodd" clip-rule="evenodd" d="M50.7627 89.885L51.1889 86.883C50.0459 87.3123 48.8088 87.548 47.5177 87.548C46.2095 87.548 44.957 87.3054 43.8016 86.8656L44.2047 89.6246L44.6587 92.7284L47.5511 112.512L50.3908 92.505L50.7627 89.885Z" fill="#FFFFFE"/>
<path fill-rule="evenodd" clip-rule="evenodd" d="M51.6454 104.078L51.6021 104.685C54.1701 109.459 58.6433 120.76 52.5303 124.102C52.3754 124.585 52.2141 125.06 52.0476 125.527C53.4645 125.315 54.5968 124.875 55.5339 124.254C58.3506 114.209 55.6041 106.525 51.6454 104.078" fill="#FCD21F"/>
<path fill-rule="evenodd" clip-rule="evenodd" d="M48.6478 110.211L47.8737 115.674V126.941C51.6844 120.627 50.7596 114.964 48.6478 110.211" fill="#FCD21F"/>
<path fill-rule="evenodd" clip-rule="evenodd" d="M29.071 100.116C27.934 99.3561 27.8001 98.1567 27.8001 98.1567C27.4569 98.802 27.1715 99.0705 26.6105 99.3429C26.6105 99.3429 27.0696 99.6647 27.4419 100.077C27.8664 100.547 28.5545 101.589 28.0376 102.04C27.5202 102.492 22.1005 102.111 21.1433 102.032C20.1864 101.953 17.4442 101.442 17.0043 101.48C16.5644 101.517 15.5074 101.98 14.9824 102.407C14.456 102.834 14.3567 103.664 14.4864 104.043C14.6152 104.422 14.78 104.438 15.0577 104.336C15.3363 104.233 15.5383 103.958 15.5383 103.958C15.5383 103.958 16.2413 102.591 16.7484 102.491C17.395 102.364 19.1547 104.032 19.7157 104.283C20.2767 104.535 22.6894 104.537 23.276 104.374C23.8632 104.21 24.6758 103.552 25.6643 103.44C26.7667 103.314 30.6206 104.186 31.1615 104.125C31.7024 104.065 32.0195 103.426 31.9489 102.945C31.8783 102.464 31.3198 100.821 31.3198 100.821C31.3198 100.821 30.3925 101 29.071 100.116" fill="#FCD21F"/>
<path fill-rule="evenodd" clip-rule="evenodd" d="M47.1924 126.954V115.33L46.4367 110.166C44.3094 114.932 43.3607 120.616 47.1924 126.954" fill="#FCD21F"/>
<path fill-rule="evenodd" clip-rule="evenodd" d="M46.288 109.145L43.9575 93.2131L43.6575 91.1591C40.1301 91.8249 36.6716 93.4416 36.3399 96.0714C36.8684 96.1111 37.3901 96.244 37.8967 96.3787C38.6443 96.5791 39.3585 96.7905 40.0779 96.6865C40.1973 96.669 40.3167 96.6455 40.4365 96.6097C41.4066 96.3165 42.2851 94.7284 42.6951 93.7838L43.1786 92.4847L44.2172 107.185L44.1736 107.26C40.3128 114 41.7408 120.331 43.6686 125.645C43.9575 126.162 44.2343 126.385 45.4283 127.975C45.872 128.566 46.5965 129.317 47.018 129.779C47.0488 129.811 47.0788 129.842 47.1049 129.871C47.1353 129.906 47.1648 129.937 47.1922 129.966V128.983V128.022C42.4122 120.78 43.7649 114.41 46.288 109.145" fill="#FCD21F"/>
<path fill-rule="evenodd" clip-rule="evenodd" d="M51.8323 101.436L51.6907 103.446C55.8536 105.844 58.906 113.49 56.2764 123.694C57.6265 122.516 58.5063 120.867 59.2522 118.887L59.259 118.868C59.2381 110.221 55.5677 103.96 51.8323 101.436" fill="#FCD21F"/>
<path fill-rule="evenodd" clip-rule="evenodd" d="M42.2806 123.265C40.8475 118.423 40.3147 112.903 43.6346 107.054L43.5435 105.763C41.0525 110.569 37.7048 119.977 42.2806 123.265" fill="#FCD21F"/>
<path fill-rule="evenodd" clip-rule="evenodd" d="M34.9318 40.5131L34.8004 40.3311L33.8812 39.0878C31.398 38.6919 28.3883 38.8982 27.9181 40.7702C27.6014 42.0356 27.6694 43.2346 28.1282 44.4157C28.9857 42.4989 29.9914 41.4044 32.0831 41.4014H32.0916C33.5436 41.4014 34.8946 41.8472 35.8792 42.6358C35.9858 42.0501 35.6216 41.4773 34.9814 40.583C34.9647 40.5592 34.9489 40.5374 34.9318 40.5131" fill="#FCD21F"/>
<path fill-rule="evenodd" clip-rule="evenodd" d="M63.087 32.5657C61.9988 32.922 60.7488 33.2643 59.3324 33.5946C59.3345 34.4138 60.2117 34.9551 61.0261 34.9551C61.6924 34.9551 62.5414 33.9496 63.087 32.5657" fill="#FCD21F"/>
<path fill-rule="evenodd" clip-rule="evenodd" d="M61.186 39.0876L60.266 40.3309L60.135 40.5129C60.1179 40.5368 60.1029 40.5585 60.0862 40.5811C60.0871 40.5811 60.0884 40.582 60.0888 40.5833C59.4486 41.4771 59.0853 42.0499 59.191 42.636C60.1487 41.8684 61.4543 41.4293 62.8609 41.4059V41.405C62.899 41.4046 62.9367 41.4016 62.9748 41.4016H62.9769H62.9786H62.9872V41.4021C65.0763 41.4059 66.0811 42.5 66.9378 44.4155C67.397 43.2348 67.465 42.0359 67.1479 40.77C66.6785 38.8984 63.6684 38.6921 61.186 39.0876" fill="#FCD21F"/>
<path fill-rule="evenodd" clip-rule="evenodd" d="M59.5398 40.37C59.5394 40.3683 59.5381 40.3678 59.5372 40.3674C59.5809 40.306 59.6258 40.2442 59.6699 40.182L59.7516 40.0686V38.6182L59.7811 38.5576C60.2159 37.6975 60.6498 36.4274 60.7256 35.5041C60.18 35.4513 59.6566 35.2092 59.2882 34.8337C59.2398 34.9215 59.1795 35.0089 59.1012 35.0984C58.0639 36.2888 54.8501 37.0987 52.0712 37.5121L52.0819 37.5125C52.0819 37.5125 49.7941 41.3716 49.0932 42.2126C49.323 42.1017 49.5511 41.9892 49.777 41.8767C50.5152 41.5097 51.2778 41.1295 52.0365 40.8776L52.4122 40.754V44.9536C53.2985 43.4597 54.6207 41.8047 56.4501 40.893L56.9731 40.6334L56.858 41.2033C56.6235 42.3677 56.611 43.4337 56.6209 44.2457C56.659 45.3573 56.9799 46.2532 57.4391 46.9326C57.6239 45.2806 58.3874 43.7926 58.7417 43.103C58.348 42.1452 58.8718 41.3068 59.5398 40.37" fill="#FCD21F"/>
<path fill-rule="evenodd" clip-rule="evenodd" d="M56.0912 44.8528C56.0801 44.8597 55.9359 43.3781 56.1879 41.6898C54.3889 42.7929 53.159 44.6725 52.4153 46.1375C52.4247 48.6672 53.0007 50.5042 54.1724 51.7173C54.0795 50.9475 54.1762 49.6351 54.2635 48.8019C54.5053 47.0044 54.9657 45.0804 55.2293 44.1304C55.2345 44.1645 55.386 45.6056 55.3911 45.6397C55.7891 48.359 56.4374 51.121 58.0284 51.7126C57.4404 50.2246 57.381 49.148 57.3442 47.7086C56.6689 46.9853 56.1468 45.6946 56.0912 44.8528" fill="#FCD21F"/>
<path fill-rule="evenodd" clip-rule="evenodd" d="M50.7449 59.3286L51.6889 65.6607C51.6889 65.6607 53.0206 61.5948 53.0189 61.5927C52.4818 61.0527 51.231 59.8669 50.7449 59.3286" fill="#FCD21F"/>
<path fill-rule="evenodd" clip-rule="evenodd" d="M62.9682 38.3499C65.1185 38.3026 67.0759 38.829 67.63 40.4078C71.6119 40.3621 74.4666 39.0306 76.1201 36.4289C74.5424 37.1637 73.5081 37.7592 72.1361 37.9599C70.7655 38.1594 65.647 37.9718 65.2734 37.6159C65.2734 37.6159 63.6704 38.1445 62.9682 38.3499" fill="#FCD21F"/>
<path fill-rule="evenodd" clip-rule="evenodd" d="M55.0709 47.1966C54.9169 48.0376 54.7953 48.832 54.7337 49.6312C54.5818 52.0838 55.0709 53.1813 55.0709 53.1813L54.4273 52.6992C52.8757 51.5373 52.0352 49.6866 51.8713 47.0606C51.8028 47.1753 50.151 49.8831 49.4976 50.8115L49.813 52.9136L50.617 58.2654C51.1635 58.8834 51.8636 59.4695 52.4636 60.0922L52.8277 52.134L53.3853 53.3535C54.575 56.5204 56.513 58.6366 58.891 59.3944C58.3193 58.5364 55.8468 54.1032 55.8468 54.1032L56.7403 54.6965C58.1601 55.6398 59.3232 56.0221 59.9882 56.0562C61.2442 56.1197 62.4403 55.546 62.4403 55.546C60.643 55.1739 59.5732 54.1548 58.8072 53.1587C58.6921 53.0099 58.4366 52.5526 58.3514 52.4307C56.264 51.9763 55.5464 49.7033 55.0709 47.1966" fill="#FCD21F"/>
<path fill-rule="evenodd" clip-rule="evenodd" d="M60.1649 60.2689C60.1649 60.2689 58.6933 60.011 57.7767 59.5541C56.0021 58.6696 54.4863 57.0862 53.4041 54.8464L53.019 61.5927L55.0803 65.0823L55.2985 64.9693V60.0954L59.1846 62.9903L63.1463 61.0604C64.3389 60.4743 65.9039 59.3968 66.2856 59.0469C67.4859 58.0414 68.9627 56.7968 69.2216 55.6097C69.3697 54.7543 68.3426 51.4821 69.7668 49.9042C70.4198 49.1809 71.3895 48.776 72.7139 48.7543C73.1025 48.3353 73.4465 47.7394 73.5244 47.3609C72.6206 47.2211 71.8012 47.2343 71.0677 47.3963C71.0668 47.3946 69.7788 47.603 68.8878 48.4938C67.889 49.4925 67.2613 50.7486 67.0096 52.543C66.8727 53.5161 66.1568 54.6831 65.5628 55.4009C64.4545 56.648 63.2524 57.1749 63.0436 57.2456C62.3675 57.4741 61.6777 57.4008 61.2099 57.2959C60.3866 57.0696 58.3997 56.3454 57.303 55.7005C57.4484 55.9699 60.1649 60.2689 60.1649 60.2689" fill="#FCD21F"/>
<path fill-rule="evenodd" clip-rule="evenodd" d="M58.8689 25.4109C59.1419 24.7766 59.364 24.1207 59.5159 23.4421L58.5287 24.7506C58.6943 24.936 58.8132 25.1615 58.8689 25.4109" fill="#FCD21F"/>
<path fill-rule="evenodd" clip-rule="evenodd" d="M57.438 24.8966C56.9805 24.8966 56.6091 25.2674 56.6091 25.7235C56.6091 26.1774 56.9805 26.5478 57.438 26.5478C57.8954 26.5478 58.2677 26.1774 58.2677 25.7235C58.2677 25.2674 57.8954 24.8966 57.438 24.8966" fill="#FCD21F"/>
<path fill-rule="evenodd" clip-rule="evenodd" d="M59.6603 22.6672C59.7168 22.2615 59.748 21.8472 59.748 21.4265C59.7596 21.2943 59.7621 21.1712 59.7707 21.0424L58.1921 22.2998L59.6603 22.6672Z" fill="#FCD21F"/>
<path fill-rule="evenodd" clip-rule="evenodd" d="M54.7828 33.9253C60.639 32.9228 63.8985 31.9335 66.1289 30.6698C66.0172 29.9124 64.8657 28.7215 64.365 28.7317C63.8635 28.7423 54.3232 32.9445 51.3975 33.9253C52.2949 34.1474 53.4242 34.155 54.7828 33.9253" fill="#FCD21F"/>
<path fill-rule="evenodd" clip-rule="evenodd" d="M61.2974 35.4926C61.2285 36.5147 60.7676 37.8517 60.3222 38.7524V39.2949L66.2896 31.2324C65.6135 31.6049 64.7962 31.9634 63.8337 32.3086C63.3314 33.7241 62.324 35.2786 61.2974 35.4926" fill="#FCD21F"/>
<path fill-rule="evenodd" clip-rule="evenodd" d="M56.5605 26.8881C56.5109 27.0262 56.4441 27.1566 56.3615 27.2755C56.7257 27.6084 56.9563 28.0832 56.9563 28.6143C56.9563 28.6412 56.9529 28.6689 56.9521 28.6957C57.2923 28.2213 57.6196 27.7303 57.9256 27.2227C57.9598 27.1711 57.9945 27.114 58.03 27.0556C57.849 27.1357 57.6491 27.1813 57.4378 27.1813C57.1087 27.1813 56.8048 27.0718 56.5605 26.8881" fill="#FCD21F"/>
<path fill-rule="evenodd" clip-rule="evenodd" d="M65.3978 36.9717C65.8552 36.8153 66.2639 36.6201 66.694 36.4117C67.5858 35.9808 68.508 35.5353 69.8889 35.4936C70.6031 35.4697 71.1359 35.6449 71.5604 36.0063C71.726 36.1478 71.8051 36.2425 71.9031 36.4534C72.4753 34.2767 72.2266 32.2815 70.2967 31.6209C68.3663 30.9606 67.0136 31.2134 67.0136 31.2134L61.8841 38.1443C62.7587 37.8037 65.3978 36.9717 65.3978 36.9717" fill="#FCD21F"/>
<path fill-rule="evenodd" clip-rule="evenodd" d="M70.4671 99.6705C70.4577 99.6462 70.4509 99.6198 70.4397 99.5963L70.4997 99.6198C70.4534 99.2907 70.4278 98.9544 70.4278 98.6122C70.4278 98.2375 70.4783 97.6979 70.5805 97.163L70.5493 96.9443C70.0033 96.6536 69.6006 96.4503 69.2779 96.1166C67.995 94.8294 67.3719 93.2485 66.5567 91.8304C65.5147 90.0155 64.5228 88.3004 62.6771 86.8772C62.669 86.8738 62.6617 86.8704 62.6545 86.867C61.9265 86.5639 61.2004 86.2946 60.487 86.0495L61.0086 87.2199L61.4464 88.0621C63.432 89.6711 66.5867 92.7549 67.6599 97.8138C67.8405 98.6642 69.5912 99.3683 70.4671 99.6705" fill="#FCD21F"/>
<path fill-rule="evenodd" clip-rule="evenodd" d="M63.1357 63.5019C63.8995 65.1433 64.639 67.0507 65.1829 68.9274C65.4765 69.2206 66.2283 69.7377 67.2956 69.4563L67.1565 68.7573C66.4829 66.4182 65.1897 63.611 64.0728 61.6943L63.1357 63.5019Z" fill="#FCD21F"/>
<path fill-rule="evenodd" clip-rule="evenodd" d="M58.225 23.5555C58.225 23.5555 57.4277 24.263 57.438 24.263C57.6661 24.263 57.8805 24.3163 58.0731 24.4088L59.0573 23.1028L56.9365 22.5717L59.8032 20.2889V20.285C59.804 20.178 59.8015 20.0749 59.7993 19.9713L55.2783 22.8488L58.225 23.5555Z" fill="#FCD21F"/>
<path fill-rule="evenodd" clip-rule="evenodd" d="M64.4104 61.0435L64.3993 61.0644C65.6552 62.9948 66.9022 65.8181 67.6922 68.5588C68.477 69.3128 69.6106 69.5595 70.7724 69.5711C70.7916 69.4837 70.6569 68.9138 70.6128 68.7416C69.6225 65.2964 68.7637 62.6943 66.6176 60.7784C66.4251 60.7873 65.716 60.8939 65.0099 60.7132C64.8041 60.8265 64.6051 60.9356 64.4104 61.0435" fill="#FCD21F"/>
<path fill-rule="evenodd" clip-rule="evenodd" d="M63.1039 92.6511L60.1764 87.3867C58.6556 84.4249 57.1163 81.3194 57.0996 81.3577C56.7098 82.2217 56.2035 83.0226 55.6032 83.7425C54.565 84.9879 53.2431 85.9917 51.7454 86.6545L55.613 88.7238L63.1039 92.6511Z" fill="#FFFFFE"/>
<path fill-rule="evenodd" clip-rule="evenodd" d="M39.5903 15.7917L38.894 14.1068C38.5149 14.259 38.1601 14.4295 37.8418 14.6285L38.6809 16.6335L39.5903 15.7917Z" fill="#FCD21F"/>
<path fill-rule="evenodd" clip-rule="evenodd" d="M69.9423 58.8944C71.2599 59.8568 71.8008 59.7596 72.1158 59.694C72.3229 59.6509 72.7145 59.4144 72.5784 59.0244C72.2373 58.2746 70.802 56.7176 69.7682 55.7833C69.6235 56.0505 69.4712 56.6281 68.825 57.3233C69.1905 57.9264 69.689 58.524 69.9423 58.8944" fill="#FCD21F"/>
<path fill-rule="evenodd" clip-rule="evenodd" d="M66.8564 59.312C66.9176 59.3632 67.0246 59.4876 67.1555 59.607C67.5424 59.9739 68.714 59.8533 68.714 59.8533C68.9104 59.8214 69.676 59.6364 69.5031 59.2562C69.3213 58.8564 68.9892 58.3313 68.4705 57.7252C67.8984 58.2575 67.381 58.8777 66.8564 59.312" fill="#FCD21F"/>
<path fill-rule="evenodd" clip-rule="evenodd" d="M77.8205 91.8855C75.7125 91.8855 73.83 92.848 72.592 94.3551L84.4208 97.1891C83.7652 94.1578 81.0599 91.8855 77.8205 91.8855" fill="#FCD21F"/>
<path fill-rule="evenodd" clip-rule="evenodd" d="M86.4419 59.6373C85.3887 59.5904 84.823 59.2869 84.1871 58.9336C84.0964 58.8824 84.0027 58.83 83.9055 58.7788C83.7301 59.1488 83.5024 59.3883 83.2123 59.5077C82.5708 59.7715 81.7449 59.4143 80.5484 58.8236C80.4988 59.1117 80.3794 59.4092 80.0995 59.6104C80.0619 59.6368 80.0178 59.653 79.978 59.6748C81.7873 61.6648 83.0557 64.7431 84.4871 68.5399C86.7919 70.3527 88.6328 70.3544 90.2744 69.9942C89.8169 66.6743 88.632 63.4648 86.4508 59.6526C86.4474 59.6479 86.4449 59.6424 86.4419 59.6373" fill="#FCD21F"/>
<path fill-rule="evenodd" clip-rule="evenodd" d="M84.6835 82.1629C84.885 82.2294 85.4743 82.3454 85.6698 82.3671C85.8795 82.3897 87.299 82.5419 87.7042 82.3134C87.6696 82.1101 87.5057 81.3872 87.4761 81.2559C85.9078 74.4209 84.6321 72.9679 83.1737 70.6036C81.5112 70.5861 80.3708 70.0457 79.3536 69.4097C79.4349 69.703 79.5364 70.4868 79.5364 70.4868C79.5364 70.4868 78.9296 70.4847 78.8067 70.4804C80.1924 72.9653 81.1663 76.3283 81.6619 79.9252C82.9701 81.2235 83.8687 81.8931 84.6835 82.1629" fill="#FCD21F"/>
<path fill-rule="evenodd" clip-rule="evenodd" d="M79.4162 52.0531C81.7518 53.9643 83.6638 56.3388 84.0108 58.1912C84.17 58.2739 84.3215 58.3566 84.4653 58.4367C85.0956 58.7866 85.6014 59.0628 86.64 59.0765C86.9768 59.0688 87.2554 58.9537 87.3418 58.8813C86.7739 55.7809 84.0198 53.1583 81.7565 51.4755C81.2871 52.0045 80.462 52.1967 79.4162 52.0531" fill="#FCD21F"/>
<path fill-rule="evenodd" clip-rule="evenodd" d="M78.2001 51.1714L78.3666 51.2263C79.4411 51.5852 80.7014 51.7191 81.2846 51.1411C78.6563 49.2751 75.8705 47.9981 74.0788 47.4879C73.988 47.915 73.7069 48.423 73.3821 48.8437C74.8691 49.1557 76.5856 50.0248 78.2001 51.1714" fill="#FCD21F"/>
<path fill-rule="evenodd" clip-rule="evenodd" d="M72.128 93.9143C72.2157 93.8082 72.499 93.5218 72.7891 93.2469C72.695 92.9502 72.618 92.7102 72.5799 92.5905C72.2829 91.1792 71.6367 90.0898 70.7081 89.2096C70.5203 89.8724 69.9272 90.7747 69.9272 90.7747C70.6272 91.4857 70.9259 91.8565 71.4155 92.7158C71.5841 93.0073 71.8507 93.5307 72.0848 93.9702C72.0993 93.951 72.1139 93.9305 72.128 93.9143" fill="#FCD21F"/>
<path fill-rule="evenodd" clip-rule="evenodd" d="M78.0722 91.2551C79.0166 91.2866 79.9165 91.4933 80.739 91.8454C80.7955 91.4503 80.8995 90.6349 80.9431 90.2266L78.3764 89.7906L78.0722 91.2551Z" fill="#FCD21F"/>
<path fill-rule="evenodd" clip-rule="evenodd" d="M66.425 59.6638C66.2607 59.7866 65.6821 60.1898 65.6248 60.2218C66.2127 60.3402 66.7451 60.229 66.8722 60.119C66.7511 60.0099 66.5067 59.7337 66.425 59.6638" fill="#FCD21F"/>
<path fill-rule="evenodd" clip-rule="evenodd" d="M45.5247 14.7356L45.7597 16.0561L46.0639 15.1499L45.5247 14.7356Z" fill="#FCD21F"/>
<path fill-rule="evenodd" clip-rule="evenodd" d="M46.3093 19.1531L46.5823 18.0577L45.9455 17.1046L46.3093 19.1531Z" fill="#FCD21F"/>
<path fill-rule="evenodd" clip-rule="evenodd" d="M48.0235 17.7205L48.8485 16.4857L48.4621 15.3328H46.6036L46.2176 16.4857L47.0431 17.7205H48.0235Z" fill="#FCD21F"/>
<path fill-rule="evenodd" clip-rule="evenodd" d="M44.7583 10.4127L44.8863 11.136L45.3694 10.4127H44.7583Z" fill="#FCD21F"/>
<path fill-rule="evenodd" clip-rule="evenodd" d="M46.4845 12.3062H48.5813L49.7551 11.527L49.0114 10.4129H46.0557L45.3111 11.527L46.4845 12.3062Z" fill="#FCD21F"/>
<path fill-rule="evenodd" clip-rule="evenodd" d="M46.7447 25.6651L45.8174 22.4304L44.6825 23.5582C45.3826 24.1941 46.0716 24.8983 46.7447 25.6651" fill="#FCD21F"/>
<path fill-rule="evenodd" clip-rule="evenodd" d="M45.0463 12.0344L45.3013 13.4738L45.9321 12.6243L45.0463 12.0344Z" fill="#FCD21F"/>
<path fill-rule="evenodd" clip-rule="evenodd" d="M42.1641 13.4101C41.8996 13.4284 41.648 13.4591 41.3973 13.4907L41.5586 13.9706L42.1641 13.4101Z" fill="#FCD21F"/>
<path fill-rule="evenodd" clip-rule="evenodd" d="M40.9571 17.6044L41.8681 16.6961L41.2968 14.9886L40.2685 15.94L40.9571 17.6044Z" fill="#FCD21F"/>
<path fill-rule="evenodd" clip-rule="evenodd" d="M41.0993 14.3962L40.8246 13.5753C40.3269 13.661 39.8583 13.7684 39.4283 13.9065L40.0368 15.3791L41.0993 14.3962Z" fill="#FCD21F"/>
<path fill-rule="evenodd" clip-rule="evenodd" d="M44.5425 22.8931L45.6376 21.8054L45.2687 20.5182L44.1287 21.6536L44.5425 22.8931Z" fill="#FCD21F"/>
<path fill-rule="evenodd" clip-rule="evenodd" d="M50.3085 10.4127H49.6965L50.1801 11.136L50.3085 10.4127Z" fill="#FCD21F"/>
<path fill-rule="evenodd" clip-rule="evenodd" d="M43.9269 21.0504L45.0888 19.8928L44.5949 18.1708L43.3313 19.2701L43.9269 21.0504Z" fill="#FCD21F"/>
<path fill-rule="evenodd" clip-rule="evenodd" d="M43.1363 18.6857L44.4213 17.5664L43.8398 15.5371L42.5222 16.8499L43.1363 18.6857Z" fill="#FCD21F"/>
<path fill-rule="evenodd" clip-rule="evenodd" d="M42.3203 16.247L43.6597 14.912L43.2164 13.3669C43.156 13.3674 43.1017 13.3733 43.0418 13.3742L41.7571 14.5625L42.3203 16.247Z" fill="#FCD21F"/>
<path fill-rule="evenodd" clip-rule="evenodd" d="M51.7293 19.2702L50.4665 18.171L49.9722 19.8929L51.1345 21.0506L51.7293 19.2702Z" fill="#FCD21F"/>
<path fill-rule="evenodd" clip-rule="evenodd" d="M54.104 17.6044L54.7925 15.94L53.7642 14.9886L53.1929 16.6961L54.104 17.6044Z" fill="#FCD21F"/>
<path fill-rule="evenodd" clip-rule="evenodd" d="M53.6631 13.4906C53.4132 13.4595 53.162 13.4288 52.8967 13.4101L53.5026 13.9706L53.6631 13.4906Z" fill="#FCD21F"/>
<path fill-rule="evenodd" clip-rule="evenodd" d="M53.3043 14.5626L52.0196 13.3743C51.9597 13.3734 51.9054 13.3674 51.8446 13.367L51.4017 14.9117L52.7411 16.2471L53.3043 14.5626Z" fill="#FCD21F"/>
<path fill-rule="evenodd" clip-rule="evenodd" d="M52.5395 16.8501L51.2219 15.5373L50.6395 17.5661L51.9249 18.6859L52.5395 16.8501Z" fill="#FCD21F"/>
<path fill-rule="evenodd" clip-rule="evenodd" d="M57.8781 18.0191L58.7249 16.0491C58.5948 15.862 58.4536 15.6847 58.3008 15.5176C58.1185 15.3194 57.9144 15.1387 57.6966 14.9669L56.8271 17.0456L57.8781 18.0191Z" fill="#FCD21F"/>
<path fill-rule="evenodd" clip-rule="evenodd" d="M56.3801 16.6334L57.2192 14.6284C56.9017 14.4294 56.5461 14.2593 56.1678 14.1067L55.4711 15.7916L56.3801 16.6334Z" fill="#FCD21F"/>
<path fill-rule="evenodd" clip-rule="evenodd" d="M55.6329 13.9066C55.2032 13.7685 54.7346 13.6611 54.237 13.5754L53.9622 14.3963L55.0239 15.3792L55.6329 13.9066Z" fill="#FCD21F"/>
<path fill-rule="evenodd" clip-rule="evenodd" d="M47.539 12.9H47.5275L46.5017 12.9183L45.5868 14.0627L46.4962 14.7647H48.5704L49.4801 14.0627L48.5656 12.9183L47.539 12.9Z" fill="#FCD21F"/>
<path fill-rule="evenodd" clip-rule="evenodd" d="M49.3067 16.0562L49.5416 14.7357L49.0028 15.15L49.3067 16.0562Z" fill="#FCD21F"/>
<path fill-rule="evenodd" clip-rule="evenodd" d="M59.1925 19.2346H59.1977C59.386 19.2197 59.5742 19.215 59.7612 19.2094C59.6752 18.2312 59.4561 17.3788 59.0856 16.6559L58.3221 18.4299L59.1925 19.2346Z" fill="#FCD21F"/>
<path fill-rule="evenodd" clip-rule="evenodd" d="M48.7573 19.1531L49.1211 17.1046L48.4839 18.0577L48.7573 19.1531Z" fill="#FCD21F"/>
<path fill-rule="evenodd" clip-rule="evenodd" d="M49.7643 13.4738L50.0202 12.0344L49.1429 12.6247L49.7643 13.4738Z" fill="#FCD21F"/>
<path fill-rule="evenodd" clip-rule="evenodd" d="M48.3211 25.6651C48.9947 24.8983 50.4394 23.5019 50.3778 23.5582L49.2446 22.4304L48.316 25.6651H48.3211Z" fill="#FCD21F"/>
<path fill-rule="evenodd" clip-rule="evenodd" d="M50.9327 21.6535L49.7922 20.518L49.4234 21.8052L50.518 22.893L50.9327 21.6535Z" fill="#FCD21F"/>
<path fill-rule="evenodd" clip-rule="evenodd" d="M47.5486 69.7138L54.0034 81.1568H41.0347L47.5486 69.7138ZM47.552 68.1968L39.7491 81.9023H55.2842L47.552 68.1968Z" fill="#0B0B09"/>
</svg>
