<svg xmlns="http://www.w3.org/2000/svg" width="187" height="34" viewBox="0 0 187.308 34.316" fill="#004c97" fill-rule="evenodd"><path d="M76.532,13.635H72.126L67.692,7.394l-.015,6.242H64.285L64.319.521H67.71L67.7,6.316,71.878.521H76.1l-5.08,6.192,5.514,6.922ZM92.421,7.079a6.549,6.549,0,0,1-2.079,4.94,7.816,7.816,0,0,1-10.364,0,6.531,6.531,0,0,1-2.045-4.94A6.564,6.564,0,0,1,80,2.139a7.814,7.814,0,0,1,10.363,0,6.511,6.511,0,0,1,2.054,4.94Zm-3.547,0a3.425,3.425,0,0,0-1.063-2.557,3.829,3.829,0,0,0-5.256,0,3.452,3.452,0,0,0-1.073,2.557,3.434,3.434,0,0,0,1.06,2.557,3.591,3.591,0,0,0,2.617,1.044A3.633,3.633,0,0,0,87.8,9.636a3.439,3.439,0,0,0,1.078-2.557Zm22.508,6.556h-3.407l-.958-7.583-3.185,7.583h-1.351L99.45,6.052l-1.1,7.583H94.945L97.22.521h3.339l2.65,7.024L106.022.521h3.395l1.965,13.114Zm14.925,0h-3.391l.026-10.244h-4.957l-.026,10.244h-3.391L114.6.521h11.74l-.034,13.114Zm16.576,0H139.23l-.851-2.5h-4.864l-.856,2.5h-3.652L133.991.521h3.965l4.926,13.114ZM137.5,8.523,135.97,3.981,134.4,8.523Zm19.817,5.113h-3.391l.014-5.375h-4.957l-.014,5.375H145.58L145.614.521h3.391l-.012,5.043h4.957l.012-5.043h3.391l-.034,13.114Zm16.562,0h-3.391l.022-8.467-5.953,8.467h-3.27L161.323.469h3.391l-.022,8.47,5.955-8.47h3.267l-.032,13.166Zm13.393,0h-3.391L183.9,8.87h-.4l-2.847,4.766h-3.688l3.222-5.012A3.545,3.545,0,0,1,177.4,4.869a3.886,3.886,0,0,1,2.1-3.788,5.685,5.685,0,0,1,2.593-.56h5.214l-.032,13.114ZM183.9,6.61l.008-3.287h-1.127q-2,0-2.007,1.632,0,1.656,2,1.655ZM76.532,31.655H72.126l-4.434-6.242-.015,6.242H64.285l.034-13.114H67.71L67.7,24.336l4.183-5.794H76.1l-5.08,6.192,5.514,6.922Zm11.286-8.8q-.012,4.449-4.628,4.449H81.216l-.011,4.348H77.814l.034-13.114h5.194a5.125,5.125,0,0,1,3.543,1.115,4.071,4.071,0,0,1,1.234,3.2Zm-3.547.06a1.486,1.486,0,0,0-.478-1.252,2.52,2.52,0,0,0-1.547-.376H81.232l-.008,3.253h1.049a2.482,2.482,0,0,0,1.531-.369,1.509,1.509,0,0,0,.467-1.255Zm16.913-4.377L95.257,31.655H91.5l1.783-3.618-4.9-9.5h4.153l2.653,5.742,2.2-5.742h3.789Zm10.11,12.85a9.535,9.535,0,0,1-3.043.612,6.816,6.816,0,0,1-4.983-1.991,6.594,6.594,0,0,1-2.013-4.914,6.605,6.605,0,0,1,2.068-4.887,6.86,6.86,0,0,1,4.982-2.017,7.416,7.416,0,0,1,3.021.663l-.011,4.1a3.681,3.681,0,0,0-3-1.461,3.375,3.375,0,0,0-2.5,1.023,3.562,3.562,0,0,0-1,2.577,3.551,3.551,0,0,0,.973,2.6,3.406,3.406,0,0,0,2.534,1,3.819,3.819,0,0,0,3-1.391l-.011,4.084Zm7.212-4.015h-4.974l.006-2.591h4.974l-.006,2.591Zm12.088.507a3.6,3.6,0,0,1-1.527,2.989,5.978,5.978,0,0,1-3.74,1.13,8.1,8.1,0,0,1-5.019-1.672l1.525-2.429a4.35,4.35,0,0,0,3.055,1.215,2,2,0,0,0,1.555-.571,1.431,1.431,0,0,0,.376-.976q0-1.478-2.11-1.479h-1.36l.006-2.5h1.357q1.943,0,1.946-1.356a1.12,1.12,0,0,0-.507-.972,2.362,2.362,0,0,0-1.365-.35,6.35,6.35,0,0,0-2.869.82l-1.036-2.488a8.561,8.561,0,0,1,4.432-1.22,5.9,5.9,0,0,1,3.615,1.044,3.194,3.194,0,0,1,1.4,2.685,3.1,3.1,0,0,1-2.162,2.953,3.217,3.217,0,0,1,2.424,3.179Zm14.823,3.771h-3.652l-.851-2.5h-4.864l-.856,2.5h-3.652l4.985-13.114h3.965l4.926,13.114Zm-5.378-5.114L138.506,22l-1.568,4.542Zm18.422,5.114H155.07l.026-10.244h-4.957l-.026,10.244h-3.391l.034-13.114h11.74l-.034,13.114Zm15.184,0h-3.652l-.851-2.5h-4.864l-.856,2.5h-3.652l4.985-13.114h3.965l4.926,13.114Zm-5.378-5.114L166.734,22l-1.568,4.542Zm18.955,7.775h-2.974l.006-2.66h-7.426l-.006,2.66h-2.974l.014-5.531a1.762,1.762,0,0,0,1.707-1.377,9.827,9.827,0,0,0,.392-3.16l.014-5.708h9.931l-.026,10.244h1.357l-.015,5.532Zm-4.735-5.531.019-7.374h-3.356l-.011,4.189q-.007,2.431-1.243,3.185ZM45.509.993H15.8l0-.993H0L.008,2.565H15.8l0,0H56.3L56.33,5.11H15.794v-1H0L.008,6.681H15.8l0,0H56.35l.025,2.509H15.794v-1H0l0,2.565H56.393l.026,2.563H15.8v-1H0l.006,2.566H56.438l.028,2.448H15.794l0-1H0l.006,2.565H15.8l0,0H56.483l.026,2.548H15.793v-1H0l.006,2.568H15.8l0,0H56.527l.028,2.577H15.793l0-1H0l0,2.565H56.574l.026,2.545H15.794l0-.995H0l.008,2.565H15.8l0-.006,33.009,0L32.991,15.506,45.509.993Z" /></svg>
