<svg width="54" height="74" viewBox="0 0 54 74" fill="none" xmlns="http://www.w3.org/2000/svg">
<path fill-rule="evenodd" clip-rule="evenodd" d="M26.2478 4.62265H27.7033L27.4123 2.75435L29.2072 3.0485V1.52438L27.4123 1.8193L27.7033 0H26.2478L26.5388 1.86882L24.7438 1.52438V3.0485L26.5377 2.76234L26.2478 4.62265ZM26.3933 2.26226C26.3933 2.11447 26.4419 1.96708 26.5388 1.86882C26.6359 1.77004 26.7814 1.67267 26.927 1.67267C27.0724 1.67267 27.2181 1.72116 27.3151 1.8193C27.4123 1.91808 27.4605 2.06547 27.4605 2.213C27.4605 2.36065 27.4123 2.50869 27.2664 2.65609C27.1693 2.75435 27.024 2.80335 26.8784 2.80335C26.8299 2.90213 26.6844 2.80335 26.5874 2.70509C26.4904 2.6067 26.3933 2.45917 26.3933 2.26226ZM26.7332 20.062L24.5014 21.2912L26.7332 22.5196L28.9647 21.34L26.7815 20.1104L26.7332 20.062ZM15.817 35.0951V35.1071C15.817 35.1071 16.5995 35.0244 17.0641 35.55H16.5934C16.1567 35.5008 15.7688 35.3044 15.6233 35.1563C15.701 35.1406 15.7629 35.1193 15.817 35.0951ZM16.5987 34.7162C16.6509 34.7383 17.0929 34.9341 17.321 35.3044L17.3696 35.2059C17.1725 34.9061 16.9091 34.6522 16.7593 34.5191C16.7073 34.447 16.5618 34.3294 16.1566 34.1236C16.1566 34.0743 16.2052 34.0743 16.2052 34.0743C16.3444 33.9812 16.7048 34.022 16.9482 34.1111L16.9327 34.1735C16.9327 34.1735 17.2478 34.2643 17.5742 35.0613C17.469 35.156 17.3756 35.2563 17.321 35.353C17.2962 35.4035 17.264 35.4642 17.2275 35.5329L17.2184 35.5501H17.2127C16.8743 35.0321 16.4267 34.9129 16.13 34.8958C16.2594 34.8092 16.3936 34.7268 16.5987 34.7162ZM17.2552 33.4852C17.386 33.9922 17.7785 34.5699 17.9364 34.7811C17.8496 34.8405 17.7515 34.9122 17.6568 34.9905C17.4738 34.4389 17.2953 34.1864 17.1668 34.0718L16.8361 33.4852H17.2552ZM17.6551 33.1088C17.7377 33.4974 17.9203 34.2219 18.2202 34.479C18.2054 34.5639 18.194 34.6159 18.194 34.6159C18.194 34.6159 18.1279 34.6542 18.0312 34.7172C17.8941 34.4674 17.5933 33.7805 17.4874 33.2977L17.6551 33.1088ZM18.2914 33.5828L18.3141 33.5599C18.3028 33.6133 18.2947 33.6698 18.2914 33.7303C18.2914 33.9976 18.2562 34.2642 18.2281 34.434C18.0834 34.1998 18.0062 33.7023 17.9397 33.2731L17.9249 33.178L18.2914 33.5828ZM17.9031 37.1233L17.8547 37.1726L17.8062 37.2223L17.7578 37.2711L17.7091 37.3199L17.6607 37.3686H17.612H17.5637H17.5152H17.4665H17.418H17.3696V37.3199V37.2711V37.2223V37.1726V37.1233V37.0751V37.025V36.9753V36.9266V36.8776V36.8286V36.7789V36.7304V36.6806V36.6317H17.418H17.4665H17.5149H17.5637H17.612H17.6606H17.7091H17.7578H17.8061H17.8547H17.9031H17.9516V36.6806V36.7304V36.7789V36.8286V36.8776L17.9031 36.9266L17.8547 36.9753L17.9517 37.0751L17.9031 37.1233ZM19.3968 33.3553C19.4741 33.3841 19.6183 33.4015 19.7774 33.408C19.457 33.6094 19.2715 34.0192 19.1648 34.2712C19.1373 34.2996 19.1099 34.3431 19.0912 34.3759C19.0173 34.3719 18.9709 34.3697 18.9709 34.3697C18.9709 34.3697 19.3148 33.8597 19.3968 33.3553ZM20.3106 33.3849C20.3856 33.3731 20.4446 33.3572 20.4743 33.3371C20.587 33.28 20.667 33.2227 20.7333 33.1753C20.781 33.1411 20.8217 33.1119 20.8624 33.0917C20.8624 33.1803 20.8024 33.3595 20.6705 33.5787C20.3323 33.6882 19.5581 33.9691 19.4642 34.3984C19.3488 34.3906 19.2388 34.3841 19.1518 34.3792C19.2959 34.0605 19.7158 33.5243 20.3772 33.4355L20.3106 33.3849ZM21.4448 34.2227C21.4729 34.2416 21.5012 34.2626 21.5304 34.2843L21.5412 34.2923C20.9377 34.3665 20.6199 34.6159 20.6199 34.6159L20.6541 34.6849C20.4163 34.5763 20.2114 34.4879 20.1349 34.4687C20.1274 34.4661 20.1171 34.4636 20.1052 34.4611C21.0581 34.0753 21.2038 34.1243 21.4448 34.2227ZM21.962 34.5033L21.9746 34.5063C21.9916 34.5104 22.0086 34.5145 22.027 34.5176C21.9553 34.5419 21.8719 34.5781 21.7882 34.6144L21.7881 34.6145C21.702 34.6519 21.6157 34.6893 21.5418 34.714C21.185 34.8499 21.1564 34.861 21.1919 34.9376C21.0328 34.8611 20.8571 34.7781 20.6939 34.703C20.8077 34.6551 21.3097 34.4632 21.962 34.5033ZM22.6381 35.4838L22.6401 35.5534C22.4758 35.5204 22.2884 35.5146 22.1233 35.519C21.9707 35.3832 21.8152 35.2581 21.6876 35.1835C22.137 35.1213 22.3833 35.2427 22.6381 35.4838ZM22.6547 36.0337C22.5769 35.953 22.4605 35.8345 22.3292 35.709C22.4385 35.741 22.5489 35.7835 22.6488 35.8347L22.6547 36.0337ZM23.0944 38.1556C23.2398 38.1068 23.2883 37.9592 23.2883 37.8611C23.2943 37.8599 23.2991 37.8601 23.3048 37.8594C23.3638 37.8705 23.4222 37.9007 23.4727 37.9716C23.4797 38.0157 23.4767 38.0667 23.474 38.1145C23.4706 38.1719 23.4675 38.2245 23.4824 38.2546L23.5309 38.3034L24.2101 38.2041C24.7589 37.8903 25.0376 37.731 25.2602 37.6148H25.3259C25.3553 37.5853 25.3667 37.5735 25.3714 37.5581C25.5517 37.4681 25.7175 37.3958 26.0052 37.271L26.3933 37.1725L26.9787 35.8943H27.0239C27.3103 35.8943 27.6169 36.1267 27.7944 36.2867C27.7586 36.7956 27.5451 37.136 27.4123 37.271C27.3636 37.3685 27.2664 37.4682 27.1694 37.5662C27.0239 37.7133 26.8784 37.8611 26.7813 38.0578C26.5389 38.0578 26.3447 38.1556 26.1992 38.3034C26.1631 38.3216 26.127 38.3468 26.0884 38.3737C26.0232 38.419 25.951 38.4694 25.8596 38.4996C25.3656 38.75 24.5895 38.7661 24.1469 38.7753C23.9808 38.7788 23.8617 38.7812 23.822 38.7947C23.7864 38.8128 23.7638 38.8375 23.7352 38.8688C23.6858 38.923 23.6182 38.9971 23.4337 39.0906C23.3854 39.1389 23.3367 39.1389 23.2883 39.1389C23.0456 39.1879 22.706 39.2372 22.4634 39.1389C22.415 39.1389 22.3666 39.0906 22.3666 39.0401V38.9906C22.3666 38.9906 22.3666 38.893 22.415 38.893C22.415 38.893 22.4634 38.893 22.4634 38.844C22.4634 38.844 22.3666 38.844 22.3666 38.7452C22.3666 38.6522 22.4249 38.6378 22.4677 38.6273C22.4924 38.6212 22.5119 38.6163 22.5119 38.5983C22.5119 38.5491 22.3666 38.5491 22.3666 38.5491C22.3666 38.4996 22.415 38.4013 22.415 38.4013H22.5119V38.3523C22.5119 38.3523 22.3666 38.4013 22.415 38.2041C22.415 38.2041 22.4634 38.1556 22.5119 38.1556H23.0944ZM22.9126 36.3551L22.9668 36.4379L23.0594 37.4693C23.0549 37.4691 23.0504 37.4682 23.0458 37.4682L23.0946 37.9592H22.93L22.7633 36.2286L22.9126 36.3551ZM23.4925 36.4407C23.7812 36.5867 24.313 36.7582 24.6954 36.8286C24.5512 36.8771 24.3116 36.9256 23.9302 36.9738C23.8364 36.9702 23.5982 36.9666 23.3893 37.0504L23.0605 36.444C23.1614 36.4008 23.3278 36.3997 23.4925 36.4407ZM22.9548 36.307L22.9446 36.3118L22.9141 35.7537C23.0936 35.9187 23.2873 36.0554 23.5309 36.0904C23.5067 36.0904 23.4823 36.1025 23.458 36.1147C23.4338 36.1268 23.4095 36.139 23.3854 36.139L23.2883 36.1889V36.2358C23.1725 36.2423 23.0623 36.2645 22.9802 36.2964L22.9487 36.2384L22.9548 36.307ZM24.3789 37.9144C24.248 37.9943 24.1256 38.0751 24.0159 38.1557L23.9819 38.1514C23.9264 38.0646 23.8111 37.88 23.6997 37.6772C23.8973 37.7015 24.1558 37.764 24.3789 37.9144ZM23.6337 37.5537C23.5743 37.4391 23.5201 37.3242 23.4825 37.2223L23.4432 37.1499C23.5498 37.1311 23.6765 37.1468 23.7807 37.1598C23.8195 37.1646 23.8551 37.169 23.8855 37.1711C23.9266 37.1901 23.9926 37.2089 24.098 37.2389L24.0981 37.239C24.1313 37.2484 24.1685 37.259 24.2101 37.2711C24.4192 37.3132 24.8804 37.4292 25.0969 37.5232C24.9447 37.5984 24.796 37.6757 24.6539 37.7547C24.3302 37.5731 23.9012 37.5491 23.6337 37.5537ZM24.1132 35.9429C24.1616 35.9429 24.2103 35.9429 24.2589 35.8943H24.7925C24.8854 35.8943 24.9965 35.9017 25.1119 35.9093L25.1126 35.9094L25.1127 35.9094H25.1127H25.1128H25.1129H25.1129C25.3693 35.9263 25.6465 35.9447 25.7915 35.8871C25.8043 35.8893 25.8156 35.8909 25.8252 35.8919C25.8165 36.3271 25.8669 36.7303 25.9679 37.1301C25.7413 37.2237 25.5079 37.3265 25.2787 37.4352C25.1445 37.3612 24.8759 37.2796 24.4529 37.1725C24.744 37.1233 24.9381 37.025 25.0352 36.9266C25.0835 36.8286 25.0835 36.7788 25.0835 36.7788V36.6806H24.9865C24.5184 36.6806 23.9609 36.4984 23.6607 36.3524L23.6703 36.3129C23.843 36.2101 23.9677 36.0417 23.9677 36.0417C23.9677 36.0417 23.7737 35.9429 23.628 35.9429C23.3259 35.9429 23.139 35.7488 22.9304 35.5321L22.9003 35.5009L22.8219 34.0712C23.1987 35.3508 23.6925 35.9429 24.1132 35.9429ZM25.3632 34.5176H25.3748V34.4687C25.4233 34.2712 25.6175 34.0744 25.7144 34.0259C26.0975 33.8167 26.3725 33.7529 26.5299 33.7349L26.3936 33.977C26.2965 34.1237 26.0055 34.6654 25.9084 35.0582C25.8869 35.1815 25.8703 35.3013 25.8571 35.4186L25.8482 35.4177C25.6284 35.3948 25.1679 35.3467 25.3632 34.5176ZM26.3451 32.944L26.3307 32.8993C26.2857 32.7581 26.2292 32.5807 26.054 32.4029V32.3536C26.0231 32.2907 25.9921 32.2129 25.9643 32.1314C25.9759 32.1399 25.9888 32.1482 26.0056 32.1566H26.1512C26.1269 32.1812 26.1147 32.2059 26.1026 32.2307C26.0904 32.2554 26.0783 32.2801 26.054 32.3046C26.1025 32.3536 26.1996 32.3536 26.2482 32.3046L26.2966 32.3536C26.3937 32.649 26.4422 32.649 26.3937 32.3046C26.3937 32.2801 26.3816 32.2555 26.3694 32.2308C26.3573 32.206 26.3451 32.1812 26.3451 32.1566C26.3937 32.1082 26.3937 32.0587 26.2966 32.0587C26.1572 32.0112 26.0617 32.0093 25.9259 32.0092C25.9044 31.935 25.8867 31.8623 25.8752 31.7988C25.9536 31.8129 26.0386 31.8133 26.1025 31.8133C26.5393 31.8133 26.9759 31.6652 27.364 31.5175C27.4242 31.915 27.5036 32.3314 27.7182 32.6015C27.0634 33.582 26.7784 33.5787 26.5877 33.3371C26.4907 33.2389 26.3937 33.0917 26.3451 32.944ZM27.4605 33.8296C27.1536 33.9629 26.8863 33.9345 26.7302 33.7458L26.83 33.7797L26.8631 33.5782C27.0704 33.5561 27.2854 33.4524 27.4886 33.3086C27.5568 33.4374 27.7167 33.5788 27.8503 33.697L27.8515 33.698C27.728 33.7523 27.5769 33.7997 27.4605 33.8296ZM26.6976 35.782L26.248 37.025L26.2089 37.0384C26.0416 36.4434 25.967 35.8392 26.1023 35.1071C26.1325 34.8943 26.2553 34.6249 26.3561 34.4038C26.4182 34.2674 26.472 34.1494 26.4905 34.0743L26.5875 33.8296C26.7555 33.9997 26.9241 34.1698 27.2183 34.1157L27.1696 34.1735C27.1696 34.1735 26.6362 34.763 26.5875 35.1564C26.5017 35.5331 26.6013 35.7043 26.6976 35.782ZM28.2369 33.9769C28.3663 33.9769 28.4742 34.0202 28.5461 34.049C28.5821 34.0635 28.6091 34.0743 28.6253 34.0743C28.8192 34.3209 29.1103 35.0581 29.1588 35.5008C29.2074 35.9428 29.0132 36.0416 28.7221 36.1889C28.6253 36.2384 28.4795 36.2874 28.334 36.2874C28.2822 36.2874 28.2305 36.2734 28.1861 36.2605C28.1867 36.253 28.188 36.2459 28.1887 36.2384L28.0585 36.2051C27.9133 36.0603 27.4768 35.6557 27.1214 35.7462H27.0241C27.0114 35.7203 26.9953 35.6979 26.9786 35.6744C26.9314 35.6085 26.8786 35.5345 26.8786 35.353C26.8786 34.8617 27.2182 34.3696 27.3637 34.2226L27.5578 34.0743C27.598 34.0743 27.6882 34.0576 27.7939 34.038C27.9432 34.0103 28.1234 33.9769 28.2369 33.9769ZM27.2664 38.7948L26.7171 38.3869C26.7765 38.3651 26.8427 38.3524 26.9271 38.3524H26.9755L26.8785 38.2042C26.9742 38.011 27.1171 37.8654 27.2602 37.7197L27.2664 37.7134C27.3153 37.6639 27.364 37.627 27.4128 37.59C27.461 37.5535 27.5093 37.517 27.5577 37.4682L27.5618 37.464L27.6754 38.6067L27.2664 38.7948ZM25.1019 40.0086L24.8898 39.7016L26.1422 38.8755L26.2131 38.9253L25.1019 40.0086ZM24.5159 39.1737C24.8308 39.1929 25.1537 39.1701 25.4684 39.0853L24.751 39.5587L24.5159 39.1737ZM19.89 34.4322C19.7796 34.4213 19.6468 34.411 19.517 34.4021C19.6025 34.1665 20.1116 33.9193 20.4838 33.8492C20.3355 34.0387 20.139 34.2407 19.89 34.4322ZM34.1203 34.0928L36.0795 34.6816C35.3866 34.8888 34.3379 35.0536 34.1079 34.6653C34.0162 34.4798 34.0422 34.28 34.1203 34.0928ZM26.8989 46.5679L26.8785 46.5645C26.8997 46.6925 26.9391 46.7834 26.9729 46.8615C27.0169 46.963 27.0515 47.0428 27.024 47.154C26.9756 47.252 26.7332 47.3995 26.539 47.4486C26.472 47.4622 26.4092 47.4837 26.3487 47.5102C26.1251 47.1073 25.7597 46.9976 25.5604 46.9684C25.5831 46.9259 25.6029 46.8879 25.6173 46.8591C25.6657 46.7114 25.5202 46.2684 25.326 45.9735C25.1794 45.6763 24.8662 44.8445 24.6172 44.1804C24.8232 44.0786 24.9954 44.1784 25.081 44.228C25.1055 44.2423 25.1229 44.2524 25.132 44.2524L25.1804 44.302H25.2291C25.6069 44.2173 26.0573 44.2427 26.4863 44.6014C26.42 45.3714 26.5186 45.7476 26.5882 46.0129C26.608 46.0886 26.6255 46.1552 26.6361 46.2194C26.6361 46.2194 26.7702 46.3828 26.8989 46.5679ZM26.6846 45.2357C26.6846 45.2357 27.9946 45.3841 29.3045 44.7934C30.4202 44.302 31.5363 42.7287 31.439 41.008H31.4876L31.6332 40.9582C31.7186 40.9148 31.804 40.9001 31.8935 40.8847C32.0075 40.8651 32.1281 40.8444 32.264 40.7618L32.4581 40.8596C32.4581 40.8596 32.5066 41.008 32.5066 41.0565C32.3124 41.1548 31.9243 41.3022 31.6816 41.3022C31.6816 41.4468 31.6555 41.5386 31.6223 41.655C31.6103 41.697 31.5974 41.7421 31.5845 41.7941C31.8272 41.7446 32.3124 41.5979 32.3124 41.5979V41.9908L31.439 42.1386C31.4147 42.1875 31.4026 42.2493 31.3904 42.311C31.3784 42.3725 31.3663 42.4339 31.3422 42.4827C31.6816 42.4337 32.2154 42.4827 32.2154 42.4827V42.5811L32.0697 42.8273C31.8839 42.8649 31.6409 42.758 31.4721 42.6837C31.4207 42.661 31.3762 42.6414 31.3422 42.6299C31.2994 42.7384 31.2567 42.8373 31.218 42.9265C31.169 43.0398 31.1266 43.1376 31.0995 43.2202L31.8758 43.2695L31.7302 43.5157L31.5363 43.7122L30.9054 43.4663C30.8084 43.6627 30.7114 43.7617 30.5658 43.9082C30.954 44.0564 31.2937 44.204 31.2937 44.204L31.0024 44.4498L30.9054 44.5966L30.4202 44.1059C30.3355 44.1911 30.2509 44.2768 30.1757 44.3529L30.1741 44.3545L30.032 44.4982L30.6629 44.8921L30.3718 45.039L30.1776 45.1377C29.9349 44.8921 29.8383 44.7934 29.7898 44.6951L29.7838 44.6992L29.7837 44.6992C29.64 44.7961 29.4965 44.8928 29.3529 44.9414C29.3045 44.9658 29.2924 44.9658 29.2802 44.9658C29.2681 44.9658 29.256 44.9658 29.2074 44.9903L29.4015 45.2849L29.4499 45.433L29.2074 45.5309L29.0133 45.433L28.9162 45.0892C28.8185 45.1136 28.7331 45.1382 28.6476 45.1629L28.6475 45.1629C28.5633 45.1872 28.479 45.2115 28.3826 45.2357C28.5281 45.3351 28.6737 45.4815 28.6737 45.4815V45.6296H28.4796C28.4368 45.5643 28.3941 45.5089 28.3555 45.4588C28.3065 45.3953 28.2642 45.3404 28.237 45.2849C28.1468 45.3083 28.0671 45.3207 27.9929 45.3323C27.9076 45.3457 27.8298 45.3579 27.7519 45.3841L27.9946 45.6296L27.8975 45.8265L27.8004 45.7766C27.7036 45.7766 27.6549 45.7279 27.6549 45.7279C27.6549 45.7279 27.5578 45.5309 27.5578 45.433C27.4441 45.433 27.3471 45.4666 27.2667 45.4944C27.21 45.5141 27.1615 45.5309 27.1215 45.5309C27.1696 45.6291 27.3152 45.7766 27.3152 45.7766H27.0727L26.9757 45.6291C26.9571 45.5913 26.9384 45.5607 26.9225 45.5347C26.8971 45.493 26.8786 45.4628 26.8786 45.433C26.8415 45.433 26.8045 45.4258 26.7728 45.4198C26.7216 45.4099 26.6846 45.4028 26.6846 45.433V45.2357ZM25.9082 47.7925C25.8598 47.8253 25.8167 47.8635 25.7737 47.9017C25.6874 47.9783 25.601 48.0549 25.4716 48.0877C25.2775 48.1862 25.0834 48.2355 24.8893 48.2842C24.8408 48.2842 24.7924 48.2355 24.7438 48.1862C24.6953 48.1862 24.6953 48.0877 24.7438 48.0386L24.7924 47.9893C24.8888 47.9242 25.0063 47.8155 25.1171 47.636L25.1803 47.6454C25.1803 47.6454 25.3601 47.3332 25.4955 47.0874C25.6219 47.1503 25.8859 47.318 26.0682 47.6741C26.0142 47.7123 25.9612 47.7524 25.9082 47.7925ZM16.5447 35.7462C16.8414 35.7059 17.0241 35.6741 17.141 35.6471C17.1451 35.6528 17.1491 35.6588 17.1531 35.6648L17.1557 35.6687C16.9828 35.998 16.7604 36.4504 16.69 36.8775C16.69 36.9104 16.7066 36.9547 16.7268 37.0085C16.7663 37.1139 16.8194 37.2556 16.7873 37.4188C16.7409 37.8176 16.6504 38.3282 16.5684 38.7905L16.5684 38.7906L16.5684 38.7907L16.5683 38.7909L16.5683 38.791L16.5683 38.7911C16.4785 39.2975 16.3991 39.7459 16.3991 39.9258L16.8843 40.3199C16.8843 40.3199 16.9326 40.6137 16.9326 40.7617C17.0298 40.9091 17.1755 41.0079 17.4179 41.0079C17.4974 41.0079 17.6634 40.9495 17.8373 40.8883C17.9822 40.8373 18.1325 40.7844 18.2427 40.7617C18.2913 40.7617 18.3398 40.713 18.3398 40.713C18.4853 40.664 18.534 40.5652 18.5824 40.4178L18.6095 40.3902L18.6479 40.3514C18.6746 40.3245 18.7012 40.2976 18.7279 40.2703C18.647 40.0249 18.6003 39.7106 18.671 39.4419C18.9067 39.8343 19.3877 40.3895 20.2319 40.5158C20.1833 40.7131 20.0378 41.2044 19.7467 41.5978C19.5145 41.95 19.4058 42.1464 19.2729 42.3864L19.2724 42.3873C19.2388 42.448 19.2036 42.5115 19.1644 42.5811C19.4556 42.9253 21.2505 43.6626 23.1912 43.3675L22.9971 40.713C22.6576 40.7618 22.3665 40.7618 22.0754 40.7618C21.2135 40.7618 20.641 40.615 20.3804 40.5482L20.3802 40.5481C20.3036 40.5285 20.2541 40.5158 20.232 40.5157L20.3288 40.2209C19.5195 40.0839 19.0151 39.5431 18.7991 39.226C18.9727 39.0784 19.4274 38.6952 19.6982 38.4995C20.3552 37.939 20.3468 37.8034 20.3404 37.7004C20.3379 37.6589 20.3356 37.6227 20.3774 37.5661C20.6199 37.2709 20.5229 39.877 20.426 40.2703C20.426 40.2703 21.4447 40.6137 23.0457 40.5158L22.9609 39.483H23.2112C23.2298 39.6761 23.2591 40.0014 23.2884 40.4178C23.8354 40.3714 24.3407 40.2377 24.923 40.0584L25.0008 40.1371C24.3395 40.4226 23.8605 40.567 23.2884 40.664C23.3855 41.5482 23.4826 42.7285 23.531 43.3189C23.6162 43.2971 23.7109 43.2564 23.8108 43.2134L23.8109 43.2134C23.9383 43.1586 24.0742 43.1001 24.2102 43.0725C24.2001 43.0317 24.1879 42.9887 24.1754 42.9444C24.1277 42.7759 24.0748 42.589 24.1131 42.4336C24.1396 42.1907 24.5313 41.6373 24.8794 41.1872C24.9529 41.2337 25.0408 41.2906 25.1392 41.3543C25.5397 41.6134 26.1137 41.9847 26.5965 42.2292C26.5196 42.2623 26.4439 42.2913 26.3722 42.3188L26.3721 42.3188C26.1952 42.3867 26.0427 42.4451 25.9568 42.5323C25.9568 42.5323 26.5027 43.0068 26.5104 44.133C26.1335 43.9725 25.6837 43.9465 25.1804 44.0563C25.1025 44.0164 24.8686 43.9144 24.5789 44.0782C24.5136 43.9038 24.4538 43.7442 24.4041 43.6136C24.3557 43.5156 24.2588 43.3189 24.2102 43.1709C24.1557 43.193 24.1036 43.2151 24.0529 43.2366C23.878 43.311 23.7191 43.3785 23.531 43.4167C23.531 43.5648 23.531 43.6626 23.5794 43.6626C23.6692 44.5703 23.8412 47.0271 23.8671 47.3994H23.531L23.8221 51.4315L23.5794 51.6774L23.9676 52.8081L24.3557 51.6279L24.0647 51.4315L23.873 47.4489L24.915 47.6054C24.8529 47.6907 24.7888 47.7519 24.7377 47.8006C24.7223 47.8153 24.708 47.8289 24.6953 47.8417C24.6768 47.8605 24.6583 47.8721 24.6425 47.8821C24.6168 47.8982 24.5982 47.9099 24.5982 47.9405C24.5497 48.0877 24.5497 48.2354 24.5982 48.3332C24.6953 48.4811 24.7924 48.5301 24.938 48.5301C25.1804 48.4811 25.4231 48.3827 25.5686 48.2842C25.6929 48.2214 25.7973 48.1383 25.8945 48.0609L25.8946 48.0608L25.8947 48.0607L25.8949 48.0606C25.9493 48.0172 26.0015 47.9757 26.0537 47.9405C26.2479 47.7925 26.3934 47.6943 26.5874 47.6453C26.83 47.6453 27.3151 47.4976 27.3637 47.3017C27.368 47.2903 27.3712 47.2794 27.3742 47.2683C29.1574 47.3732 31.0023 46.4159 31.0023 46.4159C31.8271 48.1862 33.0401 48.9241 33.0401 48.9241C35.0866 49.8456 34.9588 50.854 34.815 51.9895C34.8054 52.0653 34.7957 52.1417 34.7866 52.2186C34.6896 53.152 33.5252 54.086 33.5252 54.086L34.544 54.6274L34.6896 54.3319L35.2232 54.1843C35.3172 51.8926 36.0067 51.084 36.3129 50.7248L36.339 50.6941C36.6303 50.3497 36.3877 50.3008 36.3877 50.3008C36.3877 50.3008 34.8837 48.776 35.8054 46.859C36.9698 43.9583 36.7759 41.8435 35.2232 40.8115C33.7223 39.8126 31.8134 40.4687 31.2937 40.6473L31.245 40.664C31.1964 40.664 31.0994 40.713 31.0994 40.713C31.0994 40.713 30.9052 40.7617 30.8083 40.8115L29.0617 42.2853L28.8191 41.794L27.3151 42.5323V42.0394L27.0726 41.9419L27.0668 41.947L27.053 41.9587C27.0421 41.9677 27.0311 41.9765 27.0201 41.9853L27.0163 41.9882C26.4428 41.8042 25.481 41.2787 25.0142 41.0147C25.1743 40.8129 25.3106 40.6492 25.378 40.5692L25.6656 40.9091L26.6361 39.6307L26.7814 39.6799L26.0053 41.1064L26.9756 41.6467L27.5092 39.8274L27.6548 39.6799V41.6958L28.6252 41.3021L28.334 39.4338H28.3825L29.4014 41.4988L30.3534 40.798L30.3625 40.8047L30.3717 40.8115L30.76 40.5158C30.517 40.3199 30.2261 40.0238 30.1291 39.8274C30.1291 39.8274 29.8865 39.5815 29.5954 38.6474L28.7707 38.9905L28.8296 39.0623C29.0588 39.3411 29.316 39.6542 29.4498 39.9258C29.4498 39.9258 29.7464 40.2931 30.1219 40.615L29.4014 41.3021L28.4795 39.1388L28.043 39.3845L28.2369 41.253L27.8003 41.4988V39.483L27.2665 39.6799L26.7814 41.3511L26.1509 41.0564L26.9272 39.6307L26.539 39.4338L25.5686 40.5652L25.2261 40.1745L26.3587 39.0274L27.2182 39.6307L28.7221 38.9905L28.6252 38.8439L27.2665 39.3845L26.2723 38.6996C26.3147 38.6694 26.3542 38.638 26.3934 38.5983L26.4375 38.5646L26.4581 38.5487L26.4849 38.528L26.5171 38.5035L27.2182 38.9905L28.3825 38.4995L28.3851 38.4979L28.38 38.489L28.334 38.3033L27.862 38.5206L27.7382 37.2744C27.897 37.089 28.0768 36.825 28.1544 36.4706C28.1711 36.4732 28.1884 36.4755 28.2068 36.4775L28.3825 38.3033L29.4014 37.7132C29.4185 37.4877 29.4538 37.2189 29.4902 36.9418L29.4902 36.9416L29.4903 36.9407L29.4904 36.9399L29.4905 36.9393C29.5046 36.8319 29.5188 36.7233 29.5323 36.6154C30.7145 37.2324 33.7336 38.695 33.8162 38.4012C33.8299 38.3455 33.8282 38.2663 33.8262 38.1792C33.8213 37.958 33.8153 37.6854 34.059 37.6147C34.1508 37.5917 34.2536 37.6126 34.3673 37.6357C34.4936 37.6614 34.6334 37.6898 34.7866 37.6638C35.1263 37.5661 35.32 37.1231 35.1748 37.0249C35.0289 37.0249 34.9808 36.9751 34.9808 36.9751C33.096 36.9751 30.5251 35.816 29.4009 35.0283C29.3988 35.0152 29.3964 35.0021 29.3939 34.9888C30.4878 35.6029 32.8815 36.7323 34.7866 36.7787C34.7866 36.6316 34.835 36.5333 34.9808 36.3858C35.1987 36.1645 35.5255 36.0816 35.7981 36.0125L35.7982 36.0124C35.8896 35.9893 35.9749 35.9676 36.048 35.9428C36.1039 35.924 36.1581 35.9089 36.2118 35.8939C36.4377 35.8306 36.6563 35.7694 36.9698 35.451C37.2785 35.0688 37.2233 34.6135 36.9588 34.4834L36.9698 34.4686L34.2528 33.8781L34.2022 33.9294C34.3422 33.6895 34.5421 33.4863 34.6412 33.386C35.0777 32.9438 34.9321 32.6971 34.8837 32.6489H34.7866C34.0103 32.6489 32.6518 33.8781 32.0212 34.9104C32.0212 34.959 31.9728 34.959 31.9728 34.959H31.9242C31.9242 34.959 31.1377 34.3511 28.7999 33.9105C28.7879 33.8967 28.7775 33.8852 28.7707 33.8781H28.7221C28.7698 33.8781 28.6761 33.8309 28.258 33.7351C28.3627 33.6959 28.4795 33.65 28.5721 33.6078C30.7075 33.9894 31.7352 34.2741 31.9728 34.4193C32.458 33.6319 33.3311 33.0916 34.059 32.6971C33.6869 32.7557 33.1627 32.8136 32.5464 32.8817C32.118 32.929 31.6451 32.9813 31.1478 33.0421L28.5521 33.4113C28.314 33.2771 28.1749 33.0514 28.0952 32.8582C28.1539 32.8757 28.2163 32.8889 28.2856 32.8938C28.2856 32.8938 28.334 32.8454 28.3825 32.8454V32.7472C28.2875 32.4904 28.3371 32.2545 28.3965 31.9717C28.4281 31.8209 28.4626 31.6568 28.4795 31.469C28.4795 31.3185 28.4635 31.1775 28.4363 31.0443L28.4795 31.0755C28.6109 31.182 28.5999 31.3028 28.5854 31.4617C28.5732 31.5959 28.5585 31.7574 28.6252 31.9603C28.8678 32.5505 29.5954 32.5009 30.0319 32.009C30.0762 31.9644 30.1255 31.8941 30.1792 31.8175C30.3613 31.5581 30.5945 31.2257 30.8568 31.5672L30.8572 31.568C30.9055 31.6656 30.9543 31.7643 31.0994 31.8132C31.3421 31.9603 31.5361 31.7642 31.5844 31.617C31.2761 31.8502 31.2127 31.7128 31.1024 31.4735C31.0739 31.4116 31.0422 31.3429 31.0023 31.2721C30.8568 31.1248 30.6143 30.9281 30.2746 31.1738C30.1375 31.2433 30.0487 31.3863 29.9571 31.5339C29.9192 31.595 29.8808 31.6569 29.8382 31.7146C29.4498 32.1081 29.0617 31.8132 29.1103 31.1248C29.1588 30.2876 29.1588 30.0917 28.8678 29.6004C28.4309 28.9113 27.7035 28.8133 26.7332 29.0593C26.8053 29.1692 26.8774 29.2247 26.9346 29.2686C27.0313 29.3428 27.0852 29.3842 27.024 29.6004C27.0033 29.6636 26.956 29.7176 26.9086 29.7589C26.0807 29.8818 25.6656 30.5161 25.6656 31.6651C25.6286 31.8152 25.7048 32.0227 25.7861 32.2441C25.8112 32.3125 25.8368 32.3821 25.8597 32.4519V32.5009V32.5505C26.0537 32.7472 26.1022 32.8938 26.1509 33.0421C26.1711 33.083 26.1891 33.1217 26.2064 33.1588C26.2722 33.3 26.3266 33.4166 26.4419 33.5332H26.4904L26.4944 33.5334C26.3 33.5699 26.0318 33.6559 25.7142 33.8295C25.5686 33.9274 25.3745 34.1235 25.2776 34.3208C25.2533 34.3208 25.2169 34.333 25.1805 34.3452C25.1441 34.3574 25.1077 34.3696 25.0834 34.3696C25.0492 34.3795 25.016 34.3895 24.9838 34.3992C24.6965 34.4854 24.4915 34.5469 24.4041 34.3696C24.3072 34.1403 24.1671 33.9109 24.027 33.6813L24.0269 33.6813C23.9569 33.5665 23.8868 33.4518 23.8221 33.337C23.6279 33.0421 23.3855 32.6489 23.3855 32.5505C23.3855 32.4519 23.3855 32.1564 23.2884 31.7642V31.7146C23.2884 31.7146 23.0945 31.42 22.8517 31.3711C22.8154 31.3711 22.7519 31.3711 22.7021 31.3915L22.6576 29.4526L23.0945 29.9941L23.1913 29.7485L22.6091 29.0593L22.5606 28.1747L23.4338 28.1258L23.3855 27.9285L22.5606 27.978V27.6831L22.9972 27.634L22.9488 27.4369L22.5606 27.4862L22.512 26.8964H22.318L22.3666 27.4862L21.9299 27.5349V27.7319L22.3666 27.6831V27.978L21.6875 28.027H21.6388V28.2237L22.3666 28.1258L22.4151 28.764L22.0754 28.3717L21.9299 28.6169L22.4151 29.1577L22.512 31.5672H22.706L22.7043 31.4908L22.7546 31.5672H22.8031C22.9002 31.5672 23.0457 31.7146 23.0945 31.8132C23.1702 32.0814 23.1571 32.2902 23.1477 32.4393C23.1451 32.4811 23.1428 32.5181 23.1428 32.5505C23.1428 32.6971 23.2884 32.9438 23.5794 33.4354C23.8221 33.7302 24.016 34.1235 24.1615 34.4193C24.2588 34.6157 24.4041 34.6653 24.5497 34.6653C24.6933 34.6653 24.8841 34.6171 25.0754 34.5687L25.0755 34.5687L25.0834 34.5667C25.1258 34.5667 25.1681 34.5573 25.2064 34.5466C25.1102 35.1521 25.2322 35.4855 25.396 35.669C25.2133 35.6975 24.9681 35.6977 24.7439 35.6977C24.5013 35.6977 24.3073 35.6977 24.1615 35.7462C23.7554 35.8382 23.1396 34.6959 22.7821 33.3486L22.7546 32.8454H22.5607V32.8454V32.7964C22.5364 32.7964 22.4757 32.7715 22.4151 32.7467L22.415 32.7467C22.3544 32.7219 22.2938 32.6971 22.2696 32.6971L22.318 32.6488H22.4636C22.6093 32.6488 22.7548 32.6 22.7548 32.5009C22.7548 32.4519 22.6093 32.4024 22.4636 32.4024H22.3667H22.318V32.3534H22.4636C22.5607 32.3534 22.7548 32.3534 22.7548 32.2555C22.7548 32.2246 22.7361 32.2128 22.7103 32.1966L22.7103 32.1966C22.6946 32.1867 22.6762 32.1751 22.6578 32.1565H22.2696L22.318 32.108H22.6578C22.7062 32.108 22.7548 32.0585 22.7548 32.009C22.7548 31.9792 22.7365 31.9676 22.7112 31.9517C22.6953 31.9416 22.6765 31.9297 22.6578 31.9104H22.318V31.8616C22.4636 31.9104 22.6093 31.9104 22.7062 31.9104C22.8033 31.9104 22.8517 31.8616 22.8517 31.8131C22.8517 31.7146 22.7062 31.6652 22.5607 31.6652H22.4636L22.3667 31.6169C22.3667 31.6169 22.318 31.6652 22.2696 31.6169C22.2211 31.6906 22.1847 31.7765 22.1483 31.8624L22.1483 31.8625C22.1119 31.9483 22.0755 32.0342 22.027 32.108C21.9301 32.6488 22.2696 32.8937 22.5607 32.9933V32.8514L22.6298 35.1945C22.4473 35.0029 22.2365 34.8471 21.9299 34.8126L21.9299 34.8126C22.3581 34.6153 22.4426 34.5763 22.4594 34.5179C22.4635 34.5035 22.4635 34.488 22.4635 34.4686V34.3696H22.3666C21.9299 34.3208 21.7357 34.2226 21.5417 34.0743L21.5018 34.0499C21.2767 33.9121 21.0783 33.7905 20.6199 33.9769C21.2023 33.288 20.9596 32.8454 20.9596 32.8454L20.8141 32.6489L20.7654 32.8938C20.7654 32.932 20.6523 32.9984 20.4907 33.0932L20.4905 33.0933C20.4406 33.1226 20.3861 33.1545 20.3288 33.1892C20.2334 33.2381 19.5268 33.2386 19.4131 33.1913C19.4174 33.0698 19.4024 32.952 19.3585 32.8454C19.3531 32.8345 19.336 32.8262 19.3104 32.8209L19.3101 32.8067L19.31 32.7964V32.6971H19.2131C18.9022 32.6082 18.5103 33.0124 18.2972 33.2321L18.2971 33.2322L18.2705 33.2597L18.2427 33.288L17.709 32.6971L17.1755 33.288L16.4476 33.337L16.7873 33.8781C16.5447 33.8295 16.2534 33.8295 16.0597 33.9274C15.9623 33.9769 15.9139 34.0743 15.9139 34.1734V34.2226L15.9623 34.271C16.0107 34.3038 16.0645 34.3366 16.1183 34.3694L16.1184 34.3695C16.2263 34.4353 16.3343 34.5012 16.3991 34.5667C16.1565 34.6157 16.011 34.7139 15.9139 34.8126C15.8924 34.8271 15.8719 34.8416 15.8519 34.8558C15.7366 34.9374 15.6354 35.009 15.4289 35.009H15.3803V35.0581C15.3803 35.1071 15.3803 35.1563 15.4289 35.2546C15.5742 35.5008 16.011 35.7954 16.5447 35.7462ZM13.3424 48.6773C13.3424 48.7271 13.3911 48.7271 13.4395 48.7271C13.7782 48.6294 13.9722 48.3347 14.1657 48.0408L14.1672 48.0385C14.2642 47.891 14.3613 47.7436 14.4584 47.5963C14.5069 47.5473 14.5069 47.4977 14.4584 47.4487L14.4099 47.3994C14.5251 47.205 14.4273 47.0411 14.3334 46.8838C14.3088 46.8425 14.2844 46.8016 14.2642 46.7608L14.2158 46.7113C14.1672 46.662 14.0217 46.4651 14.4099 46.0229C14.4099 46.0229 14.4584 45.9734 14.4584 45.9247C14.3613 45.2848 14.7011 44.6457 14.9921 44.1058C15.0349 44.018 15.078 43.9307 15.1209 43.8437L15.121 43.8436L15.1211 43.8435L15.1375 43.8101C15.1459 43.7889 15.1539 43.7682 15.1617 43.7479C15.2447 43.5323 15.3081 43.3674 15.5742 43.3674C16.1564 44.3505 16.7388 45.089 17.6603 45.6785C17.6603 45.6785 17.806 45.8265 18.0001 45.8265C18.2166 45.8579 18.6107 45.789 18.8679 45.7351C18.9244 45.8483 18.99 45.9613 19.0673 46.0726C19.2471 46.327 18.7609 46.3928 18.339 46.45C18.1916 46.47 18.052 46.4889 17.9515 46.5144C17.5636 46.7113 17.0782 46.7113 16.5931 46.7113C15.9622 46.6128 15.8654 46.8589 15.8167 47.2029C15.4771 48.1861 14.9921 48.924 14.5069 49.6124C14.2649 49.8573 14.0715 50.1023 13.8779 50.3475L13.8779 50.3475L13.8761 50.3498C13.8277 50.3984 13.779 50.4971 13.779 50.5458C13.779 50.5957 13.8277 50.6942 13.8761 50.7428C13.9354 50.8631 13.8861 50.9283 13.8277 51.0056C13.7905 51.0548 13.7496 51.1089 13.7308 51.1854C13.5365 51.6278 13.4882 52.0215 13.4395 52.4633V52.5624C13.428 52.6324 13.4111 52.719 13.3932 52.8103C13.3357 53.1042 13.2685 53.4474 13.3424 53.4474C13.4395 53.4474 14.5553 53.2505 14.604 53.1029C14.6524 52.955 14.5069 52.6114 14.5069 52.6114V51.8735C14.5217 51.8137 14.5274 51.7584 14.5324 51.7104C14.5438 51.6009 14.5513 51.5293 14.6524 51.5293C14.9921 51.4314 15.1862 51.0375 15.1375 50.5458C15.1375 50.2027 15.283 49.907 15.6227 49.5626C15.8654 49.1697 16.0596 48.8252 16.2534 48.4324C16.3428 48.4624 16.4505 48.3627 16.5877 48.2357C16.674 48.1559 16.7719 48.0652 16.8843 47.9892C17.0297 47.891 17.2725 47.891 17.4664 47.9405C18.7763 48.2354 20.3773 48.5301 21.8327 48.3332C22.0144 48.3862 22.0295 48.2421 22.0488 48.0589C22.0655 47.8995 22.0854 47.7106 22.2208 47.5963C22.3179 47.4977 23.1911 47.3994 23.4337 47.4487L23.0944 43.5157C22.706 43.5648 22.2694 43.6135 21.8327 43.6135C20.4181 43.6135 19.4327 43.1784 19.0381 43.0042L19.0378 43.0041L19.0372 43.0038C19.0126 42.9929 18.9903 42.9831 18.9704 42.9744C18.7763 43.3674 18.6792 43.6625 18.6308 43.9082C18.6156 43.9697 18.602 44.0458 18.5915 44.1313L18.5823 44.1058C18.097 43.6625 17.1267 43.171 16.5445 42.8763C16.1564 42.6299 15.8167 42.3353 15.5742 41.9906C15.5742 41.942 15.5256 41.942 15.4771 41.942C15.1862 41.942 14.9435 42.0394 14.7011 42.1879L14.6524 42.2362C14.4099 42.8763 14.2642 43.3674 14.1672 43.8593C13.9732 44.3505 13.779 44.7439 13.5851 45.0389C13.294 45.3349 13.003 45.8265 13.294 46.1207C13.3424 46.2683 13.3424 46.4159 13.3424 46.5644C13.3424 46.6153 13.3366 46.6662 13.331 46.7152C13.3205 46.8076 13.3108 46.893 13.3424 46.9572C13.2455 47.1045 13.1484 47.3506 13.1484 47.4487V47.7436C13.1037 48.1514 13.1826 48.3082 13.2712 48.4844L13.294 48.5301C13.294 48.555 13.3063 48.5799 13.3185 48.6047C13.3305 48.6291 13.3424 48.6534 13.3424 48.6773ZM36.1453 40.713C35.8544 40.9091 35.7087 41.0079 35.7087 41.0079L36.0967 41.3511C37.0186 40.664 38.9592 40.5158 38.668 42.2362C38.0858 44.3019 37.6978 46.5143 39.3959 46.6128C39.0563 46.1704 39.1046 45.6785 39.2502 45.1868C39.486 44.6405 39.7921 44.0942 40.0058 43.7128L40.0059 43.7126C40.0999 43.5448 40.1761 43.4089 40.2205 43.3189C40.8999 41.5977 40.9484 39.6799 38.9107 39.2371C37.6365 39.003 36.8232 39.9515 36.3975 40.4478L36.3975 40.4479L36.3974 40.448C36.2883 40.5753 36.2046 40.6728 36.1453 40.713ZM32.7975 49.268C32.7491 50.1528 32.943 50.7926 33.1858 51.4315C32.8461 51.7263 32.5549 52.2186 32.3124 53.2996C32.458 53.6436 32.3124 53.7421 32.0212 53.7914C31.7787 53.8406 30.954 53.6436 31.0511 53.6436C31.2279 53.1779 31.353 53.0252 31.5018 52.8436C31.5571 52.776 31.6158 52.7045 31.6816 52.6113C32.0212 51.9225 32.0696 51.1854 31.6816 50.5458C31.6331 50.497 31.5967 50.4358 31.5604 50.3745C31.524 50.3132 31.4876 50.2518 31.4389 50.2028C31.2066 49.7988 30.8605 49.5792 30.5564 49.3862C30.4161 49.2972 30.2847 49.2139 30.1776 49.1207C29.8382 48.8253 29.5955 48.4324 29.4498 47.9893L29.3044 47.4976C29.3044 47.4976 29.7411 47.3993 30.0808 47.2519C30.4688 47.0554 30.8568 46.809 30.8568 46.809C31.2364 47.9641 32.0583 48.6207 32.5009 48.9743C32.6804 49.1177 32.7975 49.2112 32.7975 49.268ZM30.4202 21.4378C30.4202 21.0941 30.7115 20.7987 31.0511 20.7987C31.3904 20.7987 31.6817 21.0941 31.6817 21.4378C31.7302 21.7828 31.439 22.0782 31.0511 22.0782C30.7115 22.0782 30.4202 21.7828 30.4202 21.4378ZM32.943 21.4378C32.943 21.585 33.0379 21.7298 33.1339 21.8762L33.1371 21.881C33.234 22.0284 33.3796 22.0782 33.5736 22.0782C33.9133 22.0782 34.2045 21.7828 34.2045 21.4378C34.2045 21.0941 33.9133 20.7987 33.5736 20.7987C33.234 20.7987 32.943 21.0941 32.943 21.4378ZM20.4261 22.0782C20.0865 22.0782 19.7954 21.7828 19.7954 21.4378C19.7954 21.0941 20.0865 20.7987 20.4261 20.7987C20.7657 20.7987 21.0568 21.0941 21.0568 21.4378C21.0568 21.7828 20.7657 22.0782 20.4261 22.0782ZM22.2696 21.4378C22.2696 21.5866 22.3667 21.7828 22.4636 21.881C22.5607 22.0284 22.7062 22.0782 22.9004 22.0782C23.24 22.0782 23.5312 21.7828 23.5312 21.4378C23.5312 21.0941 23.24 20.7987 22.9004 20.7987C22.5607 20.7987 22.2696 21.0941 22.2696 21.4378ZM24.0208 54.4815C23.9338 54.4931 23.8428 54.5052 23.7737 54.5284C23.6279 54.5776 23.24 55.0205 23.24 55.0205C23.6752 55.1187 23.9177 55.0211 24.1594 54.9238L24.1616 54.9229C24.4529 54.8236 24.8409 54.1842 24.8409 54.1842C24.6838 54.1842 24.4631 54.313 24.3333 54.3887C24.3028 54.4065 24.2773 54.4213 24.2588 54.4309C24.2078 54.4565 24.1168 54.4686 24.0208 54.4815ZM14.216 59.8882C13.8278 59.8882 13.5367 60.2327 13.5367 60.2327C13.4883 59.8882 14.0704 59.5446 14.0704 59.5446C13.731 59.5446 13.1001 59.7899 13.1001 59.7899C13.2941 59.3967 14.0704 59.1506 14.0704 59.1506L13.3913 59.0528C13.3913 59.0528 14.0704 58.561 14.9437 58.561C15.7795 58.5259 16.1903 58.7436 16.4274 58.8692C16.5206 58.9186 16.587 58.9538 16.6418 58.9538C16.7018 58.9538 16.7988 58.9397 16.923 58.9218C17.2004 58.8817 17.613 58.8221 18.0488 58.8559C18.6795 58.9049 19.3587 59.003 19.3587 59.003C19.5043 58.6594 19.5043 58.3153 19.5043 58.3153C19.4785 58.314 19.4534 58.3111 19.4282 58.3078C19.2946 58.3757 19.0004 58.4989 18.6795 58.4628C18.2914 58.4132 17.1755 57.3315 16.9326 57.0859C16.6902 56.8407 16.4962 56.6924 16.3992 56.7408C16.3652 56.7583 16.3431 56.7878 16.3184 56.8208C16.2724 56.882 16.2173 56.9555 16.0598 56.9879C15.9577 57.0136 15.8155 56.9441 15.6543 56.8653C15.5087 56.7941 15.3475 56.7154 15.1864 56.6924C14.8467 56.6439 14.6041 56.7408 14.6041 56.7408L14.7981 56.3969C14.4102 56.3969 13.925 56.7408 13.925 56.7408C14.0704 56.4473 14.3615 56.2002 14.3615 56.2002H14.0704C14.2644 56.0034 14.6526 55.7576 15.4289 55.6599C16.2052 55.562 16.7389 55.7082 17.03 55.9057C17.1839 55.9837 17.7044 56.2957 18.1606 56.5724C18.0759 56.1097 18.066 55.6038 18.1458 55.119C18.3398 53.9884 19.5043 52.955 20.6201 53.2012C21.071 53.2994 21.6929 53.614 22.0602 53.8145C23.4594 53.361 22.9004 52.4155 22.9004 52.4155C23.531 52.7098 23.5795 53.0542 23.4827 53.3981C23.5543 53.3756 23.6336 53.3477 23.7184 53.316C24.0267 53.1548 24.4763 52.8128 24.744 52.1194L24.5499 52.0707L25.1321 51.5786L25.1805 52.3162L24.9381 52.1696C24.9381 52.1696 24.8438 52.5696 24.4214 53.0258C24.6966 52.9053 24.9808 52.7754 25.2383 52.6577C25.6819 52.455 26.0466 52.2883 26.1509 52.2672C26.3511 52.2271 26.5182 52.4542 26.5978 52.5623C26.6147 52.5852 26.6276 52.6028 26.6361 52.6114C26.6361 52.6114 26.9756 52.5129 27.1214 52.6114C27.3153 52.7098 27.4606 53.0048 27.4606 53.0048C26.5876 53.5459 25.9084 54.1347 25.7627 54.332C25.6657 54.4309 25.3261 54.8236 25.2776 54.9229C25.2292 55.07 25.3747 55.3157 25.3747 55.3157C25.0834 55.8569 24.5499 55.7082 24.5499 55.7082L24.841 55.9553C24.3558 56.2002 23.725 56.2002 23.725 56.2002L23.628 56.2495C23.3605 56.4911 22.9655 56.4002 22.5993 56.3159L22.5989 56.3158C22.54 56.3022 22.4819 56.2888 22.4252 56.2771C23.0196 56.6456 24.0123 56.6202 24.6469 56.594C25.7811 56.4262 26.3514 55.9553 26.952 55.4595C27.5844 54.9373 28.2504 54.3875 29.644 54.1347C31.2451 53.8901 32.555 54.2343 34.2046 55.3157C35.8543 56.3969 37.6006 56.8407 38.1827 56.0034C38.691 55.2746 38.4598 54.6202 38.0704 53.5174L38.0704 53.5174C38.0136 53.3566 37.9534 53.1863 37.8917 53.0048L37.8645 52.9224C37.6759 52.3519 37.4595 51.6968 37.552 51.0865C37.6491 50.2515 38.1342 49.4646 39.0562 49.268C39.5413 49.1697 40.0749 49.2187 40.4147 49.366C40.9288 49.627 41.1781 50.2326 41.2628 50.4383L41.2745 50.4667L41.2817 50.4836C41.284 50.4889 41.2861 50.4935 41.2879 50.4972C41.3363 50.6443 41.3846 51.1854 41.191 51.5293C41.0453 51.8248 40.6086 52.4633 40.6086 52.4633C40.4863 52.0673 40.2778 51.8332 40.1072 51.6418C39.9393 51.4533 39.8082 51.3062 39.8324 51.0865C39.9294 50.4972 40.5115 50.5957 40.5115 50.5957C40.4631 50.3984 40.2205 50.0064 39.6868 49.9563C39.1533 49.9071 38.5225 50.3008 38.4739 51.1854C38.4344 51.9047 38.9394 52.8509 39.3125 53.5498C39.3986 53.7111 39.4776 53.8592 39.5413 53.9884C40.9482 56.6439 38.9591 58.3153 36.7274 58.2657C35.9027 58.2165 34.9808 58.0197 34.2529 57.6259C33.9134 57.4789 34.1077 58.2657 34.1077 58.2657C34.1077 58.4628 34.6898 59.003 34.6898 59.003C34.2046 60.1341 33.3797 60.478 32.9916 60.478C32.794 60.4531 32.5965 60.3773 32.4183 60.3088L32.4182 60.3088C32.2462 60.2428 32.092 60.1836 31.9728 60.1836C31.7786 60.1836 31.4875 60.2327 31.4875 60.2327C31.5363 60.0851 31.8272 59.9376 31.8272 59.9376C31.5846 59.9863 31.0511 60.0851 31.0511 60.0851C31.2451 59.8882 31.8272 59.7404 31.8272 59.7404L31.2451 59.6424C31.6834 59.272 32.1219 59.4321 32.4568 59.5543C32.5666 59.5944 32.6653 59.6304 32.7492 59.6424C33.0402 59.6931 33.4768 59.4947 33.4768 59.1025C33.4768 58.6101 33.0886 58.6101 32.5065 58.6594C32.0697 58.7093 31.439 58.6101 30.8083 58.4132C30.024 58.1601 29.7375 57.8538 29.6022 57.7092C29.5534 57.657 29.5243 57.6259 29.4986 57.6259C29.4938 57.6308 29.4872 57.6447 29.4768 57.6664C29.3807 57.8674 28.9608 58.7459 26.6846 59.5446C24.8894 60.1836 21.6875 59.6424 21.6875 59.6424V59.4153C21.6313 59.8897 21.4653 60.1979 21.3964 60.2327C21.3496 60.2563 21.2242 60.2343 21.0579 60.2052H21.0578C20.8788 60.1738 20.6524 60.1341 20.4261 60.1341C20.2425 60.1341 20.1006 60.1693 19.9242 60.2131C19.6344 60.2851 19.2513 60.3803 18.437 60.3803C17.3738 60.3419 16.7861 60.0622 16.5343 59.9424C16.4643 59.9091 16.4203 59.8882 16.3992 59.8882C16.3887 59.8882 16.3714 59.9043 16.3448 59.9291C16.2486 60.0189 16.0306 60.2221 15.5744 60.1836C15.454 60.1836 15.2755 60.1247 15.0766 60.059C14.7948 59.966 14.472 59.8594 14.216 59.8882ZM28.5284 60.2328C28.4313 59.9864 28.3343 59.3968 28.4313 59.0529C28.4313 59.0529 28.3343 59.2009 27.8006 59.4947C27.3155 59.693 26.9274 59.8391 26.9274 59.8391C27.2185 60.134 27.4608 60.7734 27.4608 60.7734C27.2108 60.6888 26.925 60.6769 26.6648 60.6754C26.6801 60.6525 26.6602 60.6346 26.5877 60.6255C26.0541 60.5767 25.4234 60.8722 25.4234 60.9212L25.724 60.9549L25.7169 60.9568L25.695 60.9627L25.666 60.9702C25.4234 61.2161 25.1323 61.5608 25.1323 61.5608C25.5689 61.3143 26.1026 61.1173 26.1026 61.1173C25.7145 61.4125 25.6174 61.9545 25.6174 61.9545C26.1997 61.4125 26.7818 61.3636 27.2668 61.4125C27.752 61.4617 28.2372 61.4617 28.674 61.3143C29.1106 61.1668 29.1106 60.9702 29.0135 60.8224C28.9946 60.7649 28.9315 60.7149 28.8557 60.6549C28.7372 60.561 28.5877 60.4426 28.5284 60.2328ZM26.6846 33.0421C26.7333 32.9933 26.7816 33.0421 26.7816 33.1399C26.7333 33.1892 26.6362 33.2387 26.5876 33.1892C26.5876 33.1892 26.5391 33.1399 26.5391 33.0916C26.5876 33.0916 26.6362 33.0916 26.6846 33.0421ZM26.6845 32.1564C26.6845 32.2057 26.7332 32.2555 26.7815 32.2555C26.83 32.2057 26.9756 32.1564 27.1214 32.1564C27.1214 32.1464 27.1235 32.1364 27.1254 32.1267C27.133 32.0897 27.1394 32.0586 27.0241 32.0586C26.9272 32.1081 26.8786 32.1081 26.7815 32.1081C26.8294 32.0102 26.9718 31.9616 27.1156 31.9125L27.1214 31.9105C27.1695 31.813 27.1214 31.7642 27.0726 31.7642C26.9272 31.813 26.7815 31.9105 26.6361 32.0089C26.5874 32.0586 26.5874 32.1564 26.6845 32.1564ZM26.5875 32.8938H26.8301C26.8785 32.8938 26.8785 32.9438 26.8785 32.9438C26.8026 32.9697 26.7265 32.9954 26.6504 33.0211C26.581 33.0445 26.5115 33.068 26.442 33.0916C26.3935 32.9934 26.3935 32.9438 26.4906 32.9438C26.5149 32.9438 26.527 32.9313 26.5391 32.9188C26.5512 32.9063 26.5633 32.8938 26.5875 32.8938ZM27.0244 18.0948C27.0244 18.1926 26.976 18.1926 26.976 18.1926C26.9555 18.1926 26.9436 18.1926 26.9331 18.1889C26.9188 18.1839 26.9069 18.172 26.8789 18.1441C24.4531 14.8987 22.0272 10.9164 24.3076 7.12953C24.3076 7.08079 24.3561 7.08079 24.4045 7.08079C25.2225 7.49531 25.5377 8.83187 25.8211 10.0332C25.9411 10.542 26.0554 11.0266 26.1997 11.4066C26.1997 11.3526 26.1974 11.2688 26.1943 11.1613L26.1943 11.1611C26.1699 10.2914 26.1019 7.86831 26.8789 7.08079C26.8789 7.08079 26.9276 7.03127 26.976 7.03127H27.0244C27.7523 7.47436 27.9463 10.7686 27.9463 11.3092C28.0209 11.05 28.0932 10.7481 28.1709 10.4238C28.4467 9.2718 28.7902 7.83716 29.5474 7.03127C29.5958 6.98227 29.6443 7.03127 29.6443 7.08079C31.9246 10.8668 29.5958 14.6524 27.0244 18.0948ZM19.6495 19.1764H19.698H26.1021C26.1506 19.1764 26.1992 19.1269 26.1992 19.1269C26.2235 19.1023 26.2356 19.0901 26.2356 19.0779C26.2355 19.0657 26.2234 19.0536 26.1992 19.0294L26.1992 19.0294C26.1992 19.0294 22.9486 15.4401 22.2207 12.4406C21.3961 8.99837 22.6089 7.47438 22.6089 7.47438V7.37599C22.5847 7.37599 22.5725 7.36393 22.5604 7.35187C22.5483 7.33982 22.5361 7.32776 22.5119 7.32776H22.4149C20.8138 7.32776 16.8842 8.99837 16.8842 13.1781C16.8842 16.9642 19.6009 19.1764 19.6495 19.1764ZM27.752 19.0295C27.8006 18.9795 31.0026 15.4401 31.7303 12.4406C32.5551 8.99836 31.3424 7.4745 31.3424 7.4745C31.3181 7.4497 31.3059 7.43732 31.306 7.42498C31.306 7.41269 31.3182 7.40044 31.3424 7.37598C31.3424 7.32788 31.3907 7.32788 31.4392 7.32788H31.5364C33.1374 7.32788 37.0673 8.99836 37.0673 13.1782C37.0673 16.9643 34.3503 19.1764 34.3017 19.1764H27.8491C27.8006 19.1764 27.752 19.1764 27.752 19.1269V19.0295ZM26.2962 5.90114C26.2962 6.29368 26.5873 6.58951 26.9755 6.58951C27.3636 6.58951 27.6546 6.24481 27.6546 5.90114C27.6546 5.5077 27.3636 5.21252 26.9755 5.21252C26.5873 5.21252 26.2962 5.5077 26.2962 5.90114ZM29.4987 38.4012L29.4502 38.2545L29.4016 38.1067C29.4016 38.0577 29.4016 37.9591 29.353 37.9104L28.3854 38.4979C28.4285 38.5719 28.4927 38.6603 28.6255 38.7946L29.4987 38.4012ZM5.4348 43.6135C4.41582 42.0894 3.34856 42.6793 3.34856 42.6793C3.34856 42.6793 2.47508 41.4988 1.40795 39.8274C-0.532797 36.6804 0.0978517 35.107 0.0978517 35.107L2.42667 29.7965C2.27298 31.4174 3.3279 32.8013 4.81297 34.7495C5.67063 35.8747 6.67176 37.188 7.6664 38.8439C9.26748 41.4988 9.7041 42.9744 9.1704 45.4813C8.83074 47.2029 7.90898 47.0555 7.6664 46.9572C7.12661 46.7177 6.51646 45.5748 6.01541 44.6362C5.7959 44.2251 5.59734 43.8531 5.4348 43.6135ZM1.50463 26.8963C2.62043 27.8306 3.0573 28.3225 3.0573 28.3225C3.0573 28.3225 4.12444 26.7975 5.24037 28.7639C5.42196 29.0711 5.5469 29.5023 5.68148 29.9669C5.9783 30.9915 6.32199 32.1779 7.42368 32.5504C8.19995 32.8454 8.73339 32.1565 8.78193 31.8131C8.92769 31.0755 9.02451 29.2066 7.90884 27.4861C7.37304 26.6538 6.7584 26.1408 6.43272 25.8689C6.31597 25.7715 6.23635 25.705 6.2108 25.6659C6.2108 25.6659 3.7849 23.8962 3.00863 23.5522C2.2809 23.2084 0.825315 23.1102 0.437371 23.8962C0.194667 24.4376 0.194667 25.6173 1.50463 26.8963ZM5.1924 18.8328L5.24475 18.8186C5.21587 18.8218 5.19781 18.8273 5.1924 18.8328ZM8.05418 33.1893C7.86014 33.288 7.6661 33.2388 7.18095 33.0916C6.09871 32.7378 5.66968 31.4927 5.24298 30.2544C5.07669 29.7718 4.91075 29.2902 4.70664 28.8628C4.27016 27.9781 3.63938 28.3718 3.49376 29.0594C2.96019 31.0756 6.74434 35.3043 6.74434 35.3043L8.19993 33.3371L8.19917 33.3355C8.15075 33.2378 8.10246 33.1403 8.05418 33.1893ZM5.62889 45.4813C6.4537 47.154 7.47242 47.9405 8.15161 47.6943C8.20028 47.6453 8.24856 47.7435 8.20028 47.7925C7.90916 48.2354 7.22997 49.022 7.22997 48.8738C7.22997 48.8626 7.16714 48.8194 7.05789 48.7444C6.69682 48.4966 5.82877 47.9007 5.04678 46.9572C3.78523 45.4328 3.44557 43.7615 3.54265 43.5649C3.97914 42.8763 4.61004 43.3188 5.62889 45.4813ZM1.60161 51.2836C3.29965 52.7584 3.34832 53.742 3.0572 54.7748C2.7334 55.9561 1.97766 56.6339 1.5394 57.0269C1.32084 57.2229 1.18124 57.3481 1.21354 57.4296C1.40758 57.8235 2.32934 58.5121 3.39673 57.3799C3.73036 57.0097 4.00156 56.6975 4.23588 56.4278C4.71714 55.8739 5.04285 55.499 5.43443 55.1683C6.40473 54.332 7.472 54.4309 7.76298 55.1683C7.76298 55.1683 7.86007 53.742 7.66616 52.6609C7.43044 51.0288 6.75001 50.3636 5.80464 49.4394L5.80454 49.4393L5.80433 49.4391C5.58171 49.2215 5.34441 48.9895 5.09477 48.7271C2.36221 45.9104 2.60345 44.4838 2.70836 43.8634L2.71729 43.8101L0.485811 47.8418C0.485811 47.8418 -0.144965 49.858 1.60161 51.2836ZM4.8456 56.6587C5.09634 56.3501 5.33827 56.0524 5.58022 55.8071C6.30795 55.07 7.22984 55.07 7.37521 56.0533C7.37521 56.0533 7.56937 56.6439 6.55052 58.2165C5.43472 59.888 2.96041 61.2655 2.96041 61.2655L1.35933 58.1675C1.35933 58.1675 1.94156 58.8559 2.96041 58.4132C3.69513 58.0747 4.29185 57.3403 4.8456 56.6587ZM6.16214 66.1328C8.1513 64.5601 9.2671 62.396 9.2671 62.396L7.95726 56.5452C7.95726 56.5452 7.7631 57.3315 7.42369 58.1183C6.74438 59.6424 4.85218 61.1173 2.76607 62.396C0.63129 63.7237 0.485924 65.6414 0.485924 65.6414L0.63129 72.2791C1.21365 70.2625 4.17299 67.7062 6.16214 66.1328ZM8.05447 24.4376C8.05447 24.4376 8.20022 23.5037 6.89025 22.7168C6.8176 22.6732 6.74435 22.6294 6.67081 22.5855C5.41825 21.8371 4.07909 21.0369 4.1247 20.062C4.1247 19.3261 4.39282 19.4054 4.65042 19.4816C4.70284 19.4971 4.75482 19.5124 4.80402 19.5208C5.33771 19.6188 7.13283 20.4053 9.70422 23.3557L8.05447 24.4376ZM7.37534 24.6346C7.90917 24.6346 7.42401 23.7003 6.50225 23.1593C5.92001 22.8148 4.41601 21.8318 4.41601 21.8318C4.41601 21.8318 2.66943 22.618 2.81506 22.5692C3.90559 22.5139 4.81226 23.173 5.62117 23.7611C6.25171 24.2194 6.82284 24.6346 7.37534 24.6346ZM5.04684 70.1641C5.04684 70.1641 5.28928 70.5085 5.77457 70.7548L5.88753 70.8085C6.69703 71.1929 7.70863 71.6732 7.56956 72.3765C7.52102 72.721 7.18136 73.2127 6.25959 73.0654C5.79091 72.9765 5.55215 72.7976 5.22288 72.5508C5.00686 72.3889 4.7519 72.1979 4.36752 71.9839C3.78528 71.6401 2.9606 71.5417 2.08725 71.738L5.04684 70.1641ZM5.77424 68.0019C5.77424 68.0019 4.99797 68.8373 5.87106 69.4761C6.25086 69.7543 6.71321 70.0045 7.14642 70.2389L7.14651 70.239C7.70943 70.5436 8.22314 70.8216 8.44258 71.0997C8.97615 71.7872 8.63649 72.4267 7.90889 73.2126L10.7227 71.2463C10.7227 71.2463 9.2186 67.9031 5.77424 68.0019ZM12.2757 68.4928C12.4212 69.0829 12.6153 69.5253 14.3134 70.5085C16.185 71.5733 16.0377 72.2019 15.9733 72.4765L15.9713 72.4853L15.9671 72.5034L15.9627 72.524C15.9627 72.9183 15.1867 73.5574 15.1867 73.5574C15.1867 73.5574 12.2757 73.0176 11.4994 70.8529C10.7231 68.69 8.78238 67.6083 7.47254 67.3624C7.29102 67.3278 7.13869 67.2986 7.0112 67.2742C6.59349 67.1942 6.44247 67.1653 6.40528 67.1653L10.1893 65.4447C10.1893 65.4447 10.6747 64.8541 13.6342 66.7721C13.6342 66.7721 11.9845 67.2633 12.2757 68.4928ZM13.9253 67.6083C13.7312 67.6083 13.3916 67.7555 13.4886 68.2479C13.6488 69.0597 14.6368 69.57 15.5227 70.0275C15.7093 70.1238 15.8913 70.2178 16.06 70.3118C17.0302 70.8529 17.1758 71.5903 16.9818 72.1804C16.8362 72.5738 16.7392 72.721 16.7392 72.721L18.6798 71.0997C18.6728 71.0997 18.6082 71.0311 18.4971 70.9131C17.8383 70.2133 15.5442 67.7766 13.9253 67.6083ZM44.8296 45.5308C44.2961 43.0232 44.7325 41.5483 46.3336 38.8929C47.3366 37.2051 48.3461 35.8722 49.2085 34.7337C50.6823 32.7879 51.7264 31.4095 51.5734 29.7965L53.9022 35.1563C53.9022 35.1563 54.5328 36.7302 52.592 39.8769C51.5248 41.5483 50.6516 42.7285 50.6516 42.7285C50.6516 42.7285 49.5842 42.1384 48.5655 43.6625C48.4031 43.9019 48.2093 44.273 47.9951 44.6833C47.5049 45.6223 46.9075 46.7666 46.3336 47.0059C46.0909 47.1045 45.1693 47.2029 44.8296 45.5308ZM47.7403 25.6173C47.7145 25.6566 47.6308 25.727 47.5089 25.8294C47.1713 26.1131 46.5414 26.6424 46.0422 27.4369C44.9264 29.1578 45.0235 31.0258 45.1691 31.7642C45.2177 32.108 45.7514 32.7964 46.5274 32.5009C47.6579 32.1192 48.0144 30.8796 48.3141 29.8374L48.3141 29.8373L48.3141 29.8373C48.4388 29.4035 48.5537 29.0038 48.7106 28.7146C49.8266 26.7975 50.8939 28.273 50.8939 28.273C50.8939 28.273 51.3305 27.7808 52.3979 26.7975C53.708 25.5188 53.7564 24.3398 53.465 23.7978C53.0771 23.0114 51.6702 23.1592 50.8939 23.4549C50.166 23.7978 47.7403 25.6173 47.7403 25.6173ZM49.3412 28.8132C49.7779 27.9285 50.36 28.3226 50.554 29.0103C51.1102 30.9833 47.6369 34.8856 47.3681 35.1876L47.3521 35.2057L45.8968 33.2387C45.8481 33.1892 45.9451 33.0912 45.9936 33.1399C46.1391 33.2387 46.3817 33.1892 46.8667 33.0421C47.9184 32.6984 48.3297 31.5133 48.7472 30.3104C48.9269 29.7928 49.1077 29.2718 49.3412 28.8132ZM48.3712 45.4813C47.5463 47.154 46.5274 47.9405 45.8483 47.7435C45.7998 47.7435 45.7514 47.7925 45.7998 47.8418C46.1393 48.2841 46.7699 49.0713 46.7699 48.924C46.7699 48.894 46.8777 48.8185 47.0564 48.6933C47.465 48.4072 48.2444 47.8613 48.9533 47.0059C50.2146 45.4813 50.5542 43.7615 50.4571 43.6136C50.0208 42.8763 49.3899 43.3188 48.3712 45.4813ZM51.2465 43.9339L51.2401 43.897L51.2337 43.8593L53.4169 47.891C53.4169 47.891 54.0477 49.8581 52.3494 51.3326C50.6515 52.8081 50.6029 53.7914 50.894 54.8235C51.236 55.927 51.9567 56.6059 52.3919 57.0158C52.6356 57.2454 52.7898 57.3907 52.7376 57.4788C52.5435 57.872 51.5732 58.5609 50.5542 57.4296C50.2189 57.0576 49.9467 56.744 49.7116 56.4732C49.2323 55.9211 48.9073 55.5467 48.5167 55.2175C47.5464 54.3807 46.4791 54.4796 46.1881 55.2175C46.1881 55.2175 46.1395 53.7914 46.2848 52.7098C46.5205 51.0782 47.2012 50.4126 48.1469 49.488L48.1469 49.488L48.147 49.4879C48.3695 49.2703 48.6068 49.0383 48.8563 48.776C51.6046 45.9911 51.3564 44.5657 51.2465 43.9339ZM51.0397 61.2655L52.6405 58.1675C52.6405 58.1675 52.0584 58.8557 51.0397 58.4132C50.2723 58.0751 49.6886 57.342 49.1465 56.6612L49.1465 56.6611C48.9001 56.3517 48.6623 56.053 48.4197 55.8071C47.692 55.07 46.77 55.07 46.6245 56.0533C46.6245 56.0533 46.4791 56.6924 47.4492 58.2164C48.5653 59.888 51.0397 61.2655 51.0397 61.2655ZM46.5278 58.1675C47.2071 59.693 49.0992 61.1669 51.1853 62.4458C53.3201 63.773 53.4655 65.6905 53.4657 65.7395L53.3201 72.3767C52.7863 70.2626 49.8271 67.7556 47.8377 66.1822C45.8486 64.6088 44.7327 62.4458 44.7327 62.4458L45.9941 56.594C45.9941 56.594 46.1884 57.38 46.5278 58.1675ZM44.2958 23.3555L45.9451 24.4376C45.9451 24.4376 45.7996 23.5036 47.1098 22.7167L47.2063 22.6589L47.325 22.5879C48.5787 21.8387 49.9233 21.0352 49.9233 20.0126C49.9233 19.26 49.6082 19.36 49.3646 19.4373L49.3645 19.4373C49.3215 19.4509 49.2807 19.4639 49.2442 19.4713C48.6621 19.5692 46.8183 20.3561 44.2958 23.3555ZM46.6249 24.6346C46.0912 24.6346 46.5762 23.7003 47.4981 23.1593C48.0316 22.8148 49.5844 21.8318 49.5844 21.8318C49.5844 21.8318 51.3309 22.5692 51.1853 22.5692C50.0948 22.5139 49.1882 23.173 48.3792 23.761C47.7487 24.2194 47.1775 24.6346 46.6249 24.6346ZM48.1332 70.8013L48.031 70.8524C47.2763 71.2292 46.3415 71.6958 46.4306 72.3278C46.4792 72.6729 46.8187 73.2127 47.7405 73.0176C48.209 72.9279 48.4478 72.749 48.7769 72.5025C48.9929 72.3407 49.248 72.1496 49.6325 71.9355C50.2146 71.5903 51.0881 71.4921 51.9129 71.689L48.9535 70.1157C48.9458 70.1234 48.9333 70.1385 48.9159 70.1594C48.8233 70.2707 48.5932 70.5475 48.2256 70.7548L48.1332 70.8013ZM46.9692 70.1518C46.366 70.4711 45.7888 70.7767 45.5573 71.0998C45.0236 71.8365 45.363 72.4269 46.0908 73.2127L43.2769 71.2464C43.2769 71.2464 44.7809 67.9032 48.2255 68.002C48.2255 68.002 49.0019 68.8373 48.1287 69.4761C47.796 69.714 47.3767 69.9361 46.9692 70.1518ZM46.479 67.4108L46.8846 67.3335L46.8848 67.3335L46.8861 67.3333C47.3451 67.2457 47.5075 67.2147 47.5463 67.2147L43.7623 65.4933C43.7623 65.4933 43.2769 64.9034 40.3175 66.8213C40.3175 66.8213 41.967 67.3128 41.6758 68.542C41.5303 69.132 41.3364 69.6238 39.6384 70.5584C37.8433 71.5787 37.9052 72.1985 37.9344 72.4905L37.9344 72.4906C37.9376 72.5221 37.9403 72.5498 37.9403 72.5738C37.9403 72.9675 38.7165 73.6063 38.7165 73.6063C38.7165 73.6063 41.6275 73.0655 42.4038 70.9025C43.2283 68.6901 45.2176 67.6573 46.479 67.4108ZM35.3202 65.2968C36.1937 65.4932 40.0749 66.7722 40.0749 66.7722C40.0749 66.7722 38.1829 67.1153 36.1937 69.0339C35.869 69.3324 35.5431 69.6582 35.2057 69.9957L35.2045 69.9969L35.2043 69.9971C33.3737 71.8278 31.2016 74 27.0242 74C22.7882 74 20.6141 71.8025 18.7672 69.9359C18.4566 69.6218 18.1551 69.3172 17.8547 69.0339C15.8657 67.1654 13.9735 66.7722 13.9735 66.7722C13.9735 66.7722 17.8547 65.4932 18.7281 65.2968C19.5527 65.1003 20.6687 65.3952 22.5122 67.2146C24.6762 69.3606 26.6214 69.2927 26.9803 69.2801C26.9996 69.2794 27.0143 69.2789 27.0242 69.2789C27.0373 69.2789 27.0557 69.2795 27.079 69.2803C27.4875 69.2931 29.4251 69.3539 31.5363 67.2146C33.3313 65.3952 34.4473 65.1003 35.3202 65.2968ZM37.9404 70.3117C38.1091 70.2178 38.291 70.1238 38.4774 70.0275C39.3632 69.57 40.3513 69.0596 40.5115 68.2478C40.6086 67.7554 40.269 67.6082 40.0749 67.6082C38.1828 67.8541 35.3202 71.0996 35.3202 71.0996L37.1988 72.669C37.1484 72.5968 37.0836 72.4441 37.0186 72.1803C36.8245 71.5902 36.97 70.8528 37.9404 70.3117ZM42.9376 59.5446V25.814H11.0629V59.3967C11.0629 61.3142 12.4699 62.6411 14.459 62.6411H24.4045C25.6661 62.6411 26.4909 63.3793 26.9761 64.1171C27.4609 63.3793 28.2373 62.6411 29.5474 62.6411H39.2505C41.4337 62.6411 42.9376 61.3635 42.9376 59.5446ZM10.6318 22.7427C10.1338 22.2084 9.58538 21.62 8.05468 20.3074C6.41863 18.9118 5.471 18.7931 5.2443 18.8185L10.0438 17.5043C10.335 17.4553 11.548 17.6522 13.3428 20.5035C14.8274 22.8964 16.6536 24.1381 18.1052 24.7816H19.3103V23.4549H34.69V24.7816H35.5679C37.053 24.1692 38.9963 22.9259 40.5602 20.4054C42.3553 17.5535 43.5683 17.357 43.8593 17.406L48.7109 18.7349C48.7109 18.7349 47.7406 18.6856 45.8972 20.2584C44.366 21.5707 43.8177 22.1593 43.3196 22.6939C42.9969 23.0402 42.6953 23.3639 42.1613 23.8471C41.718 24.253 41.2625 24.5557 40.8398 24.7816H43.9565V59.5446C43.9565 61.9041 42.0158 63.6253 39.2989 63.6253H29.5957C27.8977 63.6253 27.558 65.3952 27.558 65.4932L27.0243 67.7554L26.4908 65.4932C26.4908 65.3952 26.054 63.6253 24.4044 63.6253H14.4589C11.8874 63.6253 10.0438 61.8064 10.0438 59.3477V24.7816H13.021C12.6244 24.5613 12.2021 24.2733 11.7905 23.8962C11.2562 23.4128 10.9546 23.0891 10.6318 22.7427Z" fill="#F54E5A"/>
</svg>
