<svg width="110" height="30" viewBox="0 0 110 30" fill="none" xmlns="http://www.w3.org/2000/svg">
<path d="M28.9787 0.12766C20.4255 0.12766 14.2979 0.255319 8.42553 3.82979C3.4468 6.89361 0 13.6596 0 18.6383C0 29.617 12.2553 30 21.5745 30H31.0213C35.8723 30 36.8936 28.3404 37.6596 25.4042L38.4255 22.4681H23.234C19.1489 22.4681 15.7021 21.7021 15.7021 17.4894C15.7021 14.4255 17.3617 11.234 20.0425 9.31915C22.5957 7.53191 25.9149 7.27659 29.8723 7.27659C33.0638 7.27659 40.4681 7.40425 42.2553 7.40425L44.2978 0H28.9787V0.12766Z" fill="#E31B23"/>
<path d="M47.2352 0.12793L45.3203 7.53218H64.7246C66.3841 7.53218 67.1501 8.17048 66.7671 9.70239C66.5118 10.8513 65.7458 11.6173 63.7033 11.6173H56.1714C55.2778 11.6173 54.5118 12.1279 54.2565 13.1492L49.7884 30.0003H60.7671C65.1075 30.0003 66.2565 27.5747 66.7671 25.4045L71.6182 7.53218H88.5969L90.6394 0.12793H47.2352Z" fill="#E31B23"/>
<path d="M93.3172 0.12793L91.2747 7.53218H100.211C101.87 7.53218 102.636 8.17048 102.253 9.70239C101.998 10.8513 101.232 11.6173 99.1896 11.6173H91.7853C90.8917 11.6173 90.1257 12.1279 89.8704 13.1492L85.4023 30.0003H96.3811C100.721 30.0003 101.998 27.5747 102.509 25.4045L109.275 0.25559H93.3172V0.12793Z" fill="#E31B23"/>
</svg>
