<svg xmlns="http://www.w3.org/2000/svg" width="219" height="33" viewBox="0 0 219 33">
  <defs>
    <style>
      .cls-1 {
        fill: #A7A9AC;
      }

      .cls-1, .cls-2 {
        fill-rule: evenodd;
      }

      .cls-2 {
        fill: #f2264d;
      }
    </style>
  </defs>
  <path class="cls-1" d="M246.02,64.8V65.08h6.849a15.888,15.888,0,0,0-3.106-.282H246.02Zm8.952-5.015a17.215,17.215,0,0,1,5.553,1.981,12.576,12.576,0,0,1,4.8,4.92,17.488,17.488,0,0,1,1.946,8.81,17.73,17.73,0,0,1-1.844,8.618,12.441,12.441,0,0,1-4.617,4.937,17.09,17.09,0,0,1-5.6,2.094,32.091,32.091,0,0,1-5.54.5h27.553V65.08h9.336V59.361H249.674a34.129,34.129,0,0,1,5.3.422m35.017,31.856h19.3V85.919H296.539V77.666H308.13v-5.3H296.539V65.08h12.753V59.361h-19.3V91.638Zm35.362-25.906a13.169,13.169,0,0,1,5.943-1.306,17.027,17.027,0,0,1,6.415,1.206l0.282-5.539a23.575,23.575,0,0,0-7.159-1.1,22.8,22.8,0,0,0-7.487,1.159,15.777,15.777,0,0,0-5.7,3.361,14.578,14.578,0,0,0-3.591,5.3,18.342,18.342,0,0,0-1.241,6.878,17.84,17.84,0,0,0,1.3,7.009,14.22,14.22,0,0,0,3.63,5.157,15.55,15.55,0,0,0,5.4,3.12,20.052,20.052,0,0,0,6.485,1.04,26.37,26.37,0,0,0,8.365-1.384l-0.418-5.494a16.055,16.055,0,0,1-6.741,1.43,13.435,13.435,0,0,1-5.345-1.076,9.184,9.184,0,0,1-4.126-3.541,11.388,11.388,0,0,1-1.612-6.349,11.671,11.671,0,0,1,1.488-6.035,9.7,9.7,0,0,1,4.114-3.828m37.089-6.372v13H349.316v-13h-6.551V91.638h6.551V77.666H362.44V91.638h6.55V59.361h-6.55Z" transform="translate(-150.438 -59)"/>
  <path class="cls-2" d="M166.773,74.492a54.176,54.176,0,0,0-5.248-2.5,11.948,11.948,0,0,1-3.1-1.806,3.46,3.46,0,0,1-1.195-2.8,3.325,3.325,0,0,1,1.043-2.342q1.043-1.08,3.805-1.08a18.662,18.662,0,0,1,7.07,1.577l0.687-5.169a28.421,28.421,0,0,0-9.234-1.384,10.933,10.933,0,0,0-6.275,1.571,7.992,7.992,0,0,0-3.084,3.636,10.782,10.782,0,0,0-.8,3.878,7.809,7.809,0,0,0,.9,3.874,8.343,8.343,0,0,0,2.492,2.741,31.645,31.645,0,0,0,4.082,2.383q1.4,0.652,2.66,1.249a14.545,14.545,0,0,1,2.075,1.16,4.417,4.417,0,0,1,1.3,1.374,3.789,3.789,0,0,1,.485,1.982A3.4,3.4,0,0,1,163,85.566a5.833,5.833,0,0,1-3.744,1.143,16.663,16.663,0,0,1-3.906-.553,23.427,23.427,0,0,1-4.076-1.384l-0.7,5.617a24.349,24.349,0,0,0,8.41,1.622,17.565,17.565,0,0,0,5.587-.8,10.83,10.83,0,0,0,3.862-2.145,8.4,8.4,0,0,0,2.182-3.012,9.732,9.732,0,0,0-.643-8.533,9.561,9.561,0,0,0-3.2-3.029m20.419-8.76a13.158,13.158,0,0,1,5.942-1.306,17.02,17.02,0,0,1,6.415,1.206l0.282-5.539a23.581,23.581,0,0,0-7.16-1.1,22.8,22.8,0,0,0-7.486,1.159,15.8,15.8,0,0,0-5.7,3.361,14.6,14.6,0,0,0-3.591,5.3,18.342,18.342,0,0,0-1.241,6.878,17.84,17.84,0,0,0,1.3,7.009,14.208,14.208,0,0,0,3.63,5.157,15.527,15.527,0,0,0,5.4,3.12,20.045,20.045,0,0,0,6.483,1.04,26.372,26.372,0,0,0,8.366-1.384l-0.417-5.494a16.071,16.071,0,0,1-6.743,1.43,13.437,13.437,0,0,1-5.344-1.076,9.184,9.184,0,0,1-4.126-3.541,11.4,11.4,0,0,1-1.613-6.349,11.671,11.671,0,0,1,1.488-6.035,9.7,9.7,0,0,1,4.116-3.828m27.255,13.32,4.477-13.195h0.1l4.746,13.195h-9.324Zm1.06-19.692L202.619,91.638h7.025l2.729-7.238h13.338l2.729,7.238h7.385L222.994,59.361h-7.487Zm44.246,20.294a9.058,9.058,0,0,1-2.937,4.435q-2.35,2.112-7.053,2.112H246.02V64.8h3.743a15.888,15.888,0,0,1,3.106.282,8.168,8.168,0,0,1,3.947,1.829,9.066,9.066,0,0,1,2.937,4.435,15.02,15.02,0,0,1,0,8.309m5.576-12.97a12.583,12.583,0,0,0-4.8-4.92,17.22,17.22,0,0,0-5.553-1.982,34.129,34.129,0,0,0-5.3-.422H239.469V91.638h10.205a32,32,0,0,0,5.54-.5,17.106,17.106,0,0,0,5.6-2.093,12.446,12.446,0,0,0,4.617-4.937,17.735,17.735,0,0,0,1.844-8.618,17.5,17.5,0,0,0-1.945-8.811" transform="translate(-150.438 -59)"/>
</svg>
