<?xml version="1.0" encoding="UTF-8"?>
<!DOCTYPE svg PUBLIC "-//W3C//DTD SVG 1.1//EN" "http://www.w3.org/Graphics/SVG/1.1/DTD/svg11.dtd">
<!-- Creator: CorelDRAW 2018 (64-Bit) -->
<svg xmlns="http://www.w3.org/2000/svg" xml:space="preserve" width="114px" height="19px" version="1.1" style="shape-rendering:geometricPrecision; text-rendering:geometricPrecision; image-rendering:optimizeQuality; fill-rule:evenodd; clip-rule:evenodd"
viewBox="0 0 17.333 2.845"
 xmlns:xlink="http://www.w3.org/1999/xlink">
 <defs>
  <style type="text/css">
   <![CDATA[
    .fil0 {fill:black}
   ]]>
  </style>
 </defs>
 <g id="Слой_x0020_1">
  <metadata id="CorelCorpID_0Corel-Layer"/>
  <g id="_2674804086304">
   <path class="fil0" d="M5.188 0.466l0.362 -0.466c0.54,0.084 1.316,0.315 1.422,0.944 0.154,0.91 -0.974,1.445 -1.754,1.445l-0.665 0 0.37 -0.474 0.567 -0.118c0.347,-0.073 0.55,-0.312 0.496,-0.354l-1.117 -0.003 0.361 -0.469 0.939 0.016c-0.119,-0.39 -0.412,-0.417 -0.981,-0.521z"/>
   <path class="fil0" d="M8.63 0.679c-0.392,0.088 -0.656,0.347 -0.717,0.779 -0.009,0.062 -0.016,0.148 -0.016,0.223 -0.002,0.097 0.103,0.691 0.136,0.681l-0.398 0.483c-0.319,-0.347 -0.453,-0.596 -0.49,-1.077 -0.006,-0.074 0.007,-0.159 0.019,-0.255 0.03,-0.212 0.098,-0.417 0.202,-0.615 0.105,-0.197 0.246,-0.367 0.422,-0.511 0.183,-0.153 0.378,-0.255 0.583,-0.307 0.205,-0.052 0.441,-0.09 0.709,-0.078l0.411 0.018 -0.326 2.358 -0.781 0 0.246 -1.699z"/>
   <path class="fil0" d="M9.984 0l1.327 0c0.246,0 0.424,0.049 0.536,0.146 0.112,0.097 0.168,0.216 0.168,0.358 0,0.018 -0.002,0.046 -0.008,0.082 -0.025,0.177 -0.142,0.344 -0.351,0.5 0.089,0.078 0.16,0.168 0.214,0.272 0.054,0.103 0.081,0.21 0.081,0.318 0,0.036 -0.002,0.063 -0.005,0.082 -0.025,0.173 -0.116,0.319 -0.274,0.439 -0.158,0.119 -0.394,0.179 -0.709,0.179l-1.323 0 0.344 -2.376zm0.526 1.734l0.376 0c0.131,0 0.202,-0.039 0.215,-0.118 0,-0.058 -0.021,-0.109 -0.063,-0.155 -0.041,-0.047 -0.101,-0.097 -0.18,-0.151l-0.223 -0.161c0.035,-0.019 0.087,-0.052 0.159,-0.096 0.072,-0.045 0.143,-0.097 0.215,-0.153 0.071,-0.058 0.11,-0.106 0.116,-0.145 0,-0.044 -0.016,-0.073 -0.046,-0.089 -0.031,-0.016 -0.084,-0.024 -0.161,-0.024l-0.25 0 -0.158 1.092z"/>
   <path class="fil0" d="M14.37 2.383l-0.383 0 -0.859 0c-0.305,0 -0.523,-0.068 -0.656,-0.204 -0.132,-0.135 -0.198,-0.32 -0.198,-0.556 0,-0.085 0.005,-0.162 0.015,-0.232l0.197 -1.391c0.272,0 0.545,0 0.818,0l-0.184 1.34c-0.008,0.052 -0.008,0.088 -0.008,0.106 0,0.089 0.019,0.154 0.058,0.197 0.039,0.042 0.093,0.069 0.159,0.081 0.067,0.011 0.158,0.017 0.272,0.017l0.085 0 0.2 -1.387 0.051 -0.347 0.777 0 -0.311 2.143 -0.033 0.233z"/>
   <path class="fil0" d="M16.951 0.476c-0.496,0.001 -0.987,0.127 -1.175,0.687 -0.124,0.372 0.277,0.651 0.655,0.705 0.121,0.018 0.273,0.014 0.365,0.021l-0.393 0.498 -0.218 -0.005c-0.632,-0.017 -1.385,-0.583 -1.283,-1.256 0.051,-0.339 0.321,-0.669 0.666,-0.877 0.212,-0.128 0.473,-0.19 0.891,-0.228 0.294,-0.027 0.58,-0.023 0.874,-0.014l-0.382 0.469z"/>
   <path class="fil0" d="M2.483 0.519l0.394 -0.506c0.587,0.091 1.43,0.342 1.545,1.025 0.168,0.989 -1.058,1.571 -1.905,1.571l-0.723 0 0.402 -0.515 0.617 -0.129c0.376,-0.079 0.597,-0.339 0.538,-0.385l-1.213 -0.002 0.392 -0.51 1.02 0.017c-0.129,-0.423 -0.448,-0.453 -1.067,-0.566z"/>
   <path class="fil0" d="M1.954 2.103l-0.393 0.506c-0.587,-0.092 -1.43,-0.343 -1.545,-1.026 -0.168,-0.988 1.058,-1.57 1.905,-1.57l0.722 0 -0.401 0.515 -0.617 0.129c-0.377,0.078 -0.597,0.338 -0.538,0.384l1.213 0.003 -0.392 0.51 -1.02 -0.017c0.129,0.423 0.448,0.452 1.066,0.566z"/>
  </g>
 </g>
</svg>
